<?xml version="1.0" encoding="UTF-8"?>
<svg version="1.1" xmlns="http://www.w3.org/2000/svg" width="512" height="512">
<path d="M0 0 C168.96 0 337.92 0 512 0 C512 168.96 512 337.92 512 512 C343.04 512 174.08 512 0 512 C0 343.04 0 174.08 0 0 Z " fill="#543CE9" transform="translate(0,0)"/>
<path d="M0 0 C168.96 0 337.92 0 512 0 C512 168.96 512 337.92 512 512 C343.04 512 174.08 512 0 512 C0 343.04 0 174.08 0 0 Z M211 25 C210.26136719 25.13390137 209.52273437 25.26780273 208.76171875 25.40576172 C153.22392332 35.8762099 100.11812186 70.32595652 67 116 C66.2471875 117.01964844 65.494375 118.03929688 64.71875 119.08984375 C28.39793092 169.79831123 13.66363798 233.06509133 23.58984375 294.66015625 C24.2907162 298.13963547 25.12490146 301.56008012 26 305 C26.40423676 306.70689141 26.80782832 308.41393569 27.2109375 310.12109375 C36.64520051 349.10952639 54.75719208 384.25136654 81.94921875 413.76171875 C83.87444546 415.86296619 85.72078303 418.01319306 87.5625 420.1875 C90.46126279 423.51274743 93.57437921 426.40098772 96.94140625 429.24609375 C98.26674982 430.37527642 99.56885591 431.53262305 100.83984375 432.72265625 C125.12384243 455.37169264 155.59450192 470.91547591 187 481 C188.78083984 481.58394531 188.78083984 481.58394531 190.59765625 482.1796875 C201.18556363 485.43556367 212.08404003 487.23238195 223 489 C223.71994141 489.12149414 224.43988281 489.24298828 225.18164062 489.36816406 C248.24368391 493.15902986 272.01495776 491.38172628 295 488 C295.74427246 487.89848633 296.48854492 487.79697266 297.25537109 487.69238281 C341.47706291 481.55795489 388.1164698 457.21344298 419 425 C421.44644851 422.52948806 423.90698781 420.0876461 426.4375 417.703125 C451.76248581 393.45908371 468.90123345 360.87905279 480 328 C480.26393555 327.22462891 480.52787109 326.44925781 480.79980469 325.65039062 C488.13600363 303.69129583 491.43826214 279.92226102 491.375 256.8125 C491.37468277 255.725065 491.37468277 255.725065 491.37435913 254.61566162 C491.18850646 189.93012562 463.50382894 131.05641031 418.14208984 85.83740234 C411.97608263 79.79875655 405.6201772 74.26394493 398.63867188 69.19433594 C396.99679738 67.99766579 395.38083212 66.77141293 393.765625 65.5390625 C367.05415761 45.45992655 335.51559623 32.69690117 303 25.625 C302.34483398 25.48143066 301.68966797 25.33786133 301.01464844 25.18994141 C286.09813388 22.22182254 271.03528062 21.62450322 255.875 21.6875 C254.53586548 21.68973572 254.53586548 21.68973572 253.16967773 21.6920166 C238.94267756 21.73457438 225.01625652 22.37338097 211 25 Z " fill="#FEFEFE" transform="translate(0,0)"/>
<path d="M0 0 C-0.79147015 5.74298465 -2.31972092 11.24004887 -3.875 16.8125 C-4.13152344 17.77865234 -4.38804687 18.74480469 -4.65234375 19.74023438 C-4.90886719 20.65740234 -5.16539062 21.57457031 -5.4296875 22.51953125 C-5.65897949 23.35589111 -5.88827148 24.19225098 -6.12451172 25.05395508 C-6.55787842 26.01724731 -6.55787842 26.01724731 -7 27 C-10.95149101 28.31716367 -12.29806869 27.29497923 -16.125 25.75 C-30.21281325 20.40384595 -47.85030462 16.76007578 -62.328125 22.1484375 C-64.19893651 22.99283474 -64.19893651 22.99283474 -66 25 C-66.30615946 27.48599612 -66.30615946 27.48599612 -65 30 C-58.8042071 33.73896404 -53.03471911 34.96205746 -45.9375 36 C-10.15872954 41.79805093 -10.15872954 41.79805093 1.44921875 55.59375 C5.64413667 62.10274104 6.50071428 67.25480634 6.4375 74.875 C6.45748047 75.72191406 6.47746094 76.56882812 6.49804688 77.44140625 C6.49137957 86.14890326 3.24071786 93.11219938 -2 100 C-2.41121094 100.54140625 -2.82242188 101.0828125 -3.24609375 101.640625 C-7.09436119 106.07862693 -11.64924209 108.67550744 -16.8125 111.3125 C-17.46379883 111.65007324 -18.11509766 111.98764648 -18.78613281 112.33544922 C-27.55561189 116.6036078 -36.48242636 117.36970171 -46.125 117.3125 C-47.12982422 117.30686035 -48.13464844 117.3012207 -49.16992188 117.29541016 C-65.52296914 117.03156706 -86.35948457 113.43264396 -99 102 C-100.31010014 97.8835676 -99.74727179 95.28830499 -98.34765625 91.26171875 C-97.98349609 90.19501953 -97.61933594 89.12832031 -97.24414062 88.02929688 C-96.85419922 86.92650391 -96.46425781 85.82371094 -96.0625 84.6875 C-95.67642578 83.56537109 -95.29035156 82.44324219 -94.89257812 81.28710938 C-93.93909284 78.52082491 -92.974606 75.7588993 -92 73 C-87.48732081 73 -86.62934229 73.67193754 -83.0625 76.1875 C-77.01571423 80.17563374 -70.86445588 82.74415827 -64 85 C-62.88044922 85.37125 -62.88044922 85.37125 -61.73828125 85.75 C-51.50968058 88.55555904 -39.96541201 88.05862761 -30.13671875 84.265625 C-27.67878933 82.80973993 -26.46043784 81.44351573 -25 79 C-24.83789781 76.39351495 -24.83789781 76.39351495 -26 74 C-29.75105986 71.2635361 -33.13132332 70.37552771 -37.671875 69.60546875 C-39.61658691 69.26056396 -39.61658691 69.26056396 -41.60058594 68.90869141 C-42.61807922 68.73288544 -42.61807922 68.73288544 -43.65612793 68.55352783 C-81.37923921 61.95918578 -81.37923921 61.95918578 -91.9296875 48.546875 C-97.28215612 40.19804836 -99.06243687 31.8654852 -98 22 C-95.73780625 11.99472699 -88.786397 4.42838831 -80.5625 -1.375 C-56.03977829 -16.44625605 -24.92398158 -11.17667335 0 0 Z " fill="#FDFCFE" transform="translate(303,132)"/>
<path d="M0 0 C8.17141359 4.63988511 13.33856549 11.34799481 16.0859375 20.359375 C17.77631307 28.84314675 16.45963331 36.79610238 12.5 44.4375 C7.82288619 51.04309201 1.57846186 57.45706579 -6.5 59.4375 C-16.43973939 60.49113776 -22.27250149 58.922499 -30.5 53.4375 C-30.83 64.6575 -31.16 75.8775 -31.5 87.4375 C-36.45 87.4375 -41.4 87.4375 -46.5 87.4375 C-46.5 58.3975 -46.5 29.3575 -46.5 -0.5625 C-41.55 -0.5625 -36.6 -0.5625 -31.5 -0.5625 C-31.17 0.7575 -30.84 2.0775 -30.5 3.4375 C-30.02949219 3.08816406 -29.55898438 2.73882812 -29.07421875 2.37890625 C-28.45160156 1.92386719 -27.82898438 1.46882813 -27.1875 1 C-26.57261719 0.54753906 -25.95773437 0.09507812 -25.32421875 -0.37109375 C-18.08531642 -5.09885651 -7.37917988 -3.47255524 0 0 Z " fill="#FCFBFE" transform="translate(305.5,302.5625)"/>
<path d="M0 0 C8.4654635 5.16045378 13.15875001 11.02312503 16.28125 20.390625 C17.29755949 30.77241938 16.46227692 38.63966152 10.28125 47.390625 C7.85868102 50.19410105 5.36126521 52.3391863 2.28125 54.390625 C1.63800781 54.82246094 0.99476563 55.25429688 0.33203125 55.69921875 C-7.20533194 59.84835773 -17.24541443 59.70453652 -25.46875 57.73046875 C-34.04926998 54.28932272 -40.67350005 47.61214513 -44.71875 39.390625 C-47.54376502 32.12630067 -47.81791428 24.76895899 -45.28125 17.390625 C-41.33974378 8.63937868 -34.78458255 1.70549028 -25.80859375 -1.83203125 C-17.257202 -3.98339276 -8.04151472 -3.80631697 0 0 Z " fill="#FCFAFE" transform="translate(236.71875,302.609375)"/>
<path d="M0 0 C4.95 0 9.9 0 15 0 C15.33 9.57 15.66 19.14 16 29 C17.65 27.68 19.3 26.36 21 25 C26.09148737 21.73356717 32.18633598 22.54569658 38 23 C43.14998444 24.15446236 46.71568933 26.91680295 50 31 C53.75057452 37.48696093 54.55735631 43.10628202 54.390625 50.50390625 C54.38496521 51.4677977 54.37930542 52.43168915 54.37347412 53.42478943 C54.35127407 56.47122121 54.30110936 59.51643016 54.25 62.5625 C54.22991381 64.64125893 54.21166677 66.72003649 54.1953125 68.79882812 C54.1514631 73.86634892 54.08255081 78.93296791 54 84 C49.05 84 44.1 84 39 84 C38.970271 82.25928223 38.970271 82.25928223 38.93994141 80.48339844 C38.86382088 76.17442266 38.77511334 71.86578172 38.68261719 67.55712891 C38.6443541 65.69293838 38.60949654 63.8286747 38.578125 61.96435547 C38.53241644 59.28326284 38.47443178 56.60267267 38.4140625 53.921875 C38.40251129 53.08944275 38.39096008 52.2570105 38.37905884 51.39935303 C38.32164317 45.88888651 38.32164317 45.88888651 36 41 C32.05444935 38.74539963 28.47676772 38.6002886 24 39 C20.63289698 40.37745124 19.31343793 41.49566415 17.39135742 44.58837891 C15.7094088 48.71253228 15.52548158 52.05687552 15.48828125 56.4609375 C15.47033005 57.25150543 15.45237885 58.04207336 15.43388367 58.8565979 C15.38003294 61.36267891 15.34596719 63.86857227 15.3125 66.375 C15.27930452 68.08205722 15.24481281 69.78908976 15.20898438 71.49609375 C15.12432148 75.66392653 15.05739093 79.8317061 15 84 C10.05 84 5.1 84 0 84 C0 56.28 0 28.56 0 0 Z " fill="#FBF9FE" transform="translate(129,276)"/>
<path d="M0 0 C5.61 0 11.22 0 17 0 C20.63784196 7.06283147 23.81071705 14.18460289 26.75 21.5625 C27.53421388 23.52303469 28.32055299 25.4827211 29.109375 27.44140625 C29.44936523 28.29420166 29.78935547 29.14699707 30.13964844 30.02563477 C30.84034521 31.96226488 30.84034521 31.96226488 32 33 C32.58285767 31.55379272 32.58285767 31.55379272 33.17749023 30.07836914 C34.61551488 26.51222465 36.05687679 22.94743715 37.49926758 19.38305664 C38.12388226 17.83817959 38.74758296 16.29293268 39.37036133 14.74731445 C40.26405448 12.52978945 41.16099224 10.31360161 42.05859375 8.09765625 C42.3377916 7.4028566 42.61698944 6.70805695 42.90464783 5.99220276 C44.88612829 1.11387171 44.88612829 1.11387171 46 0 C48.86267567 -0.07325168 51.700719 -0.09238205 54.5625 -0.0625 C55.36880859 -0.05798828 56.17511719 -0.05347656 57.00585938 -0.04882812 C59.00393756 -0.03700518 61.00197783 -0.01906914 63 0 C60.69569436 7.31156419 57.84848894 14.28620678 54.80859375 21.3203125 C54.30385025 22.496008 53.79910675 23.67170349 53.27906799 24.88302612 C51.93976324 28.00236214 50.59603929 31.11977532 49.25140381 34.23681641 C47.91928382 37.3272149 46.59175188 40.41958254 45.26367188 43.51171875 C42.68303536 49.51649709 40.09543223 55.5182342 37.50360107 61.51818848 C36.50025244 63.8415912 35.49785335 66.16540421 34.49639893 68.48962402 C33.0950354 71.74151427 31.69056962 74.99204587 30.28515625 78.2421875 C29.86455429 79.21946808 29.44395233 80.19674866 29.01060486 81.2036438 C28.62691238 82.0888974 28.24321991 82.974151 27.84790039 83.88623047 C27.51335342 84.66078583 27.17880646 85.43534119 26.8341217 86.23336792 C26 88 26 88 25 89 C22.30345146 89.07319621 19.63308542 89.09242537 16.9375 89.0625 C16.17888672 89.05798828 15.42027344 89.05347656 14.63867188 89.04882812 C12.75908129 89.0370068 10.87953101 89.01907078 9 89 C9.56293112 84.44382937 10.78409639 80.95890836 12.828125 76.859375 C13.37984375 75.70566406 13.9315625 74.55195313 14.5 73.36328125 C15.65822568 70.95618048 16.84462639 68.56979588 18.046875 66.18359375 C21.62713226 58.98569502 21.62713226 58.98569502 21.32421875 51.23828125 C20.59515415 49.4726285 19.81207746 47.72904454 19 46 C18.45677692 44.69989891 17.92004388 43.39707587 17.38818359 42.09228516 C15.5072745 37.51373349 13.537632 32.97601086 11.5625 28.4375 C10.8868745 26.87326071 10.21174089 25.30880887 9.53710938 23.74414062 C6.90784423 17.65549866 4.2696126 11.5739438 1.52734375 5.53515625 C0 2 0 2 0 0 Z " fill="#FAF9FE" transform="translate(379,301)"/>
<path d="M0 0 C0.99 0.66 1.98 1.32 3 2 C2.343621 6.48525648 1.29925791 10.66914029 0 15 C-3.0625364 14.5624948 -5.82460316 14.06608792 -8.7265625 12.97265625 C-12.53818492 11.84008586 -15.77985052 11.7693462 -19.75 11.8125 C-21.06484375 11.81894531 -22.3796875 11.82539063 -23.734375 11.83203125 C-26.88473183 11.77541646 -26.88473183 11.77541646 -29 13 C-28.67 14.32 -28.34 15.64 -28 17 C-26.74445313 17.23074219 -25.48890625 17.46148437 -24.1953125 17.69921875 C-3.07114411 21.74516992 -3.07114411 21.74516992 4.125 28.625 C6.81446484 33.46603672 6.71346799 37.58412935 6 43 C4.22705079 48.76208494 -0.09476878 52.66684814 -5 56 C-10.17487746 58.2982544 -15.1199119 58.38543206 -20.6875 58.375 C-21.5758252 58.37338867 -22.46415039 58.37177734 -23.37939453 58.37011719 C-32.87285955 58.19312332 -40.41595254 55.73927916 -48 50 C-47.38241446 48.0393158 -46.75568655 46.08150937 -46.125 44.125 C-45.77695312 43.03445313 -45.42890625 41.94390625 -45.0703125 40.8203125 C-44 38 -44 38 -42 36 C-41.195625 36.598125 -40.39125 37.19625 -39.5625 37.8125 C-31.52678634 43.06374544 -23.4450789 43.65748876 -14 43 C-11.72864842 42.54211895 -11.72864842 42.54211895 -10 42 C-10.33 40.35 -10.66 38.7 -11 37 C-12.216875 36.731875 -13.43375 36.46375 -14.6875 36.1875 C-15.50476563 36.001875 -16.32203125 35.81625 -17.1640625 35.625 C-19.17406919 35.18202332 -21.19061343 34.76825043 -23.2109375 34.375 C-32.43596584 32.4826865 -39.54759873 30.06955388 -45 22 C-46.74731835 18.50536331 -46.42102923 14.82068319 -46 11 C-43.38068784 3.97548103 -38.56296784 1.26504911 -32 -2 C-22.36629984 -5.21123339 -9.3235915 -3.42178947 0 0 Z " fill="#FBFAFE" transform="translate(373,303)"/>
<path d="M0 0 C1.10009399 0.00483398 1.10009399 0.00483398 2.22241211 0.00976562 C9.23736466 0.18633815 15.3297354 1.88769257 21.875 4.4375 C22.90256439 8.26875002 22.8207076 10.54300362 21.4375 14.25 C21.00630859 15.43529297 21.00630859 15.43529297 20.56640625 16.64453125 C20.33824219 17.23621094 20.11007813 17.82789063 19.875 18.4375 C19.29492188 18.30472656 18.71484375 18.17195313 18.1171875 18.03515625 C15.70574346 17.48999481 13.29111763 16.96152551 10.875 16.4375 C9.92625 16.23125 8.9775 16.025 8 15.8125 C-0.25900705 14.68221117 -0.25900705 14.68221117 -8.125 16.4375 C-7.795 17.7575 -7.465 19.0775 -7.125 20.4375 C-6.52550537 20.56801758 -5.92601074 20.69853516 -5.30834961 20.83300781 C-2.55693548 21.43918413 0.19014742 22.06318466 2.9375 22.6875 C3.88044922 22.89246094 4.82339844 23.09742188 5.79492188 23.30859375 C13.32591043 25.04045871 19.74393242 27.31968865 24.875 33.4375 C26.67417072 38.83501216 26.39663467 43.79023261 24.6875 49.1875 C21.17743647 55.48140703 16.52812856 58.96629735 9.875 61.4375 C6.62533983 62.00133198 3.48014737 62.05653431 0.1875 62 C-0.68447021 61.99339355 -1.55644043 61.98678711 -2.45483398 61.97998047 C-11.30727398 61.72031107 -18.70078055 59.38697963 -26.125 54.4375 C-25.0568153 49.32384986 -23.89392524 44.36522031 -22.125 39.4375 C-20.11807401 40.43648325 -18.11597016 41.44217365 -16.125 42.47265625 C-15.465 42.81167969 -14.805 43.15070313 -14.125 43.5 C-13.465 43.84160156 -12.805 44.18320312 -12.125 44.53515625 C-8.1077288 46.34763603 -4.51889784 46.59753814 -0.125 46.625 C0.90625 46.63917969 1.9375 46.65335937 3 46.66796875 C5.84045203 46.44026947 7.46607948 45.90254061 9.875 44.4375 C9.38 42.4575 9.38 42.4575 8.875 40.4375 C7.75222656 40.19515625 6.62945312 39.9528125 5.47265625 39.703125 C-15.5069295 35.0555705 -15.5069295 35.0555705 -22.125 28.4375 C-24.8966603 23.95004999 -24.78899104 18.54449279 -24.125 13.4375 C-21.01387477 7.21524954 -16.4527236 3.72038993 -10.09399414 1.07250977 C-6.76885181 0.0001359 -3.45510489 -0.04768402 0 0 Z " fill="#FBFAFE" transform="translate(96.125,299.5625)"/>
<path d="M0 0 C5.29780674 1.76593558 9.33122203 5.08431273 12 10 C12.92628205 14.75943296 12.42487484 18.74897963 10.875 23.3125 C8.23986769 27.08952297 5.1675053 29.91624735 1 32 C-4.91386267 32.85885972 -9.37230115 32.08337443 -14.26953125 28.61328125 C-18.30026351 24.85551054 -20.16559886 20.34036857 -20.5 14.875 C-19.77278826 9.23910905 -17.57756572 6.38976028 -13.375 2.6875 C-8.91890885 -0.47867003 -5.3577468 -0.48047476 0 0 Z " fill="#563FE4" transform="translate(294,315)"/>
<path d="M0 0 C3.48658969 3.07151948 7.27480022 6.44200997 7.86328125 11.265625 C8.04345566 16.84154883 7.39658562 19.9293059 3.625 24.3125 C-1.56899739 28.88816437 -4.70715136 29.72792305 -11.54296875 29.65625 C-15.86658099 29.13145293 -18.44144874 27.46335135 -21.375 24.3125 C-24.4741836 20.01363243 -24.9606675 15.96060078 -24.7890625 10.78125 C-23.8982941 5.47025352 -20.93572401 2.43767312 -16.6875 -0.625 C-10.80141095 -2.51299083 -5.59068277 -2.79534138 0 0 Z " fill="#563FE4" transform="translate(230.375,316.6875)"/>
<path d="M0 0 C0.33 0 0.66 0 1 0 C1.02685412 2.31243792 1.04632841 4.6249627 1.0625 6.9375 C1.07410156 8.22527344 1.08570313 9.51304687 1.09765625 10.83984375 C1 14 1 14 0 15 C-0.12185143 16.34983748 -0.17766831 17.70574701 -0.20532227 19.06079102 C-0.22526749 19.92160782 -0.24521271 20.78242462 -0.26576233 21.66932678 C-0.28247482 22.60473801 -0.29918732 23.54014923 -0.31640625 24.50390625 C-0.33718735 25.45692123 -0.35796844 26.40993622 -0.37937927 27.39183044 C-0.44498177 30.4486441 -0.50380918 33.50554656 -0.5625 36.5625 C-0.60567506 38.62956663 -0.64928901 40.69662414 -0.69335938 42.76367188 C-0.80067401 47.84235595 -0.90191091 52.9211297 -1 58 C-1.33 58 -1.66 58 -2 58 C-3.09181272 50.9075846 -3.19187158 43.91842019 -3.1875 36.75 C-3.18741943 35.52104004 -3.18733887 34.29208008 -3.18725586 33.02587891 C-3.02046535 6.04093071 -3.02046535 6.04093071 0 0 Z " fill="#6857D2" transform="translate(24,219)"/>
<path d="M0 0 C0.66 0 1.32 0 2 0 C2 0.66 2 1.32 2 2 C2.66 2 3.32 2 4 2 C7.68302353 8.39596497 8.40958201 14.45325201 8.4375 21.6875 C8.45200195 22.89853394 8.45200195 22.89853394 8.46679688 24.1340332 C8.39229588 29.46907153 7.40480508 33.23504139 5 38 C4.34 38 3.68 38 3 38 C3.32097656 37.04609375 3.64195312 36.0921875 3.97265625 35.109375 C5.27970482 30.50171041 5.42305718 26.01793471 5.4375 21.25 C5.44136719 20.37053711 5.44523437 19.49107422 5.44921875 18.58496094 C5.32446658 11.5390626 3.84943556 5.99412108 0 0 Z " fill="#6553D4" transform="translate(303,186)"/>
<path d="M0 0 C0.66 0.33 1.32 0.66 2 1 C-0.78813434 3.99466281 -3.46931368 5.96004791 -7 8 C-12.8930296 11.70652854 -18.31809382 15.77800067 -23.640625 20.265625 C-26.02512039 22.01846598 -28.21534708 23.03228374 -31 24 C-26.92568996 19.69310139 -22.47438704 16.13371065 -17.75 12.5625 C-16.99726807 11.98991455 -16.24453613 11.4173291 -15.46899414 10.82739258 C-10.43808029 7.02366333 -5.35403052 3.34054895 0 0 Z " fill="#614FD1" transform="translate(132,56)"/>
<path d="M0 0 C0.33 0 0.66 0 1 0 C1.3742382 4.36611234 0.33552636 6.366959 -2 10 C-3.00484883 12.33124929 -4.00522247 14.66443537 -5 17 C-5.66 17.99 -6.32 18.98 -7 20 C-8.87939453 20.34057617 -8.87939453 20.34057617 -11.1328125 20.29296875 C-11.93847656 20.28330078 -12.74414062 20.27363281 -13.57421875 20.26367188 C-14.41597656 20.23853516 -15.25773437 20.21339844 -16.125 20.1875 C-17.39923828 20.16719727 -17.39923828 20.16719727 -18.69921875 20.14648438 C-20.79974837 20.11108219 -22.89995293 20.05727401 -25 20 C-24.505 18.515 -24.505 18.515 -24 17 C-24 17.66 -24 18.32 -24 19 C-18.72 18.67 -13.44 18.34 -8 18 C-5.36 12.06 -2.72 6.12 0 0 Z " fill="#7867DF" transform="translate(412,371)"/>
<path d="M0 0 C0 4.04016453 -1.46869212 4.9566059 -4.1875 7.875 C-5.00476563 8.75671875 -5.82203125 9.6384375 -6.6640625 10.546875 C-9.07166934 13.07526479 -11.49127434 15.57220098 -14 18 C-14.99 17.67 -15.98 17.34 -17 17 C-11.39 11.39 -5.78 5.78 0 0 Z " fill="#5743D4" transform="translate(100,80)"/>
<path d="M0 0 C1.98 0.99 1.98 0.99 4 2 C3.34 2.66 2.68 3.32 2 4 C1.62653332 7.20538403 1.62653332 7.20538403 1.5859375 10.9765625 C1.56657135 11.66181 1.5472052 12.3470575 1.5272522 13.05307007 C1.46743169 15.24358644 1.42106244 17.4341553 1.375 19.625 C1.33682237 21.10939802 1.29777076 22.59377384 1.2578125 24.078125 C1.16172916 27.71854685 1.07770718 31.35913436 1 35 C0.67 35 0.34 35 0 35 C0 23.45 0 11.9 0 0 Z " fill="#5845C6" transform="translate(274,355)"/>
<path d="M0 0 C9.30879863 -0.44682233 16.56884314 -0.44371561 25 4 C23.0625 4.5625 23.0625 4.5625 21 5 C20.67 4.67 20.34 4.34 20 4 C17.67182036 3.63239269 15.3381615 3.29758419 13 3 C13 2.34 13 1.68 13 1 C8.71 1 4.42 1 0 1 C0 0.67 0 0.34 0 0 Z " fill="#6958D4" transform="translate(346,314)"/>
<path d="M0 0 C2.97 0 5.94 0 9 0 C9.66 1.65 10.32 3.3 11 5 C10.01 5.33 9.02 5.66 8 6 C6.31461399 7.99665314 6.31461399 7.99665314 5 10 C5 7.69 5 5.38 5 3 C2.525 2.01 2.525 2.01 0 1 C0 0.67 0 0.34 0 0 Z " fill="#5D4AD5" transform="translate(370,302)"/>
<path d="M0 0 C0.92296875 0.24878906 1.8459375 0.49757813 2.796875 0.75390625 C4.25867188 1.15416016 4.25867188 1.15416016 5.75 1.5625 C7.22726562 1.96662109 7.22726562 1.96662109 8.734375 2.37890625 C9.85585938 2.68634766 9.85585938 2.68634766 11 3 C11 3.66 11 4.32 11 5 C12.32 5.33 13.64 5.66 15 6 C13 7 13 7 9.6640625 6.07421875 C8.31509102 5.61967401 6.96881454 5.15707156 5.625 4.6875 C4.95210938 4.46126953 4.27921875 4.23503906 3.5859375 4.00195312 C0.26985457 2.8693933 -2.92136258 1.68140967 -6 0 C-3.4275576 -1.2862212 -2.72044642 -0.80376826 0 0 Z " fill="#6351D3" transform="translate(286,124)"/>
<path d="M0 0 C5.75 0.875 5.75 0.875 8 2 C8.46192125 6.92715996 6.8275283 10.50732625 5 15 C4.34 15 3.68 15 3 15 C3.52083333 13.046875 4.04166667 11.09375 4.5625 9.140625 C5.13349349 6.71098139 5.13349349 6.71098139 5 3 C2.525 2.01 2.525 2.01 0 1 C0 0.67 0 0.34 0 0 Z " fill="#614ED4" transform="translate(113,302)"/>
<path d="M0 0 C1.27603992 3.82811976 0.46528375 4.74885015 -1.25 8.3125 C-1.71277344 9.28445312 -2.17554688 10.25640625 -2.65234375 11.2578125 C-3.09707031 12.16273438 -3.54179688 13.06765625 -4 14 C-4.33128906 14.67804688 -4.66257812 15.35609375 -5.00390625 16.0546875 C-5.65796785 17.37544956 -6.32674226 18.68891914 -7 20 C-7.66 19.67 -8.32 19.34 -9 19 C-6.03 12.73 -3.06 6.46 0 0 Z " fill="#6250D1" transform="translate(48,146)"/>
<path d="M0 0 C0.99 0.66 1.98 1.32 3 2 C2.65066406 2.60328125 2.30132812 3.2065625 1.94140625 3.828125 C1.48636719 4.62734375 1.03132813 5.4265625 0.5625 6.25 C0.11003906 7.03890625 -0.34242188 7.8278125 -0.80859375 8.640625 C-2.08040518 10.90879102 -2.08040518 10.90879102 -2.47265625 13.234375 C-2.64667969 13.81703125 -2.82070313 14.3996875 -3 15 C-3.99 15.33 -4.98 15.66 -6 16 C-4.25192871 10.53262809 -2.34205919 5.24175152 0 0 Z " fill="#604DD5" transform="translate(434,319)"/>
<path d="M0 0 C-3.85940746 3.85940746 -10.35985738 3.94344336 -15.625 4.125 C-16.40875 4.08375 -17.1925 4.0425 -18 4 C-11.89194023 0.71104474 -6.84893235 -0.23617008 0 0 Z " fill="#6654D1" transform="translate(313,483)"/>
<path d="M0 0 C2.93804996 -0.08086376 5.87388075 -0.1404283 8.8125 -0.1875 C9.64587891 -0.21263672 10.47925781 -0.23777344 11.33789062 -0.26367188 C12.54155273 -0.27817383 12.54155273 -0.27817383 13.76953125 -0.29296875 C14.87711792 -0.31653442 14.87711792 -0.31653442 16.00708008 -0.34057617 C18 0 18 0 21 3 C14.07 2.34 7.14 1.68 0 1 C0 0.67 0 0.34 0 0 Z " fill="#6E5DD8" transform="translate(92,299)"/>
<path d="M0 0 C0 0.99 0 1.98 0 3 C-1.57725347 3.70133599 -3.16211333 4.385583 -4.75 5.0625 C-5.63171875 5.44535156 -6.5134375 5.82820313 -7.421875 6.22265625 C-10 7 -10 7 -14 6 C-9.38 4.02 -4.76 2.04 0 0 Z " fill="#624FD3" transform="translate(168,38)"/>
<path d="M0 0 C0 0.66 0 1.32 0 2 C-3.74235319 4.44989101 -7.44225419 4.23086143 -11.75 4.125 C-12.44738281 4.11597656 -13.14476562 4.10695313 -13.86328125 4.09765625 C-15.57566958 4.07419888 -17.28788004 4.03833104 -19 4 C-19 3.67 -19 3.34 -19 3 C-18.19175781 2.95101563 -17.38351562 2.90203125 -16.55078125 2.8515625 C-15.48214844 2.77679688 -14.41351563 2.70203125 -13.3125 2.625 C-11.72888672 2.52058594 -11.72888672 2.52058594 -10.11328125 2.4140625 C-6.58159728 1.94435296 -3.48594319 0 0 0 Z " fill="#5A48CF" transform="translate(306,359)"/>
<path d="M0 0 C5.52677733 -0.19392201 9.75614911 0.2520497 15 2 C12.41569255 3.71056541 11.31678461 4.05220752 8.203125 3.5390625 C7.22859375 3.23742187 6.2540625 2.93578125 5.25 2.625 C4.26515625 2.32851563 3.2803125 2.03203125 2.265625 1.7265625 C1.51796875 1.48679687 0.7703125 1.24703125 0 1 C0 0.67 0 0.34 0 0 Z " fill="#6453D4" transform="translate(96,321)"/>
<path d="M0 0 C1.23593891 3.70781672 0.5678132 4.67510253 -0.9375 8.1875 C-1.31777344 9.08855469 -1.69804687 9.98960937 -2.08984375 10.91796875 C-2.54037109 11.94857422 -2.54037109 11.94857422 -3 13 C-3.66 13 -4.32 13 -5 13 C-4.54554036 11.58208592 -4.08625056 10.16571954 -3.625 8.75 C-3.24214844 7.56664062 -3.24214844 7.56664062 -2.8515625 6.359375 C-2.04826333 4.13372042 -1.10288338 2.09068328 0 0 Z " fill="#614ED2" transform="translate(427,336)"/>
<path d="M0 0 C0.66 0 1.32 0 2 0 C1.55123384 1.64846769 1.09069512 3.29373455 0.625 4.9375 C0.36976563 5.85402344 0.11453125 6.77054687 -0.1484375 7.71484375 C-1 10 -1 10 -3 11 C-3.33 9.35 -3.66 7.7 -4 6 C-2.68 5.34 -1.36 4.68 0 4 C0 2.68 0 1.36 0 0 Z " fill="#5D4CCC" transform="translate(413,324)"/>
<path d="M0 0 C0 0.99 0 1.98 0 3 C-2.25 4.75 -2.25 4.75 -5 6 C-6.32 5.67 -7.64 5.34 -9 5 C-6.03 3.35 -3.06 1.7 0 0 Z " fill="#6554D5" transform="translate(152,45)"/>
<path d="M0 0 C5.01113235 1.4317521 6.94469549 3.98445693 10 8 C6.05205855 6.32971708 3.18203882 3.8204435 0 1 C0 0.67 0 0.34 0 0 Z " fill="#6552D2" transform="translate(100,431)"/>
</svg>
