<svg width="36" height="36" viewBox="0 0 36 36" fill="none" xmlns="http://www.w3.org/2000/svg">
<path d="M17.5508 6.28547L8.63019 11.448L18 16.8642L27.3698 11.448L18.4491 6.28547C18.2994 6.19214 18.1497 6.14547 18 6.14547C17.8503 6.14547 17.7005 6.19214 17.5508 6.28547ZM6.33331 22.9644V12.4353C6.33331 12.0133 6.43637 11.623 6.64248 11.2642C6.84859 10.9055 7.13831 10.6162 7.51165 10.3965L16.8216 5.0313C17.0278 4.90978 17.2222 4.82714 17.405 4.78339C17.5878 4.73964 17.7861 4.7163 18 4.71339C18.2139 4.71047 18.418 4.73283 18.6125 4.78047C18.8069 4.82811 18.996 4.91123 19.1798 5.02985L28.4898 10.3965C28.8631 10.6153 29.1528 10.904 29.3589 11.2628C29.565 11.6215 29.6676 12.0123 29.6666 12.4353V16.7461C29.6666 16.9532 29.5966 17.1262 29.4566 17.2653C29.3166 17.4053 29.1431 17.4753 28.936 17.4753C28.7299 17.4753 28.5569 17.4053 28.4169 17.2653C28.2769 17.1253 28.2073 16.9522 28.2083 16.7461V12.6292L19.1419 17.8646C18.7675 18.0766 18.3733 18.1826 17.9591 18.1826C17.545 18.1826 17.1537 18.0766 16.7852 17.8646L7.79165 12.6292V22.9542C7.79165 23.1049 7.82908 23.2459 7.90394 23.3771C7.9788 23.5084 8.0906 23.6202 8.23935 23.7126L17.0739 28.8561C17.1838 28.9173 17.2723 29.0024 17.3394 29.1113C17.4064 29.2202 17.4395 29.3417 17.4385 29.4759C17.4385 29.7559 17.3219 29.961 17.0885 30.0913C16.8552 30.2216 16.617 30.2182 16.3739 30.0811L7.51165 25.0032C7.13831 24.7835 6.84859 24.4942 6.64248 24.1355C6.43637 23.7767 6.33331 23.3864 6.33331 22.9644ZM26.75 33.3769C25.1254 33.3769 23.7468 32.8111 22.6141 31.6794C21.4815 30.5478 20.9157 29.1692 20.9166 27.5436C20.9176 25.918 21.4834 24.5394 22.6141 23.4078C23.7448 22.2761 25.1235 21.7103 26.75 21.7103C28.3765 21.7103 29.7551 22.2761 30.8858 23.4078C32.0165 24.5394 32.5823 25.918 32.5833 27.5436C32.5843 29.1692 32.0185 30.5478 30.8858 31.6794C29.7532 32.8111 28.3746 33.3769 26.75 33.3769ZM27.3114 27.4036V23.9823C27.3114 23.8326 27.255 23.7014 27.1423 23.5886C27.0295 23.4758 26.8987 23.4199 26.75 23.4209C26.6012 23.4219 26.47 23.4778 26.3562 23.5886C26.2425 23.6994 26.1866 23.8307 26.1885 23.9823V27.3832C26.1885 27.5329 26.2157 27.6773 26.2702 27.8163C26.3246 27.9553 26.4155 28.089 26.5429 28.2173L28.7581 30.4326C28.866 30.5405 28.9939 30.5988 29.1416 30.6075C29.2894 30.6163 29.427 30.558 29.5544 30.4326C29.6817 30.3071 29.7449 30.1744 29.7439 30.0344C29.743 29.8944 29.6798 29.7617 29.5544 29.6363L27.3114 27.4036Z" fill="#39AC73"/>
<path d="M27.3114 27.4036V23.9823C27.3114 23.8326 27.255 23.7014 27.1423 23.5886C27.0295 23.4758 26.8987 23.4199 26.75 23.4209C26.6012 23.4219 26.47 23.4778 26.3562 23.5886C26.2425 23.6994 26.1866 23.8307 26.1885 23.9823V27.3832C26.1885 27.5329 26.2157 27.6773 26.2702 27.8163C26.3246 27.9553 26.4155 28.089 26.5429 28.2173L28.7581 30.4326C28.866 30.5405 28.9939 30.5988 29.1416 30.6075C29.2894 30.6163 29.427 30.558 29.5544 30.4326C29.6817 30.3071 29.7449 30.1744 29.7439 30.0344C29.743 29.8944 29.6798 29.7617 29.5544 29.6363L27.3114 27.4036Z" fill="white"/>
<path d="M7.41178 10.2232L7.41178 10.2232L16.7201 4.85902C16.7204 4.85885 16.7206 4.85868 16.7209 4.85851C16.9394 4.72977 17.1521 4.63826 17.3584 4.58888C17.5574 4.54126 17.7706 4.5165 17.9973 4.51341C18.2269 4.51027 18.4481 4.53428 18.6601 4.58622C18.8765 4.63923 19.0845 4.73092 19.2839 4.85903L28.5897 10.2232L28.5909 10.2239C28.9928 10.4595 29.3081 10.7728 29.5324 11.1631C29.7563 11.5529 29.8676 11.9782 29.8666 12.4353C29.8666 12.4354 29.8666 12.4356 29.8666 12.4357M7.41178 10.2232L29.4566 17.2653C29.5966 17.1262 29.6666 16.9532 29.6666 16.7461V12.4353L29.8666 12.4357M7.41178 10.2232L7.4102 10.2241C7.00844 10.4606 6.69328 10.7743 6.46906 11.1646C6.24518 11.5543 6.13331 11.9791 6.13331 12.4353V22.9644C6.13331 23.4206 6.24518 23.8454 6.46906 24.2351C6.69328 24.6254 7.00844 24.9391 7.4102 25.1756L7.41222 25.1767L16.2745 30.2546L16.2757 30.2553C16.5762 30.4248 16.8886 30.432 17.186 30.2659C17.3303 30.1854 17.4462 30.077 17.5249 29.9386C17.6032 29.801 17.6384 29.6446 17.6385 29.4767C17.6396 29.3072 17.5973 29.1487 17.5096 29.0064C17.4253 28.8695 17.3125 28.7605 17.173 28.6824M7.41178 10.2232L17.4385 29.4759C17.4395 29.3417 17.4064 29.2202 17.3394 29.1113C17.2723 29.0024 17.1838 28.9173 17.0739 28.8561M29.8666 12.4357L29.8666 16.7461C29.8666 17.0034 29.7775 17.2284 29.5978 17.4069M29.8666 12.4357L29.5978 17.4069M29.5978 17.4069C29.4185 17.5861 29.1933 17.6753 28.936 17.6753C28.6793 17.6753 28.4546 17.5859 28.2754 17.4067C28.0962 17.2275 28.0073 17.0027 28.0083 16.746M29.5978 17.4069L28.2083 12.8602L28.0083 12.9757M28.0083 16.746C28.0083 16.7457 28.0083 16.7454 28.0083 16.7452L28.2083 16.7461H28.0083V16.746ZM28.0083 16.746V12.9757M28.0083 12.9757V12.7447L19.1419 17.8646C18.7675 18.0766 18.3733 18.1826 17.9591 18.1826C17.545 18.1826 17.1537 18.0766 16.7852 17.8646L7.99165 12.7456V12.9771M28.0083 12.9757L19.2419 18.0378L19.2404 18.0387C18.8372 18.267 18.4092 18.3826 17.9591 18.3826C17.509 18.3826 17.0834 18.2669 16.6855 18.038L16.6846 18.0375L7.99165 12.9771M7.99165 12.9771L7.79165 12.8606V22.9542C7.79165 23.1049 7.82908 23.2459 7.90394 23.3771C7.9788 23.5084 8.0906 23.6202 8.23935 23.7126M7.99165 12.9771V22.9542C7.99165 23.0701 8.01997 23.1769 8.07767 23.278C8.13324 23.3755 8.2188 23.4639 8.34255 23.5412M8.34255 23.5412L8.33998 23.5397L8.23935 23.7126M8.34255 23.5412C8.34332 23.5417 8.34409 23.5422 8.34486 23.5426L8.23935 23.7126M8.34255 23.5412L17.173 28.6824M8.23935 23.7126L17.0739 28.8561M17.0739 28.8561L17.1713 28.6814C17.1719 28.6817 17.1725 28.682 17.173 28.6824M17.0739 28.8561L17.1746 28.6833L17.173 28.6824M17.651 6.45857L17.651 6.45867L17.6566 6.45519C17.7803 6.37807 17.8939 6.34547 18 6.34547C18.1061 6.34547 18.2196 6.37807 18.3433 6.45519L18.3433 6.45528L18.349 6.45857L26.9703 11.4479L18 16.6332L9.02965 11.4479L17.651 6.45857ZM19.1798 5.02985L28.4898 10.3965L19.1798 5.02985ZM22.4728 31.8209C23.6435 32.9907 25.0733 33.5769 26.75 33.5769C28.4267 33.5769 29.8564 32.9907 31.0272 31.8209C32.198 30.6511 32.7843 29.2212 32.7833 27.5435C32.7823 25.8659 32.1961 24.4362 31.0273 23.2664C29.8584 22.0965 28.4286 21.5103 26.75 21.5103C25.0714 21.5103 23.6416 22.0965 22.4727 23.2664C21.3039 24.4362 20.7176 25.8659 20.7166 27.5435C20.7156 29.2212 21.3019 30.6511 22.4728 31.8209Z" stroke="#39AC73" stroke-width="0.4"/>
</svg>
