<svg width="32" height="33" viewBox="0 0 32 33" fill="none" xmlns="http://www.w3.org/2000/svg">
<path fill-rule="evenodd" clip-rule="evenodd" d="M15.9307 1.86658H16.0694C17.268 1.86658 18.2667 1.86658 19.0587 1.97324C19.896 2.08524 20.652 2.33324 21.2587 2.93991C21.8667 3.54791 22.1147 4.30391 22.2267 5.13991C22.3067 5.72658 22.3267 6.42524 22.332 7.23324C23.196 7.26124 23.9667 7.31324 24.652 7.40391C26.2147 7.61458 27.48 8.05724 28.4787 9.05458C29.476 10.0532 29.9187 11.3186 30.1294 12.8812C30.3334 14.4012 30.3334 16.3412 30.3334 18.7919V18.9412C30.3334 21.3919 30.3334 23.3332 30.1294 24.8519C29.9187 26.4146 29.476 27.6799 28.4787 28.6786C27.48 29.6759 26.2147 30.1186 24.652 30.3292C23.132 30.5332 21.192 30.5332 18.7414 30.5332H13.2587C10.808 30.5332 8.86669 30.5332 7.34802 30.3292C5.78535 30.1186 4.52002 29.6759 3.52135 28.6786C2.52402 27.6799 2.08135 26.4146 1.87069 24.8519C1.66669 23.3319 1.66669 21.3919 1.66669 18.9412V18.7919C1.66669 16.3412 1.66669 14.3999 1.87069 12.8812C2.08135 11.3186 2.52402 10.0532 3.52135 9.05458C4.52002 8.05724 5.78535 7.61458 7.34802 7.40391C8.11804 7.30857 8.89233 7.25161 9.66802 7.23324C9.67335 6.42524 9.69469 5.72658 9.77335 5.13991C9.88535 4.30391 10.1334 3.54791 10.74 2.93991C11.348 2.33324 12.104 2.08658 12.94 1.97324C13.7334 1.86658 14.7334 1.86658 15.9307 1.86658ZM11.6694 7.20258C12.1734 7.19991 12.7027 7.19991 13.2587 7.19991H18.7414C19.2974 7.19991 19.8267 7.19991 20.3307 7.20258C20.3254 6.44258 20.3067 5.86924 20.2454 5.40658C20.1614 4.79191 20.0187 4.52791 19.8454 4.35458C19.672 4.18124 19.408 4.03858 18.792 3.95458C18.1494 3.86924 17.2854 3.86658 16 3.86658C14.7147 3.86658 13.8507 3.86924 13.2067 3.95591C12.592 4.03858 12.328 4.18124 12.1547 4.35591C11.9814 4.52924 11.8387 4.79191 11.7547 5.40658C11.6934 5.86791 11.6747 6.44124 11.6694 7.20258ZM7.61335 9.38658C6.27202 9.56658 5.49869 9.90524 4.93335 10.4692C4.37069 11.0332 4.03202 11.8066 3.85202 13.1479C3.66802 14.5172 3.66535 16.3239 3.66535 18.8666C3.66535 21.4092 3.66802 23.2159 3.85202 24.5866C4.03202 25.9266 4.37069 26.6999 4.93469 27.2639C5.49869 27.8279 6.27202 28.1666 7.61335 28.3466C8.98402 28.5306 10.7894 28.5332 13.332 28.5332H18.6654C21.208 28.5332 23.0147 28.5306 24.3854 28.3466C25.7254 28.1666 26.4987 27.8279 27.0627 27.2639C27.6267 26.6999 27.9654 25.9266 28.1454 24.5852C28.3294 23.2159 28.332 21.4092 28.332 18.8666C28.332 16.3239 28.3294 14.5186 28.1454 13.1466C27.9654 11.8066 27.6267 11.0332 27.0627 10.4692C26.4987 9.90524 25.7254 9.56658 24.384 9.38658C23.0147 9.20258 21.208 9.19991 18.6654 9.19991H13.332C10.7894 9.19991 8.98535 9.20258 7.61335 9.38658Z" fill="#121212" fill-opacity="0.7"/>
<path d="M15 20.5333H14.5133L17.9133 24.0733C18.32 24.5 18.02 25.2 17.4333 25.2C17.2533 25.2 17.08 25.1266 16.9533 24.9933L12.9333 20.8066C12.76 20.6333 12.6667 20.3933 12.6667 20.1533C12.6667 19.6266 13.0933 19.2 13.62 19.2H15C16.1733 19.2 17.1467 18.3333 17.3067 17.2H12.6667C12.3 17.2 12 16.9 12 16.5333C12 16.1666 12.3 15.8666 12.6667 15.8666H17.1067C16.7333 15.08 15.9333 14.5333 15 14.5333H12.6667C12.3 14.5333 12 14.2333 12 13.8666C12 13.5 12.3 13.2 12.6667 13.2H19.3333C19.7 13.2 20 13.5 20 13.8666C20 14.2333 19.7 14.5333 19.3333 14.5333H17.8267C18.1467 14.92 18.3867 15.3733 18.5267 15.8666H19.3333C19.7 15.8666 20 16.1666 20 16.5333C20 16.9 19.7 17.2 19.3333 17.2H18.6533C18.48 19.0666 16.9067 20.5333 15 20.5333Z" fill="#121212" fill-opacity="0.7"/>
<path d="M17.1885 17.3C16.9885 18.3281 16.0833 19.1 15 19.1H13.62C13.0381 19.1 12.5667 19.5714 12.5667 20.1533C12.5667 20.4181 12.6693 20.6836 12.8619 20.8766L16.8808 25.0622C16.8809 25.0622 16.881 25.0623 16.881 25.0623C17.0266 25.2155 17.2261 25.3 17.4333 25.3C18.1083 25.3 18.4528 24.4943 17.9857 24.0043L17.9855 24.004L14.748 20.6333H15C16.928 20.6333 18.5236 19.1739 18.7434 17.3H19.3333C19.7552 17.3 20.1 16.9552 20.1 16.5333C20.1 16.1114 19.7552 15.7666 19.3333 15.7666H18.6014C18.4758 15.3556 18.2822 14.9728 18.0317 14.6333H19.3333C19.7552 14.6333 20.1 14.2885 20.1 13.8666C20.1 13.4447 19.7552 13.1 19.3333 13.1H12.6667C12.2448 13.1 11.9 13.4447 11.9 13.8666C11.9 14.2885 12.2448 14.6333 12.6667 14.6333H15C15.8355 14.6333 16.5595 15.0909 16.9421 15.7666H12.6667C12.2448 15.7666 11.9 16.1114 11.9 16.5333C11.9 16.9552 12.2448 17.3 12.6667 17.3H17.1885Z" stroke="#121212" stroke-opacity="0.7" stroke-width="0.2"/>
</svg>
