<svg width="26" height="27" viewBox="0 0 26 27" fill="none" xmlns="http://www.w3.org/2000/svg">
<path d="M22.4732 22.1738C11.7419 27.281 5.08191 23.008 0.818652 20.4126C0.554843 20.2491 0.10646 20.4509 0.495494 20.8977C1.9158 22.6199 6.57044 26.7708 12.6461 26.7708C18.7259 26.7708 22.3429 23.4533 22.7953 22.8746C23.2447 22.3008 22.9273 21.9843 22.4731 22.1738H22.4732ZM25.4871 20.5094C25.1989 20.1341 23.7347 20.0642 22.8133 20.1774C21.8904 20.2873 20.5052 20.8513 20.6256 21.19C20.6874 21.3168 20.8136 21.2599 21.4475 21.2029C22.0832 21.1395 23.8641 20.9148 24.2352 21.3999C24.608 21.8883 23.6672 24.2152 23.4954 24.5904C23.3294 24.9657 23.5588 25.0625 23.8707 24.8125C24.1782 24.5627 24.735 23.9157 25.1086 23C25.4797 22.0794 25.7061 20.7951 25.4871 20.5094Z" fill="#FF9900"/>
<path fill-rule="evenodd" clip-rule="evenodd" d="M15.2576 11.7527C15.2576 13.0927 15.2914 14.2103 14.6141 15.4003C14.0674 16.368 13.2014 16.963 12.2339 16.963C10.9131 16.963 10.1439 15.9567 10.1439 14.4715C10.1439 11.5398 12.7708 11.0077 15.2576 11.0077V11.7527ZM18.7262 20.1366C18.4988 20.3398 18.1699 20.3544 17.9135 20.2188C16.7718 19.2707 16.5685 18.8304 15.9397 17.9257C14.0529 19.8512 12.7177 20.4269 10.2698 20.4269C7.37674 20.4269 5.12228 18.6417 5.12228 15.0666C5.12228 12.2752 6.63661 10.3739 8.7893 9.44509C10.6568 8.62257 13.2644 8.47745 15.2576 8.25015V7.80503C15.2576 6.9874 15.3204 6.01986 14.8415 5.31359C14.4205 4.67981 13.6175 4.41855 12.9111 4.41855C11.6001 4.41855 10.4294 5.09097 10.1439 6.48426C10.0858 6.79395 9.8585 7.09876 9.54891 7.11324L6.21076 6.75531C5.93023 6.69229 5.62063 6.46498 5.69803 6.03434C6.46723 1.99002 10.1197 0.770813 13.39 0.770813C15.0639 0.770813 17.2506 1.21593 18.5713 2.48348C20.2452 4.04604 20.0856 6.13112 20.0856 8.40006V13.7604C20.0856 15.3714 20.7532 16.0776 21.3821 16.9485C21.6046 17.2581 21.653 17.6307 21.3724 17.8628C20.6709 18.4481 19.4227 19.5367 18.7358 20.1463L18.7261 20.1366" fill="black"/>
<path d="M22.4732 22.1738C11.7419 27.281 5.08191 23.008 0.818652 20.4126C0.554843 20.2491 0.10646 20.4509 0.495494 20.8977C1.9158 22.6199 6.57044 26.7708 12.6461 26.7708C18.7259 26.7708 22.3429 23.4533 22.7953 22.8746C23.2447 22.3008 22.9273 21.9843 22.4731 22.1738H22.4732ZM25.4871 20.5094C25.1989 20.1341 23.7347 20.0642 22.8133 20.1774C21.8904 20.2873 20.5052 20.8513 20.6256 21.19C20.6874 21.3168 20.8136 21.2599 21.4475 21.2029C22.0832 21.1395 23.8641 20.9148 24.2352 21.3999C24.608 21.8883 23.6672 24.2152 23.4954 24.5904C23.3294 24.9657 23.5588 25.0625 23.8707 24.8125C24.1782 24.5627 24.735 23.9157 25.1086 23C25.4797 22.0794 25.7061 20.7951 25.4871 20.5094Z" fill="#FF9900"/>
<path fill-rule="evenodd" clip-rule="evenodd" d="M15.2576 11.7527C15.2576 13.0927 15.2914 14.2103 14.6141 15.4003C14.0674 16.368 13.2014 16.963 12.2339 16.963C10.9131 16.963 10.1439 15.9567 10.1439 14.4715C10.1439 11.5398 12.7708 11.0077 15.2576 11.0077V11.7527ZM18.7262 20.1366C18.4988 20.3398 18.1699 20.3544 17.9135 20.2188C16.7718 19.2707 16.5685 18.8304 15.9397 17.9257C14.0529 19.8512 12.7177 20.4269 10.2698 20.4269C7.37674 20.4269 5.12228 18.6417 5.12228 15.0666C5.12228 12.2752 6.63661 10.3739 8.7893 9.44509C10.6568 8.62257 13.2644 8.47745 15.2576 8.25015V7.80503C15.2576 6.9874 15.3204 6.01986 14.8415 5.31359C14.4205 4.67981 13.6175 4.41855 12.9111 4.41855C11.6001 4.41855 10.4294 5.09097 10.1439 6.48426C10.0858 6.79395 9.8585 7.09876 9.54891 7.11324L6.21076 6.75531C5.93023 6.69229 5.62063 6.46498 5.69803 6.03434C6.46723 1.99002 10.1197 0.770813 13.39 0.770813C15.0639 0.770813 17.2506 1.21593 18.5713 2.48348C20.2452 4.04604 20.0856 6.13112 20.0856 8.40006V13.7604C20.0856 15.3714 20.7532 16.0776 21.3821 16.9485C21.6046 17.2581 21.653 17.6307 21.3724 17.8628C20.6709 18.4481 19.4227 19.5367 18.7358 20.1463L18.7261 20.1366" fill="black"/>
</svg>
