<svg width="17" height="16" viewBox="0 0 17 16" fill="none" xmlns="http://www.w3.org/2000/svg">
<path d="M1.44531 8.59202H12.6153L7.73531 13.472C7.34531 13.862 7.34531 14.502 7.73531 14.892C8.12531 15.282 8.75531 15.282 9.14531 14.892L15.7353 8.30202C15.828 8.20951 15.9016 8.09962 15.9517 7.97864C16.0019 7.85767 16.0278 7.72799 16.0278 7.59702C16.0278 7.46605 16.0019 7.33637 15.9517 7.2154C15.9016 7.09442 15.828 6.98453 15.7353 6.89202L9.15531 0.29202C9.06273 0.199438 8.95282 0.125998 8.83186 0.0758934C8.71089 0.0257884 8.58124 1.95102e-09 8.45031 0C8.31938 -1.95102e-09 8.18973 0.0257884 8.06877 0.0758934C7.94781 0.125998 7.83789 0.199438 7.74531 0.29202C7.65273 0.384602 7.57929 0.494513 7.52919 0.615477C7.47908 0.736441 7.45329 0.86609 7.45329 0.997021C7.45329 1.12795 7.47908 1.2576 7.52919 1.37856C7.57929 1.49953 7.65273 1.60944 7.74531 1.70202L12.6153 6.59202H1.44531C0.895312 6.59202 0.445312 7.04202 0.445312 7.59202C0.445312 8.14202 0.895312 8.59202 1.44531 8.59202Z" fill="#1F3F7F"/>
</svg>
