<svg width="32" height="33" viewBox="0 0 32 33" fill="none" xmlns="http://www.w3.org/2000/svg">
<g clip-path="url(#clip0_123_1685)">
<path d="M16.4548 6.45446C9.77296 6.45446 8.81841 12.1817 8.81841 16.9545C8.81841 21.7272 5.95477 24.5908 5.95477 24.5908H12.6366H20.273H26.9548C26.9548 24.5908 24.0911 21.7272 24.0911 16.9545C24.0911 12.1817 23.1366 6.45446 16.4548 6.45446Z" fill="#39AC73"/>
<path d="M16.4548 6.45446C9.77296 6.45446 8.81841 12.1817 8.81841 16.9545C8.81841 21.7272 5.95477 24.5908 5.95477 24.5908M16.4548 6.45446C23.1366 6.45446 24.0911 12.1817 24.0911 16.9545C24.0911 21.7272 26.9548 24.5908 26.9548 24.5908M16.4548 6.45446V3.59082M26.9548 24.5908H5.95477M26.9548 24.5908H20.273M5.95477 24.5908H12.6366M20.273 24.5908C20.273 24.5908 20.273 28.409 16.4548 28.409C12.6366 28.409 12.6366 24.5908 12.6366 24.5908M20.273 24.5908H12.6366" stroke="#39AC73" stroke-width="2.5482" stroke-linecap="round" stroke-linejoin="round"/>
</g>
<defs>
<clipPath id="clip0_123_1685">
<rect width="22.9091" height="28" fill="white" transform="translate(5 2)"/>
</clipPath>
</defs>
</svg>
