<svg width="32" height="33" viewBox="0 0 32 33" fill="none" xmlns="http://www.w3.org/2000/svg">
<path d="M22.7437 20.8947C23.3674 20.4687 24.099 20.2281 24.8538 20.2006C25.6086 20.1731 26.3557 20.3598 27.0088 20.7392C27.6619 21.1186 28.1942 21.6752 28.5441 22.3445C28.8941 23.0138 29.0474 23.7685 28.9864 24.5213C27.3866 25.0805 25.6874 25.298 23.9984 25.16C23.9932 23.6488 23.558 22.169 22.7437 20.896C22.0209 19.7624 21.0238 18.8294 19.8448 18.1834C18.6657 17.5373 17.3428 17.1991 15.9984 17.2C14.6541 17.1993 13.3315 17.5376 12.1527 18.1837C10.9739 18.8297 9.97702 19.7626 9.25435 20.896M23.997 25.1587L23.9984 25.2C23.9984 25.5 23.9824 25.796 23.949 26.088C21.5295 27.4762 18.7878 28.2045 15.9984 28.2C13.105 28.2 10.389 27.432 8.04769 26.088C8.01341 25.7794 7.99693 25.4691 7.99835 25.1587M7.99835 25.1587C6.30986 25.3017 4.61156 25.0849 3.01302 24.5227C2.95215 23.7701 3.10555 23.0156 3.45546 22.3465C3.80537 21.6775 4.33751 21.1211 4.99036 20.7417C5.6432 20.3624 6.39008 20.1756 7.14464 20.2029C7.89921 20.2302 8.63063 20.4705 9.25435 20.896M7.99835 25.1587C8.00314 23.6476 8.44052 22.1692 9.25435 20.896M19.9984 9.20001C19.9984 10.2609 19.5769 11.2783 18.8268 12.0284C18.0766 12.7786 17.0592 13.2 15.9984 13.2C14.9375 13.2 13.9201 12.7786 13.1699 12.0284C12.4198 11.2783 11.9984 10.2609 11.9984 9.20001C11.9984 8.13915 12.4198 7.12173 13.1699 6.37159C13.9201 5.62144 14.9375 5.20001 15.9984 5.20001C17.0592 5.20001 18.0766 5.62144 18.8268 6.37159C19.5769 7.12173 19.9984 8.13915 19.9984 9.20001ZM27.9984 13.2C27.9984 13.594 27.9208 13.9841 27.77 14.3481C27.6192 14.712 27.3982 15.0428 27.1197 15.3213C26.8411 15.5999 26.5104 15.8209 26.1464 15.9717C25.7824 16.1224 25.3923 16.2 24.9984 16.2C24.6044 16.2 24.2143 16.1224 23.8503 15.9717C23.4863 15.8209 23.1556 15.5999 22.877 15.3213C22.5985 15.0428 22.3775 14.712 22.2267 14.3481C22.0759 13.9841 21.9984 13.594 21.9984 13.2C21.9984 12.4044 22.3144 11.6413 22.877 11.0787C23.4396 10.5161 24.2027 10.2 24.9984 10.2C25.794 10.2 26.5571 10.5161 27.1197 11.0787C27.6823 11.6413 27.9984 12.4044 27.9984 13.2ZM9.99835 13.2C9.99835 13.594 9.92076 13.9841 9.76999 14.3481C9.61923 14.712 9.39825 15.0428 9.11967 15.3213C8.8411 15.5999 8.51038 15.8209 8.1464 15.9717C7.78243 16.1224 7.39232 16.2 6.99835 16.2C6.60439 16.2 6.21428 16.1224 5.8503 15.9717C5.48633 15.8209 5.15561 15.5999 4.87703 15.3213C4.59846 15.0428 4.37748 14.712 4.22671 14.3481C4.07595 13.9841 3.99835 13.594 3.99835 13.2C3.99835 12.4044 4.31442 11.6413 4.87703 11.0787C5.43964 10.5161 6.2027 10.2 6.99835 10.2C7.794 10.2 8.55706 10.5161 9.11967 11.0787C9.68228 11.6413 9.99835 12.4044 9.99835 13.2Z" stroke="#595959" stroke-width="2" stroke-linecap="round" stroke-linejoin="round"/>
</svg>
