<svg width="169" height="28" viewBox="0 0 169 28" fill="none" xmlns="http://www.w3.org/2000/svg">
<rect x="0.550562" y="1.35519" width="36.3371" height="25.3258" rx="3.85393" fill="white"/>
<rect x="0.550562" y="1.35519" width="36.3371" height="25.3258" rx="3.85393" stroke="#E4E7EC" stroke-width="1.10112"/>
<path d="M21.205 13.6941C21.205 17.7721 17.9371 21.078 13.9059 21.078C9.87468 21.078 6.60675 17.7721 6.60675 13.6941C6.60675 9.61611 9.87468 6.31024 13.9059 6.31024C17.9371 6.31024 21.205 9.61611 21.205 13.6941Z" fill="#ED0006"/>
<path d="M30.6743 13.6941C30.6743 17.7721 27.4064 21.078 23.3752 21.078C19.344 21.078 16.076 17.7721 16.076 13.6941C16.076 9.61611 19.344 6.31024 23.3752 6.31024C27.4064 6.31024 30.6743 9.61611 30.6743 13.6941Z" fill="#0099DF"/>
<path fill-rule="evenodd" clip-rule="evenodd" d="M18.6406 19.314C20.21 17.9597 21.2051 15.9444 21.2051 13.6941C21.2051 11.4437 20.21 9.42849 18.6406 8.07416C17.0712 9.42849 16.076 11.4437 16.076 13.6941C16.076 15.9444 17.0712 17.9597 18.6406 19.314Z" fill="#6C6BBD"/>
<rect x="50.9888" y="1.35519" width="36.3371" height="25.3258" rx="3.85393" fill="white"/>
<rect x="50.9888" y="1.35519" width="36.3371" height="25.3258" rx="3.85393" stroke="#E4E7EC" stroke-width="1.10112"/>
<path fill-rule="evenodd" clip-rule="evenodd" d="M64.2499 18.5917C64.4196 18.5035 64.708 18.3878 65.0136 18.3878C65.7151 18.3878 66.0942 18.8615 66.0942 19.7428C66.0942 20.7724 65.5852 21.2736 64.7648 21.2736C64.4648 21.2736 64.0009 21.18 63.6614 21.0036V17.1598L64.2499 17.0221V18.5917ZM64.2442 20.7999C64.4251 20.877 64.6233 20.888 64.7648 20.888C65.1834 20.888 65.5002 20.6347 65.5002 19.7428C65.5002 19.0432 65.24 18.8174 64.8609 18.8174C64.6345 18.8174 64.4706 18.878 64.2442 18.9992V20.7999ZM58.2183 18.4593H58.2579L59.0272 21.2075H59.6382L60.5548 17.3028H59.8928L59.3158 20.2162H59.2763L58.4897 17.3028H57.9862L57.2508 20.2162H57.2111L56.5774 17.3028H55.9438L56.8604 21.2075H57.4713L58.2183 18.4593ZM63.062 21.0201V20.6016C62.7508 20.7833 62.4681 20.8879 62.1626 20.8879C61.5798 20.8879 61.3026 20.5959 61.3026 19.9352H63.1469V19.7315C63.1469 18.834 62.7112 18.3878 62.0042 18.3878C61.1555 18.3878 60.7199 18.9936 60.7199 19.8306C60.7199 20.7008 61.1102 21.2736 62.0606 21.2736C62.4681 21.2736 62.8075 21.1635 63.062 21.0201ZM62.6092 19.5663H61.3139C61.3759 19.0157 61.6417 18.7568 61.987 18.7568C62.2925 18.7568 62.5812 18.9879 62.6092 19.5663ZM68.6969 20.3814H68.6685L67.4012 17.3028H66.7166V21.2075H67.2259V18.443H67.2767L68.431 21.2075H68.7929L69.9472 18.3768H69.9982V21.2075H70.6092V17.3028H69.9075L68.6969 20.3814ZM71.2316 19.8306C71.2316 18.8668 71.7748 18.3878 72.5215 18.3878C73.2684 18.3878 73.8116 18.8668 73.8116 19.8306C73.8116 20.7724 73.2967 21.2736 72.5215 21.2736C71.7463 21.2736 71.2316 20.7724 71.2316 19.8306ZM73.2173 19.8305C73.2173 19.0872 72.906 18.7734 72.5213 18.7734C72.1479 18.7734 71.8254 19.0872 71.8254 19.8305C71.8254 20.5853 72.1198 20.8879 72.5213 20.8879C72.923 20.8879 73.2173 20.5853 73.2173 19.8305ZM75.7912 18.3878C75.1409 18.3878 74.6032 18.6466 74.3487 18.7953V21.2075H74.9372V19.0267C75.1125 18.9277 75.4011 18.8283 75.6275 18.8283C75.916 18.8283 76.1364 18.9055 76.1364 19.3406V21.2075H76.7248V19.2138C76.7248 18.6466 76.4704 18.3878 75.7912 18.3878ZM79.593 20.6016V21.0201C79.3386 21.1635 78.9993 21.2736 78.5917 21.2736C77.6414 21.2736 77.251 20.7008 77.251 19.8306C77.251 18.9936 77.6867 18.3878 78.5353 18.3878C79.2426 18.3878 79.6784 18.834 79.6784 19.7315V19.9352H77.8339C77.8339 20.5959 78.1111 20.8879 78.6938 20.8879C78.9993 20.8879 79.2821 20.7833 79.593 20.6016ZM77.8451 19.5663H79.1406C79.1125 18.9879 78.8237 18.7568 78.5182 18.7568C78.173 18.7568 77.9074 19.0157 77.8451 19.5663ZM82.4846 18.4814H81.8792L81.234 20.5079H81.2003L80.4762 18.4814H79.8538L80.9401 21.235C80.8041 21.6424 80.5667 21.9401 80.182 21.9401V22.3914C80.8323 22.3914 81.1775 21.9951 81.4605 21.235L82.4846 18.4814Z" fill="#0068A3"/>
<path fill-rule="evenodd" clip-rule="evenodd" d="M68.8348 5.7597C69.6134 5.7597 70.3507 5.93619 71.0074 6.24952C71.1106 6.29715 71.2135 6.34955 71.3166 6.40741L70.8601 6.80509L70.1743 6.11482L69.0168 7.11978L68.3293 6.38939L66.173 8.28126L67.5554 9.76416L67.0121 10.2292L68.3737 11.7144L67.8336 12.1784L69.7793 14.2864L70.9342 13.2514L71.9327 14.3605C71.7341 14.5108 71.5178 14.6522 71.2794 14.7829C70.5573 15.1837 69.7228 15.4132 68.8348 15.4132C66.1037 15.4132 63.8762 13.2447 63.8762 10.5866C63.8762 7.9279 66.1037 5.7597 68.8348 5.7597ZM67.9311 10.2814L69.1103 9.24781L70.172 10.3958L68.993 11.4291L67.9311 10.2814ZM69.9489 11.2314L68.7696 12.2647L69.8316 13.4127L71.0107 12.3791L69.9489 11.2314ZM67.0873 8.32135L68.2664 7.28804L69.3279 8.43579L68.1488 9.46909L67.0873 8.32135ZM70.1354 6.99018L69.2511 7.76508L70.0473 8.62619L70.9316 7.85099L70.1354 6.99018ZM70.8224 11.3152L71.7071 10.54L72.5033 11.401L71.6189 12.176L70.8224 11.3152ZM72.4845 12.2787L71.6004 13.0539L72.3966 13.9145L73.2809 13.1395L72.4845 12.2787ZM71.9566 9.06891L72.5462 8.55221L73.0769 9.12609L72.4876 9.64269L71.9566 9.06891ZM71.7929 6.84716L71.2033 7.36377L71.7341 7.93764L72.3237 7.42104L71.7929 6.84716ZM72.7104 10.774L73.3 10.2573L73.8308 10.831L73.2412 11.3477L72.7104 10.774ZM70.9504 8.72104L70.0662 9.49633L70.8626 10.3568L71.7466 9.58185L70.9504 8.72104Z" fill="#0068A3"/>
<rect x="100.876" y="1.07941" width="68.0141" height="25.8775" rx="4" fill="#F0F6FF"/>
<path d="M112.149 14.0181L114.599 14.0181M114.599 14.0181L117.05 14.0181M114.599 14.0181V11.5676M114.599 14.0181L114.599 16.4687" stroke="#39AC73" stroke-width="0.940999" stroke-linecap="round" stroke-linejoin="round"/>
<path d="M126.671 17.606C126.085 17.606 125.54 17.5071 125.035 17.3095C124.537 17.1119 124.105 16.8375 123.739 16.4862C123.374 16.1275 123.088 15.7104 122.883 15.2346C122.678 14.7589 122.576 14.2393 122.576 13.6757C122.576 13.1122 122.678 12.5925 122.883 12.1168C123.088 11.6411 123.374 11.2276 123.739 10.8762C124.105 10.5176 124.537 10.2395 125.035 10.0419C125.533 9.84428 126.078 9.74548 126.671 9.74548C127.256 9.74548 127.794 9.84428 128.285 10.0419C128.782 10.2322 129.214 10.5066 129.58 10.8653C129.953 11.2166 130.239 11.6301 130.436 12.1058C130.641 12.5815 130.744 13.1048 130.744 13.6757C130.744 14.2466 130.641 14.7699 130.436 15.2456C130.239 15.7213 129.953 16.1385 129.58 16.4971C129.214 16.8485 128.782 17.1229 128.285 17.3205C127.794 17.5108 127.256 17.606 126.671 17.606ZM126.671 16.6289C127.095 16.6289 127.487 16.5557 127.845 16.4093C128.211 16.2629 128.526 16.058 128.79 15.7945C129.06 15.5237 129.269 15.209 129.415 14.8504C129.569 14.4918 129.646 14.1002 129.646 13.6757C129.646 13.2512 129.569 12.8597 129.415 12.501C129.269 12.1424 129.06 11.8314 128.79 11.5679C128.526 11.2971 128.211 11.0885 127.845 10.9421C127.487 10.7957 127.095 10.7225 126.671 10.7225C126.239 10.7225 125.84 10.7957 125.474 10.9421C125.115 11.0885 124.801 11.2971 124.53 11.5679C124.259 11.8314 124.047 12.1424 123.893 12.501C123.747 12.8597 123.674 13.2512 123.674 13.6757C123.674 14.1002 123.747 14.4918 123.893 14.8504C124.047 15.209 124.259 15.5237 124.53 15.7945C124.801 16.058 125.115 16.2629 125.474 16.4093C125.84 16.5557 126.239 16.6289 126.671 16.6289ZM134.32 17.584C133.734 17.584 133.28 17.4266 132.958 17.1119C132.636 16.7972 132.475 16.3471 132.475 15.7616V10.4261H133.529V15.7177C133.529 16.0324 133.606 16.2739 133.76 16.4423C133.921 16.6106 134.148 16.6948 134.44 16.6948C134.77 16.6948 135.044 16.6033 135.264 16.4203L135.593 17.1778C135.432 17.3169 135.238 17.4193 135.011 17.4852C134.792 17.5511 134.561 17.584 134.32 17.584ZM131.487 12.5669V11.6996H135.198V12.5669H131.487ZM139.974 11.6447C140.45 11.6447 140.867 11.7362 141.226 11.9192C141.592 12.1022 141.877 12.3803 142.082 12.7535C142.287 13.1268 142.389 13.5989 142.389 14.1697V17.5181H141.335V14.2905C141.335 13.7269 141.196 13.3025 140.918 13.017C140.647 12.7316 140.263 12.5889 139.766 12.5889C139.392 12.5889 139.067 12.6621 138.788 12.8084C138.51 12.9548 138.294 13.1707 138.141 13.4562C137.994 13.7416 137.921 14.0966 137.921 14.521V17.5181H136.867V9.37222H137.921V13.2695L137.713 12.8523C137.903 12.4718 138.196 12.1753 138.591 11.9631C138.986 11.7509 139.447 11.6447 139.974 11.6447ZM146.931 17.584C146.309 17.584 145.76 17.4559 145.284 17.1998C144.816 16.9436 144.45 16.5923 144.186 16.1458C143.93 15.6994 143.802 15.1871 143.802 14.6089C143.802 14.0307 143.926 13.5184 144.175 13.0719C144.431 12.6255 144.779 12.2778 145.218 12.029C145.665 11.7728 146.166 11.6447 146.722 11.6447C147.286 11.6447 147.783 11.7691 148.215 12.018C148.647 12.2668 148.984 12.6181 149.225 13.0719C149.474 13.5184 149.598 14.0417 149.598 14.6418C149.598 14.6857 149.595 14.737 149.587 14.7955C149.587 14.8541 149.584 14.9089 149.576 14.9602H144.625V14.2027H149.028L148.599 14.4662C148.607 14.0929 148.53 13.7599 148.369 13.4671C148.208 13.1744 147.985 12.9475 147.699 12.7865C147.421 12.6181 147.095 12.534 146.722 12.534C146.356 12.534 146.03 12.6181 145.745 12.7865C145.46 12.9475 145.236 13.178 145.075 13.4781C144.914 13.7709 144.834 14.1075 144.834 14.4881V14.6638C144.834 15.0517 144.922 15.3993 145.097 15.7067C145.28 16.0068 145.533 16.241 145.855 16.4093C146.177 16.5777 146.546 16.6618 146.964 16.6618C147.308 16.6618 147.619 16.6033 147.897 16.4862C148.182 16.3691 148.431 16.1934 148.643 15.9592L149.225 16.6399C148.962 16.9473 148.632 17.1815 148.237 17.3425C147.849 17.5035 147.414 17.584 146.931 17.584ZM151.062 17.5181V11.6996H152.072V13.2805L151.973 12.8853C152.134 12.4827 152.405 12.1753 152.785 11.9631C153.166 11.7509 153.634 11.6447 154.191 11.6447V12.6657C154.147 12.6584 154.103 12.6547 154.059 12.6547C154.022 12.6547 153.986 12.6547 153.949 12.6547C153.386 12.6547 152.939 12.8231 152.61 13.1597C152.28 13.4964 152.116 13.9831 152.116 14.6199V17.5181H151.062ZM157.223 17.584C156.74 17.584 156.279 17.5181 155.839 17.3864C155.408 17.2546 155.067 17.0936 154.818 16.9033L155.258 16.069C155.506 16.2373 155.814 16.38 156.18 16.4971C156.546 16.6142 156.919 16.6728 157.3 16.6728C157.79 16.6728 158.141 16.6033 158.353 16.4642C158.573 16.3252 158.683 16.1312 158.683 15.8824C158.683 15.6994 158.617 15.5567 158.485 15.4542C158.353 15.3517 158.178 15.2749 157.958 15.2237C157.746 15.1724 157.508 15.1285 157.245 15.0919C156.981 15.048 156.718 14.9968 156.454 14.9382C156.191 14.8724 155.949 14.7845 155.73 14.6747C155.51 14.5576 155.334 14.4003 155.203 14.2027C155.071 13.9977 155.005 13.7269 155.005 13.3903C155.005 13.039 155.104 12.7316 155.301 12.4681C155.499 12.2046 155.777 12.0034 156.136 11.8643C156.502 11.7179 156.934 11.6447 157.431 11.6447C157.812 11.6447 158.196 11.6923 158.584 11.7874C158.979 11.8753 159.301 12.0034 159.55 12.1717L159.1 13.006C158.836 12.8304 158.562 12.7096 158.277 12.6438C157.991 12.5779 157.706 12.5449 157.42 12.5449C156.959 12.5449 156.615 12.6218 156.388 12.7755C156.161 12.9219 156.048 13.1122 156.048 13.3464C156.048 13.544 156.114 13.6977 156.246 13.8075C156.385 13.9099 156.56 13.9904 156.773 14.049C156.992 14.1075 157.234 14.1588 157.497 14.2027C157.761 14.2393 158.024 14.2905 158.288 14.3564C158.551 14.4149 158.789 14.4991 159.001 14.6089C159.221 14.7187 159.396 14.8724 159.528 15.07C159.667 15.2676 159.737 15.5311 159.737 15.8604C159.737 16.2117 159.634 16.5154 159.429 16.7716C159.224 17.0278 158.935 17.229 158.562 17.3754C158.189 17.5145 157.742 17.584 157.223 17.584Z" fill="#39AC73"/>
</svg>
