<svg width="32" height="33" viewBox="0 0 32 33" fill="none" xmlns="http://www.w3.org/2000/svg">
<path d="M5.33331 6.86666C5.33331 6.13028 5.93027 5.53333 6.66665 5.53333H12C12.7364 5.53333 13.3333 6.13028 13.3333 6.86666V12.2C13.3333 12.9364 12.7364 13.5333 12 13.5333H6.66665C5.93027 13.5333 5.33331 12.9364 5.33331 12.2V6.86666Z" stroke="#121212" stroke-opacity="0.7" stroke-width="2.55" stroke-linecap="round" stroke-linejoin="round"/>
<path d="M5.33331 20.2C5.33331 19.4636 5.93027 18.8667 6.66665 18.8667H12C12.7364 18.8667 13.3333 19.4636 13.3333 20.2V25.5333C13.3333 26.2697 12.7364 26.8667 12 26.8667H6.66665C5.93027 26.8667 5.33331 26.2697 5.33331 25.5333V20.2Z" stroke="#121212" stroke-opacity="0.7" stroke-width="2.55" stroke-linecap="round" stroke-linejoin="round"/>
<path d="M18.6666 6.86666C18.6666 6.13028 19.2636 5.53333 20 5.53333H25.3333C26.0697 5.53333 26.6666 6.13028 26.6666 6.86666V12.2C26.6666 12.9364 26.0697 13.5333 25.3333 13.5333H20C19.2636 13.5333 18.6666 12.9364 18.6666 12.2V6.86666Z" stroke="#121212" stroke-opacity="0.7" stroke-width="2.55" stroke-linecap="round" stroke-linejoin="round"/>
<path d="M18.6666 20.2C18.6666 19.4636 19.2636 18.8667 20 18.8667H25.3333C26.0697 18.8667 26.6666 19.4636 26.6666 20.2V25.5333C26.6666 26.2697 26.0697 26.8667 25.3333 26.8667H20C19.2636 26.8667 18.6666 26.2697 18.6666 25.5333V20.2Z" stroke="#121212" stroke-opacity="0.7" stroke-width="2.55" stroke-linecap="round" stroke-linejoin="round"/>
</svg>
