<svg width="32" height="31" viewBox="0 0 32 31" fill="none" xmlns="http://www.w3.org/2000/svg">
<rect x="1.13148" y="0.682129" width="30.3239" height="29.7836" rx="14.8918" stroke="#121212" stroke-opacity="0.3" stroke-width="0.34459"/>
<path d="M14.8648 11.0025H17.722C17.722 10.6236 17.5715 10.2603 17.3036 9.99236C17.0357 9.72445 16.6723 9.57394 16.2934 9.57394C15.9145 9.57394 15.5512 9.72445 15.2833 9.99236C15.0154 10.2603 14.8648 10.6236 14.8648 11.0025ZM14.0077 11.0025C14.0077 10.3963 14.2485 9.81492 14.6772 9.38627C15.1058 8.95761 15.6872 8.7168 16.2934 8.7168C16.8996 8.7168 17.481 8.95761 17.9097 9.38627C18.3383 9.81492 18.5791 10.3963 18.5791 11.0025H22.1506C22.2642 11.0025 22.3732 11.0477 22.4536 11.128C22.534 11.2084 22.5791 11.3174 22.5791 11.4311C22.5791 11.5447 22.534 11.6538 22.4536 11.7341C22.3732 11.8145 22.2642 11.8597 22.1506 11.8597H21.402L20.7066 20.2042C20.656 20.8113 20.3791 21.3771 19.9308 21.7896C19.4826 22.2021 18.8957 22.431 18.2866 22.4311H14.3003C13.6911 22.431 13.1042 22.2021 12.656 21.7896C12.2077 21.3771 11.9309 20.8113 11.8803 20.2042L11.1848 11.8597H10.4363C10.3226 11.8597 10.2136 11.8145 10.1332 11.7341C10.0529 11.6538 10.0077 11.5447 10.0077 11.4311C10.0077 11.3174 10.0529 11.2084 10.1332 11.128C10.2136 11.0477 10.3226 11.0025 10.4363 11.0025H14.0077ZM12.7346 20.1328C12.7672 20.5256 12.9463 20.8918 13.2364 21.1587C13.5264 21.4257 13.9061 21.5739 14.3003 21.5739H18.2866C18.6807 21.5739 19.0605 21.4257 19.3505 21.1587C19.6405 20.8918 19.8196 20.5256 19.8523 20.1328L20.5426 11.8597H12.0448L12.7346 20.1328ZM15.0077 13.8597C15.1214 13.8597 15.2304 13.9048 15.3108 13.9852C15.3911 14.0656 15.4363 14.1746 15.4363 14.2882V19.1454C15.4363 19.259 15.3911 19.368 15.3108 19.4484C15.2304 19.5288 15.1214 19.5739 15.0077 19.5739C14.894 19.5739 14.785 19.5288 14.7047 19.4484C14.6243 19.368 14.5791 19.259 14.5791 19.1454V14.2882C14.5791 14.1746 14.6243 14.0656 14.7047 13.9852C14.785 13.9048 14.894 13.8597 15.0077 13.8597ZM18.0077 14.2882C18.0077 14.1746 17.9626 14.0656 17.8822 13.9852C17.8018 13.9048 17.6928 13.8597 17.5791 13.8597C17.4655 13.8597 17.3565 13.9048 17.2761 13.9852C17.1957 14.0656 17.1506 14.1746 17.1506 14.2882V19.1454C17.1506 19.259 17.1957 19.368 17.2761 19.4484C17.3565 19.5288 17.4655 19.5739 17.5791 19.5739C17.6928 19.5739 17.8018 19.5288 17.8822 19.4484C17.9626 19.368 18.0077 19.259 18.0077 19.1454V14.2882Z" fill="#FC0808"/>
</svg>
