<svg width="38" height="37" viewBox="0 0 38 37" fill="none" xmlns="http://www.w3.org/2000/svg">
<path d="M18.2291 24.0146V10.6791L14.6371 14.2712L13.5456 13.1628L19 7.70834L24.4544 13.1628L23.3644 14.2728L19.7708 10.6791V24.0146H18.2291ZM10.6981 29.2917C9.98894 29.2917 9.39694 29.0543 8.9221 28.5794C8.44624 28.1036 8.20831 27.5111 8.20831 26.8019V23.0664H9.74998V26.8019C9.74998 27.0383 9.84865 27.2557 10.046 27.454C10.2443 27.6513 10.4617 27.75 10.6981 27.75H27.3019C27.5382 27.75 27.7556 27.6513 27.954 27.454C28.1513 27.2557 28.25 27.0383 28.25 26.8019V23.0664H29.7917V26.8019C29.7917 27.5111 29.5542 28.1031 29.0794 28.5779C28.6035 29.0538 28.011 29.2917 27.3019 29.2917H10.6981Z" fill="#39AC73"/>
</svg>
