<svg width="32" height="32" viewBox="0 0 32 32" fill="none" xmlns="http://www.w3.org/2000/svg">
<rect x="0.72554" y="0.682129" width="30.3239" height="30.3236" rx="15.1618" stroke="#121212" stroke-opacity="0.3" stroke-width="0.34459"/>
<path d="M16.423 10.9433L19.4622 13.9743M10.2294 22.2188H21.5455M10.4734 19.1072L10.8132 16.7468C10.8316 16.5926 10.903 16.4497 11.0151 16.3423L17.6759 9.68215C17.7616 9.59496 17.8683 9.53133 17.9858 9.49741C18.1032 9.46348 18.2274 9.46041 18.3464 9.48849C18.9608 9.65208 19.5194 9.9788 19.9632 10.434C20.4224 10.8761 20.7522 11.4351 20.917 12.0508C20.9427 12.1699 20.9383 12.2936 20.9044 12.4106C20.8705 12.5276 20.8081 12.6344 20.7227 12.7214L14.0626 19.3815C13.9477 19.4874 13.8045 19.5578 13.6505 19.5841L11.2818 19.9232C11.1715 19.9381 11.0592 19.9272 10.9538 19.8913C10.8484 19.8554 10.7527 19.7956 10.6744 19.7165C10.596 19.6374 10.5371 19.5412 10.5022 19.4355C10.4673 19.3298 10.4575 19.2174 10.4734 19.1072Z" stroke="#121212" stroke-linecap="round" stroke-linejoin="round"/>
</svg>
