<svg width="48" height="48" viewBox="0 0 48 48" fill="none" xmlns="http://www.w3.org/2000/svg">
<circle cx="24" cy="24" r="24" fill="white"/>
<path d="M29.3409 13.0045L26.5187 13C23.3479 13 21.2989 15.1059 21.2989 18.3653V20.839H18.4612C18.216 20.839 18.0175 21.0382 18.0175 21.2838V24.868C18.0175 25.1136 18.2162 25.3125 18.4612 25.3125H21.2989V34.3566C21.2989 34.6022 21.4975 34.8011 21.7427 34.8011H25.445C25.6902 34.8011 25.8888 34.602 25.8888 34.3566V25.3125H29.2067C29.4519 25.3125 29.6504 25.1136 29.6504 24.868L29.6518 21.2838C29.6518 21.1659 29.6049 21.0529 29.5218 20.9694C29.4387 20.886 29.3255 20.839 29.2078 20.839H25.8888V18.742C25.8888 17.7341 26.1286 17.2224 27.4393 17.2224L29.3405 17.2217C29.5855 17.2217 29.784 17.0226 29.784 16.7772V13.4491C29.784 13.2039 29.5857 13.005 29.3409 13.0045Z" fill="#39AC73"/>
</svg>
