<svg width="12" height="22" viewBox="0 0 12 22" fill="none" xmlns="http://www.w3.org/2000/svg">
<path d="M11.3409 0.00453608L8.51866 0C5.34795 0 3.29889 2.10588 3.29889 5.36528V7.83903H0.46123C0.216022 7.83903 0.0174561 8.03816 0.0174561 8.28379V11.868C0.0174561 12.1136 0.216249 12.3125 0.46123 12.3125H3.29889V21.3566C3.29889 21.6022 3.49746 21.8011 3.74266 21.8011H7.445C7.69021 21.8011 7.88878 21.602 7.88878 21.3566V12.3125H11.2067C11.4519 12.3125 11.6504 12.1136 11.6504 11.868L11.6518 8.28379C11.6518 8.16586 11.6049 8.05291 11.5218 7.96944C11.4387 7.88598 11.3255 7.83903 11.2078 7.83903H7.88878V5.742C7.88878 4.73408 8.12855 4.22241 9.43927 4.22241L11.3405 4.22173C11.5855 4.22173 11.784 4.0226 11.784 3.7772V0.449072C11.784 0.203897 11.5857 0.00498969 11.3409 0.00453608Z" fill="#39AC73"/>
</svg>
