<svg width="69" height="69" viewBox="0 0 69 69" fill="none" xmlns="http://www.w3.org/2000/svg">
<rect x="0.593018" width="68.1009" height="68.1009" rx="34.0504" fill="#F1F1F1"/>
<path d="M62.4669 28.4932H60.1813V28.3754H34.6434V39.7255H50.6798C48.3402 46.3327 42.0537 51.0757 34.6434 51.0757C25.2413 51.0757 17.6182 43.4526 17.6182 34.0505C17.6182 24.6483 25.2413 17.0253 34.6434 17.0253C38.9834 17.0253 42.9319 18.6625 45.9382 21.3369L53.9642 13.3109C48.8964 8.58784 42.1175 5.67511 34.6434 5.67511C18.9731 5.67511 6.26807 18.3802 6.26807 34.0505C6.26807 49.7208 18.9731 62.4258 34.6434 62.4258C50.3137 62.4258 63.0188 49.7208 63.0188 34.0505C63.0188 32.1479 62.823 30.2907 62.4669 28.4932Z" fill="#FFC107"/>
<path d="M9.53979 20.8432L18.8625 27.6802C21.3851 21.4348 27.4943 17.0253 34.6435 17.0253C38.9835 17.0253 42.9319 18.6625 45.9383 21.3369L53.9643 13.3109C48.8964 8.58784 42.1175 5.67511 34.6435 5.67511C23.7445 5.67511 14.2927 11.8283 9.53979 20.8432Z" fill="#FF3D00"/>
<path d="M34.6434 62.4258C41.9727 62.4258 48.6324 59.6209 53.6676 55.0596L44.8855 47.628C41.9409 49.8674 38.3427 51.0786 34.6434 51.0757C27.2629 51.0757 20.9962 46.3696 18.6354 39.8021L9.3822 46.9314C14.0783 56.1208 23.6153 62.4258 34.6434 62.4258Z" fill="#4CAF50"/>
<path d="M62.4669 28.4931H60.1813V28.3754H34.6434V39.7255H50.6798C49.5607 42.8701 47.5448 45.6179 44.8813 47.6295L44.8855 47.6266L53.6677 55.0581C53.0463 55.6228 63.0188 48.2381 63.0188 34.0504C63.0188 32.1479 62.823 30.2907 62.4669 28.4931Z" fill="#1976D2"/>
</svg>
