<svg width="25" height="25" viewBox="0 0 25 25" fill="none" xmlns="http://www.w3.org/2000/svg">
<g clip-path="url(#clip0_21_1056)">
<path d="M24.7585 4.92997C24.7484 4.89604 24.7382 4.86211 24.7246 4.82819C16.6873 4.83158 8.65337 4.82819 0.619448 4.83158C0.599092 4.85533 0.585521 4.87908 0.582128 4.90961C0.582128 11.142 0.582128 17.371 0.578735 23.6034C0.629626 23.9359 0.812832 24.2379 1.05711 24.4652C1.06728 24.4686 1.09103 24.4719 1.10121 24.4753C1.22674 24.6077 1.40656 24.6721 1.57619 24.7332C1.70172 24.7264 1.82386 24.7807 1.94939 24.7671H11.9239C12.0189 24.7637 12.1173 24.7807 12.2089 24.7434C12.2123 24.7298 12.2157 24.706 12.2191 24.6925C12.2225 24.6755 12.2259 24.6382 12.2293 24.6178C12.443 23.4236 12.65 22.226 12.8773 21.0317L12.8976 20.8791C11.9748 20.8757 11.0486 20.8791 10.1258 20.8757C9.90189 20.8689 9.67119 20.8757 9.44727 20.8485C9.06389 20.8316 8.67712 20.8451 8.29375 20.8078C7.81877 20.8078 7.34718 20.7637 6.8722 20.7637C6.49901 20.7264 6.12242 20.74 5.74583 20.723C5.50155 20.6925 5.25049 20.706 5.00282 20.6959C4.59909 20.6518 4.18857 20.6823 3.78484 20.6382C3.35736 20.6416 2.92988 20.6043 2.5024 20.5941C2.50579 20.5907 2.50918 20.5771 2.50918 20.5737C2.65168 20.5771 2.79078 20.5669 2.93327 20.5636C3.24879 20.5228 3.56771 20.55 3.88323 20.5059C4.21232 20.5059 4.53802 20.4618 4.86712 20.4618C5.15889 20.4211 5.45405 20.4448 5.74583 20.4041C6.08849 20.4041 6.42437 20.36 6.76703 20.3566C7.04862 20.3193 7.33361 20.3396 7.61521 20.3023C7.9443 20.3057 8.27 20.2548 8.59909 20.2582C8.9214 20.2209 9.25049 20.2311 9.5728 20.1971C9.54226 20.0716 9.51851 19.9461 9.49137 19.8206C9.46762 19.7425 9.37263 19.7595 9.31156 19.7493C8.57534 19.6441 7.84252 19.539 7.10969 19.4372C7.15719 19.3999 7.22165 19.4168 7.27594 19.41C7.84591 19.3659 8.41249 19.315 8.98247 19.2743C9.11139 19.2675 9.23692 19.2438 9.36584 19.2404C9.30817 19.064 9.27424 18.8706 9.19621 18.7077C7.97823 18.5211 6.76024 18.3549 5.54566 18.1547C5.86118 18.1038 6.18009 18.0801 6.49561 18.0462L6.52276 18.036C7.53039 17.9308 8.54141 17.8121 9.54905 17.7137C10.8281 17.7069 12.1038 17.7103 13.3828 17.7137C13.4235 17.7069 13.4948 17.7273 13.5015 17.6696C13.6067 17.12 13.7085 16.5703 13.8137 16.0207C13.9596 15.2574 14.1903 14.5042 14.5465 13.8087C15.1063 12.6891 15.9918 11.7391 17.0707 11.1081C18.0783 10.5178 19.2454 10.2328 20.4057 10.1785C20.7823 10.1446 21.1623 10.1547 21.5355 10.2022C21.7798 10.2599 22.0308 10.3278 22.2242 10.494C22.3837 10.6229 22.4786 10.8129 22.5499 11.0029C22.706 11.4541 22.7942 11.9223 22.8688 12.3939C22.8722 12.5839 22.9061 12.7977 22.8043 12.9707C22.7094 13.1403 22.5194 13.2217 22.3395 13.2726C21.6848 13.4423 20.9994 13.2828 20.3446 13.4423C19.8052 13.5576 19.3031 13.8562 18.9604 14.287C18.5567 14.7892 18.3429 15.4134 18.2242 16.0377C18.1326 16.5941 18.0172 17.1505 17.9256 17.7103C18.5703 17.7137 19.2183 17.7069 19.8663 17.7137C20.1241 17.7137 20.3887 17.8562 20.4939 18.1004C20.6296 18.4126 20.5991 18.7654 20.555 19.0945C20.5007 19.4643 20.4125 19.8307 20.2462 20.17C20.1071 20.4584 19.8764 20.723 19.5609 20.8248C19.3981 20.8893 19.2217 20.8757 19.0486 20.8757C18.4786 20.8757 17.9087 20.8825 17.3387 20.8757C17.2471 21.293 17.186 21.7205 17.1046 22.1446C16.9553 22.969 16.8094 23.7968 16.6602 24.6246C16.6568 24.6518 16.6534 24.7094 16.6534 24.74C16.9214 24.7535 17.1894 24.74 17.4574 24.7468C19.4456 24.7468 21.4371 24.7434 23.4286 24.7468C23.6423 24.7535 23.8595 24.7027 24.0461 24.5975C24.158 24.5568 24.2259 24.4584 24.3243 24.4041C24.4193 24.3498 24.4464 24.2379 24.5278 24.1666C24.6161 24.0105 24.7077 23.8477 24.7144 23.6645C24.7246 23.6645 24.7518 23.6611 24.7653 23.6577C24.7552 17.4151 24.7653 11.1725 24.7585 4.92997Z" fill="url(#paint0_linear_21_1056)" stroke="#FCD109" stroke-width="0.00318914"/>
<path d="M3.74411 0.824751C4.03249 0.733148 4.33444 0.794217 4.6296 0.77386C10.1699 0.777253 15.7102 0.77386 21.2505 0.77386C21.5796 0.76029 21.8679 0.946888 22.1733 1.04188C22.4176 1.14027 22.672 1.2183 22.9163 1.32348C22.9672 1.34383 23.0045 1.38794 23.0418 1.42526C23.0384 1.8731 23.0418 2.32433 23.0418 2.77556C23.0452 2.8943 23.0249 3.01644 23.0656 3.13179C23.1368 3.14197 23.1741 3.19625 23.2216 3.24036C23.4455 3.34214 23.6355 3.50838 23.8391 3.64409C24.1444 3.86122 24.4701 4.05121 24.7687 4.27513C24.7823 4.36334 24.7721 4.45495 24.745 4.53637C24.7144 4.63137 24.7348 4.73315 24.7246 4.82814C16.6873 4.83154 8.65335 4.82814 0.619424 4.83154C0.602461 4.71958 0.632995 4.60762 0.585497 4.50244C0.578712 4.41423 0.548177 4.29888 0.632995 4.23781C0.972266 4.00032 1.33189 3.78658 1.66438 3.53552C1.87133 3.40321 2.0715 3.2675 2.27167 3.13179C2.31238 3.06394 2.29881 2.97912 2.29881 2.90448C2.29881 2.41254 2.29881 1.92059 2.30221 1.42865C2.41756 1.27937 2.61773 1.26241 2.77719 1.18777C3.09949 1.06563 3.42519 0.946888 3.74411 0.824751ZM3.76446 0.882427C3.3302 1.04867 2.89254 1.20813 2.45827 1.37437C2.40059 1.38455 2.37006 1.43544 2.33953 1.47954C2.34292 1.50668 2.34631 1.55418 2.34631 1.58132C2.34292 1.98845 2.34631 2.39557 2.34292 2.8027C2.34631 2.90448 2.33274 3.00626 2.37006 3.09786C2.32596 3.14197 2.27846 3.18607 2.22417 3.22C1.73223 3.53892 1.25725 3.88497 0.765311 4.20049C0.680493 4.25138 0.585497 4.31924 0.612639 4.4312C0.595675 4.49227 0.62621 4.54316 0.690671 4.52619C1.75598 4.51941 2.8179 4.53298 3.88321 4.51601C5.4676 4.51601 7.0486 4.51941 8.633 4.51601L8.65674 4.50584C8.72799 4.5228 8.79924 4.51601 8.87388 4.51601C11.7441 4.51601 14.6143 4.51941 17.488 4.51601C18.3904 4.51941 19.2963 4.51601 20.2021 4.51601C21.6949 4.51601 23.1911 4.52959 24.6839 4.5228C24.728 4.51262 24.7416 4.48209 24.7246 4.4278C24.7212 4.37352 24.7416 4.29888 24.6839 4.26495C24.4464 4.153 24.2428 3.97997 24.0155 3.84426C23.9341 3.7764 23.8289 3.73909 23.7679 3.64748C23.5338 3.51517 23.3166 3.35232 23.0859 3.20643C23.0418 3.17929 23.0079 3.13518 22.9706 3.09786C22.9909 3.02662 22.9977 2.94858 22.9977 2.87395C22.9943 2.44307 22.9977 2.0122 22.9943 1.58132C23.0045 1.51347 23.0011 1.43544 22.94 1.39133C22.5329 1.24545 22.1292 1.08938 21.7254 0.940103C21.5999 0.879034 21.4608 0.845107 21.3251 0.824751H3.98499C3.91035 0.828144 3.8391 0.865463 3.76446 0.882427Z" fill="#F8F3B5" stroke="#F8F3B5" stroke-width="0.00318914"/>
<path d="M2.34632 1.58136C2.64488 1.70689 2.96379 1.77814 3.26574 1.90027C3.42859 1.96474 3.47948 2.14116 3.55073 2.28365C3.47948 2.3549 3.39466 2.41257 3.30985 2.46686C2.99772 2.6772 2.6788 2.88077 2.37007 3.0979C2.33275 3.0063 2.34632 2.90451 2.34293 2.80273C2.34632 2.39561 2.34293 1.98848 2.34632 1.58136ZM22.0749 1.90027C22.3769 1.78153 22.6924 1.7001 22.9943 1.58136C22.9977 2.01223 22.9943 2.44311 22.9977 2.87398C22.9977 2.94862 22.9909 3.02665 22.9706 3.0979C22.7059 2.91469 22.4379 2.74167 22.1733 2.56185C22.0444 2.46686 21.9019 2.39561 21.7865 2.28026C21.8578 2.13776 21.9121 1.96474 22.0749 1.90027Z" fill="#F7B402" stroke="#F7B402" stroke-width="0.00318914"/>
<path d="M7.52359 2.03939C7.89679 1.95118 8.31409 2.28367 8.28356 2.67383C8.28695 3.0572 7.88322 3.36933 7.51341 3.28112C7.36413 3.23023 7.22164 3.1522 7.13004 3.01988C7.01129 2.84007 6.98415 2.59919 7.07914 2.40241C7.147 2.21242 7.3302 2.0835 7.52359 2.03939ZM17.203 2.25313C17.359 2.0801 17.6067 1.98172 17.8374 2.04278C18.0104 2.09368 18.1801 2.20563 18.2547 2.37527C18.404 2.66704 18.2886 3.0606 17.9969 3.21327C17.739 3.35576 17.4133 3.28791 17.2165 3.08095C17.0164 2.85364 17.0028 2.48044 17.203 2.25313Z" fill="#BDA727" stroke="#BDA727" stroke-width="0.00318914"/>
<path d="M3.30983 2.46687C3.39465 2.41259 3.47947 2.35491 3.55072 2.28367L3.57447 2.30742C3.59821 2.48384 3.58125 2.66365 3.58804 2.84007C3.57786 3.36933 3.59821 3.90199 3.57447 4.43125C2.58719 4.43125 1.59991 4.42446 0.612634 4.43125C0.585492 4.31929 0.680488 4.25144 0.765306 4.20054C1.25725 3.88502 1.73223 3.53897 2.22417 3.22005C2.27845 3.18613 2.32595 3.14202 2.37006 3.09792C2.67879 2.88078 2.99771 2.67722 3.30983 2.46687ZM21.7526 2.39902C21.7526 2.35491 21.7628 2.31759 21.7865 2.28027C21.9019 2.39563 22.0444 2.46687 22.1733 2.56187C22.4379 2.74168 22.7059 2.91471 22.9706 3.09792C23.0079 3.13524 23.0418 3.17934 23.0859 3.20648C23.3166 3.35237 23.5338 3.51522 23.7678 3.64753C23.8289 3.73914 23.9341 3.77646 24.0155 3.84431C24.2428 3.98002 24.4464 4.15305 24.6839 4.26501C24.7416 4.29893 24.7212 4.37357 24.7246 4.42786C23.7373 4.43125 22.7534 4.42446 21.7662 4.43125C21.7492 4.29554 21.7594 4.15983 21.756 4.02752C21.756 3.48468 21.7492 2.94185 21.7526 2.39902Z" fill="#F7E62D" stroke="#F7E62D" stroke-width="0.00318914"/>
<path d="M24.7246 4.42776C23.7373 4.43115 22.7535 4.42437 21.7662 4.43115C21.7492 4.29544 21.7594 4.15974 21.756 4.02742C21.756 3.48459 21.7492 2.94176 21.7526 2.39892C21.7526 2.35482 21.7628 2.3175 21.7865 2.28018C21.8578 2.13768 21.9121 1.96466 22.0749 1.90019C22.3769 1.78145 22.6924 1.70003 22.9943 1.58128C23.0045 1.51343 23.0011 1.43539 22.9401 1.39129C22.5329 1.2454 22.1292 1.08934 21.7255 0.940059C21.5999 0.87899 21.4608 0.845063 21.3251 0.824707H3.98501C3.91037 0.8281 3.83912 0.865419 3.76448 0.882383C3.33021 1.04863 2.89255 1.20808 2.45829 1.37433C2.40061 1.3845 2.37008 1.43539 2.33954 1.4795C2.34294 1.50664 2.34633 1.55414 2.34633 1.58128C2.64489 1.70681 2.9638 1.77806 3.26575 1.90019C3.4286 1.96466 3.47949 2.14108 3.55074 2.28357L3.57449 2.30732C3.59824 2.48374 3.58127 2.66355 3.58806 2.83997C3.57788 3.36924 3.59824 3.90189 3.57449 4.43115C2.58721 4.43115 1.59993 4.42437 0.612656 4.43115C0.595693 4.49222 0.626227 4.54311 0.690689 4.52615C1.756 4.51936 2.81792 4.53293 3.88322 4.51597C5.46762 4.51597 7.04862 4.51936 8.63301 4.51597L8.65676 4.50579C8.72801 4.52276 8.79926 4.51597 8.87389 4.51597C11.7441 4.51597 14.6144 4.51936 17.488 4.51597C18.3904 4.51936 19.2963 4.51597 20.2021 4.51597C21.6949 4.51597 23.1911 4.52954 24.6839 4.52276C24.728 4.51258 24.7416 4.48204 24.7246 4.42776ZM7.07915 2.40232C7.14701 2.21232 7.33021 2.0834 7.5236 2.0393C7.8968 1.95109 8.3141 2.28357 8.28356 2.67373C8.28696 3.05711 7.88322 3.36924 7.51342 3.28103C7.36414 3.23014 7.22165 3.1521 7.13004 3.01979C7.0113 2.83997 6.98416 2.59909 7.07915 2.40232ZM17.203 2.25304C17.3591 2.08001 17.6067 1.98162 17.8374 2.04269C18.0105 2.09358 18.1801 2.20554 18.2547 2.37517C18.404 2.66695 18.2887 3.0605 17.9969 3.21317C17.739 3.35567 17.4133 3.28781 17.2166 3.08086C17.0164 2.85354 17.0028 2.48035 17.203 2.25304Z" fill="url(#paint1_radial_21_1056)" stroke="#FCD109" stroke-width="0.00318914"/>
<path d="M18.0678 5.91856C18.1153 5.92873 17.8205 5.63527 17.8781 5.6217C17.9324 5.62848 18.1384 5.46868 18.3871 5.59896C18.6357 5.72924 18.574 6.03425 18.5458 6.14756C18.5122 6.28225 18.4264 6.36809 18.3586 6.43594C18.3212 6.46648 18.2374 6.51398 18.1865 6.51058C18.2171 6.34434 18.1187 6.3172 18.1119 6.14756L18.0678 5.91856Z" fill="url(#paint2_linear_21_1056)" stroke="#FCD109" stroke-width="0.00318914"/>
<path d="M7.22232 6.10273C7.21553 6.27237 7.11714 6.29951 7.14768 6.46575C7.09679 6.46914 7.01299 6.42164 6.97567 6.39111C6.90781 6.32326 6.82232 6.23742 6.78873 6.10273C6.76057 5.98975 6.69882 5.68475 6.94751 5.55413C7.19619 5.42351 7.40213 5.58365 7.45641 5.57686C7.51409 5.59043 7.21926 5.8839 7.26676 5.87372L7.22232 6.10273Z" fill="url(#paint3_linear_21_1056)" stroke="#FCD109" stroke-width="0.00318914"/>
<path d="M17.6237 8.09193C17.6746 8.04749 17.7085 8.04749 17.7763 8.04749C17.3692 8.92959 16.8942 9.81169 16.1801 10.4984C16.1037 10.5666 16.023 10.6297 15.9385 10.6877C15.8567 10.7474 15.7767 10.8037 15.6969 10.8607C15.6189 10.915 15.5412 10.9693 15.4659 11.0263C15.2725 11.1315 15.1029 11.2773 14.8891 11.3418C14.499 11.5284 14.0783 11.6539 13.6542 11.7421C13.488 11.7693 13.3183 11.81 13.1487 11.8134C12.9383 11.8745 12.7144 11.8304 12.5007 11.8439C12.3819 11.8643 12.2768 11.7964 12.1614 11.81C12.0613 11.7957 11.9616 11.7788 11.8622 11.7591C11.7614 11.7384 11.6613 11.7147 11.5623 11.6879C10.007 11.2027 8.48032 10.0153 8.03554 8.40915C8.01552 8.30092 8.00534 8.19134 8.00534 8.08107C8.05284 8.17607 8.10203 8.27039 8.15292 8.36369C8.78566 9.7435 10.041 10.8292 11.5239 11.1566C11.6444 11.2115 11.7746 11.1922 11.89 11.2397C11.9952 11.2397 12.0969 11.2363 12.1987 11.2702C12.5482 11.277 12.8976 11.2736 13.2471 11.2736C13.2946 11.277 13.3387 11.2533 13.3862 11.2431C13.9687 11.2234 14.5394 11.0646 15.0707 10.8237C15.1768 10.7756 15.2817 10.724 15.3845 10.6697C15.4744 10.6222 15.5626 10.571 15.6481 10.5157C15.7322 10.4614 15.8137 10.4037 15.893 10.3427C16.521 9.84528 17.0639 9.20067 17.4327 8.45936C17.5025 8.3267 17.567 8.20321 17.6237 8.09193Z" fill="#BDA727" stroke="#BDA727" stroke-width="0.00318914"/>
<path d="M17.0707 11.1081C18.0783 10.5178 19.2454 10.2328 20.4057 10.1785C20.7823 10.1446 21.1623 10.1547 21.5355 10.2022C21.7797 10.2599 22.0308 10.3278 22.2242 10.494C22.1258 10.5008 22.0308 10.4567 21.9324 10.4431C21.6542 10.3888 21.3658 10.4092 21.0842 10.4024C20.2666 10.4024 19.4422 10.4669 18.6517 10.6908C18.2378 10.8163 17.8238 10.9622 17.4473 11.1793C16.7959 11.539 16.2089 12.0139 15.7339 12.5839C14.8858 13.5576 14.387 14.7926 14.1462 16.0513C14.0308 16.7264 13.8985 17.3982 13.7933 18.0767C13.6237 18.0937 13.4507 18.0835 13.281 18.0835C12.5346 18.0801 11.7882 18.0767 11.0418 18.0699C10.8824 18.0767 10.7263 18.0394 10.5669 18.0496C9.20977 18.0563 7.85269 18.0462 6.49561 18.0462L6.52275 18.036C7.53038 17.9308 8.54141 17.8121 9.54904 17.7137C10.8281 17.7069 12.1037 17.7103 13.3828 17.7137C13.4235 17.7069 13.4948 17.7273 13.5015 17.6696C13.6067 17.12 13.7085 16.5703 13.8137 16.0207C13.9596 15.2574 14.1903 14.5042 14.5465 13.8087C15.1063 12.6891 15.9918 11.7391 17.0707 11.1081Z" fill="#0D69B3" stroke="#0D69B3" stroke-width="0.00318914"/>
<path d="M18.6517 10.6907C19.4422 10.4668 20.2666 10.4023 21.0843 10.4023C21.3659 10.4091 21.6542 10.3888 21.9324 10.4431C22.0308 10.4566 22.1258 10.5007 22.2242 10.4939C22.3837 10.6229 22.4787 10.8129 22.5499 11.0029C22.706 11.4541 22.7942 11.9223 22.8688 12.3939C22.8722 12.5839 22.9061 12.7976 22.8044 12.9706C22.7094 13.1403 22.5194 13.2217 22.3396 13.2726C21.6848 13.4422 20.9994 13.2827 20.3447 13.4422C19.8052 13.5576 19.3031 13.8561 18.9604 14.287C18.5567 14.7891 18.343 15.4134 18.2242 16.0376C18.1326 16.594 18.0173 17.1504 17.9257 17.7102C17.8849 17.8358 17.8612 17.9715 17.8374 18.1038C18.4787 18.114 19.1199 18.1038 19.7611 18.1106C20.0054 18.1038 20.2497 18.1174 20.4939 18.1004C20.6296 18.4125 20.5991 18.7654 20.555 19.0945C20.5007 19.4643 20.4125 19.8307 20.2463 20.1699C20.1072 20.4583 19.8765 20.723 19.5609 20.8247C19.3981 20.8892 19.2217 20.8756 19.0486 20.8756C18.4787 20.8756 17.9087 20.8824 17.3387 20.8756C17.2471 21.2929 17.186 21.7204 17.1046 22.1445C16.9553 22.9689 16.8095 23.7967 16.6602 24.6246C16.6568 24.6517 16.6534 24.7094 16.6534 24.7399V24.7433C15.1708 24.7433 13.6916 24.7467 12.2089 24.7433C12.2123 24.7297 12.2157 24.706 12.2191 24.6924C12.2225 24.6755 12.2259 24.6381 12.2293 24.6178C12.2327 24.6449 12.2361 24.6958 12.2395 24.7196C12.3311 24.7297 12.4973 24.7772 12.5211 24.6449C12.7518 23.3964 12.9655 22.1411 13.203 20.8926C13.1114 20.8722 13.0164 20.8722 12.9214 20.8892C12.9078 20.9367 12.8943 20.9842 12.8773 21.0317L12.8977 20.879C11.9748 20.8756 11.0486 20.879 10.1258 20.8756C9.9019 20.8688 9.6712 20.8756 9.44728 20.8485C9.0639 20.8315 8.67714 20.8451 8.29376 20.8078C7.81878 20.8078 7.34719 20.7637 6.87222 20.7637C6.49902 20.7263 6.12243 20.7399 5.74584 20.723C5.50156 20.6924 5.2505 20.706 5.00284 20.6958C4.5991 20.6517 4.18859 20.6822 3.78485 20.6381C3.35737 20.6415 2.92989 20.6042 2.50241 20.594C2.5058 20.5906 2.5092 20.5771 2.5092 20.5737C2.65169 20.5771 2.79079 20.5669 2.93328 20.5635C3.24881 20.5228 3.56772 20.5499 3.88324 20.5058C4.21233 20.5058 4.53803 20.4617 4.86713 20.4617C5.1589 20.421 5.45407 20.4448 5.74584 20.404C6.0885 20.404 6.42438 20.3599 6.76704 20.3565C7.04864 20.3192 7.33362 20.3396 7.61522 20.3023C7.94431 20.3056 8.27001 20.2548 8.5991 20.2582C8.92141 20.2208 9.2505 20.231 9.57281 20.1971C9.54227 20.0716 9.51853 19.946 9.49138 19.8205C9.46764 19.7425 9.37264 19.7594 9.31157 19.7492C8.57535 19.6441 7.84253 19.5389 7.10971 19.4371C7.1572 19.3998 7.22166 19.4168 7.27595 19.41C7.84592 19.3659 8.4125 19.315 8.98248 19.2743C9.1114 19.2675 9.23693 19.2437 9.36586 19.2403C9.30818 19.0639 9.27425 18.8705 9.19622 18.7077C7.97824 18.5211 6.76026 18.3548 5.54567 18.1547C5.86119 18.1038 6.1801 18.08 6.49563 18.0461C7.85271 18.0461 9.20979 18.0563 10.5669 18.0495C10.7263 18.0393 10.8824 18.0766 11.0419 18.0699C11.7882 18.0766 12.5346 18.08 13.281 18.0834C13.4507 18.0834 13.6237 18.0936 13.7933 18.0766C13.8985 17.3981 14.0308 16.7263 14.1462 16.0512C14.3871 14.7925 14.8858 13.5576 15.734 12.5839C16.2089 12.0139 16.7959 11.5389 17.4473 11.1793C17.8239 10.9621 18.2378 10.8163 18.6517 10.6907Z" fill="#107BD4" stroke="#107BD4" stroke-width="0.00318914"/>
<path d="M17.9256 17.7103C18.5702 17.7137 19.2183 17.7069 19.8663 17.7137C20.1241 17.7137 20.3887 17.8562 20.4939 18.1004C20.2496 18.1174 20.0054 18.1038 19.7611 18.1106C19.1199 18.1038 18.4786 18.114 17.8374 18.1038C17.8612 17.9715 17.8849 17.8358 17.9256 17.7103ZM12.9214 20.8892C13.0164 20.8723 13.1114 20.8723 13.203 20.8926C12.9655 22.1411 12.7518 23.3964 12.5211 24.645C12.4973 24.7773 12.3311 24.7298 12.2395 24.7196C12.2361 24.6958 12.2327 24.645 12.2293 24.6178C12.443 23.4236 12.65 22.226 12.8773 21.0317C12.8942 20.9842 12.9078 20.9367 12.9214 20.8892Z" fill="#0D69B3" stroke="#0D69B3" stroke-width="0.00318914"/>
<path d="M18.2225 6.01355C18.1954 5.96266 18.192 5.90159 18.192 5.84392L18.1648 5.84731C18.1241 5.69803 17.9986 5.55554 17.8357 5.54875C17.7136 5.53857 17.5609 5.54196 17.4897 5.65732C17.354 5.84052 17.4184 6.07462 17.4116 6.28157C17.4116 6.29514 17.415 6.31889 17.415 6.33246C17.415 6.47157 17.3981 6.60727 17.3743 6.74298C17.354 6.78369 17.3438 6.8278 17.3438 6.8753C17.2861 7.19421 17.1708 7.50973 17.0147 7.79811C16.9842 7.83883 16.9604 7.88293 16.9502 7.93043C16.8485 8.10685 16.7263 8.2697 16.6008 8.43255C16.5804 8.44951 16.5635 8.46987 16.5465 8.49023C16.4583 8.59879 16.3633 8.6904 16.2649 8.78539C16.2412 8.79896 16.2242 8.81593 16.2038 8.8295C16.0885 8.94146 15.9596 9.04663 15.8205 9.13145C15.8035 9.14163 15.7865 9.1552 15.7662 9.16877C14.8977 9.74213 13.8425 9.97962 12.8145 9.9898C11.9426 10.0169 11.0639 9.83034 10.2768 9.45375C10.2632 9.44697 10.2293 9.4334 10.2157 9.42661C10.0834 9.35537 9.94769 9.2943 9.82556 9.20609C9.79841 9.19252 9.77127 9.17555 9.74074 9.16198C9.61521 9.08734 9.49646 9.00592 9.3845 8.91092C9.34718 8.87699 9.30647 8.84985 9.26576 8.81932C9.14362 8.72093 9.01809 8.61576 8.91292 8.49701C8.88578 8.46648 8.85863 8.43934 8.83149 8.41219C8.46169 8.02882 8.17331 7.56062 8.02064 7.05172C7.87475 6.64799 7.89511 6.20693 7.87814 5.78285C7.75601 5.59625 7.49816 5.49107 7.2946 5.60643C7.20978 5.66749 7.1996 5.77945 7.13514 5.85749C7.02997 6.97708 7.50834 8.09328 8.2717 8.90074C8.2717 8.92789 8.28527 8.94485 8.30902 8.95503C8.44472 9.08056 8.57704 9.20948 8.71275 9.33162C8.7365 9.35537 8.76364 9.37911 8.79417 9.39947C8.92988 9.51143 9.07577 9.61321 9.21826 9.71839C9.2454 9.73874 9.27255 9.7557 9.30308 9.77267C9.48968 9.88123 9.6661 10.0102 9.86627 10.0848C9.87984 10.095 9.90359 10.1119 9.91716 10.1187C10.5618 10.4275 11.2573 10.6378 11.9697 10.7057C12.0478 10.7057 12.1258 10.7124 12.2038 10.7294C12.5431 10.7498 12.8824 10.7396 13.2217 10.7328C14.27 10.6412 15.3523 10.3867 16.2276 9.76928L16.2378 9.78285C16.2649 9.7591 16.2887 9.73874 16.3158 9.71839C16.4549 9.6166 16.5906 9.50804 16.7263 9.39608C16.7569 9.37233 16.7908 9.34519 16.8213 9.31465C16.9706 9.1518 17.1436 9.00252 17.2692 8.81593L17.2895 8.8261C17.2997 8.80914 17.3167 8.77521 17.3268 8.75825C17.4422 8.60218 17.5474 8.43934 17.6491 8.27649C17.6559 8.26631 17.6729 8.24934 17.6797 8.23917L17.6661 8.22559C17.6763 8.21202 17.7 8.18488 17.7102 8.17131C17.8968 7.79133 18.063 7.39438 18.1207 6.97369C18.1445 6.96351 18.158 6.94315 18.158 6.9194C18.1614 6.78369 18.2089 6.65477 18.1954 6.51906C18.2259 6.35282 18.2293 6.18319 18.2225 6.01355Z" fill="white" stroke="white" stroke-width="0.00318914"/>
<mask id="mask0_21_1056" style="mask-type:luminance" maskUnits="userSpaceOnUse" x="7" y="5" width="12" height="6">
<path d="M18.2225 6.01355C18.1954 5.96266 18.192 5.90159 18.192 5.84392L18.1648 5.84731C18.1241 5.69803 17.9986 5.55554 17.8357 5.54875C17.7136 5.53857 17.5609 5.54196 17.4897 5.65732C17.354 5.84052 17.4184 6.07462 17.4116 6.28157C17.4116 6.29514 17.415 6.31889 17.415 6.33246C17.415 6.47157 17.3981 6.60727 17.3743 6.74298C17.354 6.78369 17.3438 6.8278 17.3438 6.8753C17.2861 7.19421 17.1708 7.50973 17.0147 7.79811C16.9842 7.83883 16.9604 7.88293 16.9502 7.93043C16.8485 8.10685 16.7263 8.2697 16.6008 8.43255C16.5804 8.44951 16.5635 8.46987 16.5465 8.49023C16.4583 8.59879 16.3633 8.6904 16.2649 8.78539C16.2412 8.79896 16.2242 8.81593 16.2038 8.8295C16.0885 8.94146 15.9596 9.04663 15.8205 9.13145C15.8035 9.14163 15.7865 9.1552 15.7662 9.16877C14.8977 9.74213 13.8425 9.97962 12.8145 9.9898C11.9426 10.0169 11.0639 9.83034 10.2768 9.45375C10.2632 9.44697 10.2293 9.4334 10.2157 9.42661C10.0834 9.35537 9.94769 9.2943 9.82556 9.20609C9.79841 9.19252 9.77127 9.17555 9.74074 9.16198C9.61521 9.08734 9.49646 9.00592 9.3845 8.91092C9.34718 8.87699 9.30647 8.84985 9.26576 8.81932C9.14362 8.72093 9.01809 8.61576 8.91292 8.49701C8.88578 8.46648 8.85863 8.43934 8.83149 8.41219C8.46169 8.02882 8.17331 7.56062 8.02064 7.05172C7.87475 6.64799 7.89511 6.20693 7.87814 5.78285C7.75601 5.59625 7.49816 5.49107 7.2946 5.60643C7.20978 5.66749 7.1996 5.77945 7.13514 5.85749C7.02997 6.97708 7.50834 8.09328 8.2717 8.90074C8.2717 8.92789 8.28527 8.94485 8.30902 8.95503C8.44472 9.08056 8.57704 9.20948 8.71275 9.33162C8.7365 9.35537 8.76364 9.37911 8.79417 9.39947C8.92988 9.51143 9.07577 9.61321 9.21826 9.71839C9.2454 9.73874 9.27255 9.7557 9.30308 9.77267C9.48968 9.88123 9.6661 10.0102 9.86627 10.0848C9.87984 10.095 9.90359 10.1119 9.91716 10.1187C10.5618 10.4275 11.2573 10.6378 11.9697 10.7057C12.0478 10.7057 12.1258 10.7124 12.2038 10.7294C12.5431 10.7498 12.8824 10.7396 13.2217 10.7328C14.27 10.6412 15.3523 10.3867 16.2276 9.76928L16.2378 9.78285C16.2649 9.7591 16.2887 9.73874 16.3158 9.71839C16.4549 9.6166 16.5906 9.50804 16.7263 9.39608C16.7569 9.37233 16.7908 9.34519 16.8213 9.31465C16.9706 9.1518 17.1436 9.00252 17.2692 8.81593L17.2895 8.8261C17.2997 8.80914 17.3167 8.77521 17.3268 8.75825C17.4422 8.60218 17.5474 8.43934 17.6491 8.27649C17.6559 8.26631 17.6729 8.24934 17.6797 8.23917L17.6661 8.22559C17.6763 8.21202 17.7 8.18488 17.7102 8.17131C17.8968 7.79133 18.063 7.39438 18.1207 6.97369C18.1445 6.96351 18.158 6.94315 18.158 6.9194C18.1614 6.78369 18.2089 6.65477 18.1954 6.51906C18.2259 6.35282 18.2293 6.18319 18.2225 6.01355Z" fill="white"/>
</mask>
<g mask="url(#mask0_21_1056)">
<path d="M6.87466 5.89929C7.14981 5.98546 7.78153 5.76867 7.96033 5.96714M7.03276 6.73593C7.29638 6.64432 7.8616 6.42719 8.0957 6.5551M7.30418 7.57291C7.43175 7.6143 7.68281 7.39038 7.80732 7.3249C7.9929 7.22719 8.18323 7.15255 8.38985 7.12066M7.71131 8.45501C7.8426 8.26841 8.00002 8.11303 8.18968 7.98071C8.37797 7.84941 8.89265 7.49793 9.11351 7.61837M8.09604 9.08843C8.24532 8.97002 8.30605 8.76002 8.46245 8.6355C8.65176 8.48487 8.94218 8.45773 9.13624 8.36477M8.73488 9.55764C8.77967 9.22957 9.11249 8.83398 9.43039 8.86214M9.22683 10.0157C9.39477 9.99869 9.53692 9.62278 9.65058 9.49555C9.82089 9.30488 9.99697 9.24585 10.2222 9.17868M10.1995 10.4228C10.1887 10.1853 10.434 9.50505 10.7196 9.54068M10.9232 10.6491C10.9113 10.3685 11.0562 9.52473 11.3982 9.49555M11.6696 11.1013C11.6048 10.7091 11.6088 10.1415 11.9183 9.85722M12.5968 11.1919C12.5622 10.8649 12.2375 10.204 12.5968 9.9478M13.5922 10.9656C13.4372 10.7858 13.3469 10.0764 13.4114 9.87995M14.5422 10.8072C14.4224 10.59 14.2742 10.3858 14.229 10.1337C14.2019 9.98309 14.2494 9.76833 14.2256 9.65365M15.3337 10.4679C15.0742 10.2983 15.0022 9.67435 15.085 9.40497M16.1028 10.1286C15.9183 9.7327 15.7215 9.42566 15.7184 8.97511M16.8492 9.40497C16.5625 9.21192 16.1965 8.86146 16.2385 8.47774M17.6407 8.79428C17.2051 8.69759 16.682 8.30777 16.4194 7.9573M18.0027 8.04789C17.6882 7.98037 16.6497 7.57528 16.7135 7.16578M18.342 7.25637C17.904 7.09589 17.2669 6.95136 16.9171 6.64568M18.568 6.53237C18.2921 6.55611 17.8969 6.42244 17.6163 6.37393C17.3049 6.32032 17.0161 6.21515 16.7132 6.14763M18.2965 5.83143C17.7646 5.86332 17.2652 5.68114 16.781 5.51489" stroke="#D1D1D1" stroke-width="0.0678541"/>
</g>
</g>
<defs>
<linearGradient id="paint0_linear_21_1056" x1="12.6721" y1="4.82812" x2="12.6721" y2="24.7692" gradientUnits="userSpaceOnUse">
<stop stop-color="#F7E830"/>
<stop offset="1" stop-color="#FDCB06"/>
</linearGradient>
<radialGradient id="paint1_radial_21_1056" cx="0" cy="0" r="1" gradientUnits="userSpaceOnUse" gradientTransform="translate(12.5681 13.9231) scale(16.2198)">
<stop offset="0.596" stop-color="#F29405"/>
<stop offset="0.736" stop-color="#F7D01E"/>
<stop offset="1" stop-color="#FDCB06"/>
</radialGradient>
<linearGradient id="paint2_linear_21_1056" x1="18.2208" y1="5.54776" x2="18.2265" y2="6.49206" gradientUnits="userSpaceOnUse">
<stop stop-color="#FADA1C"/>
<stop offset="1" stop-color="#FDCB06"/>
</linearGradient>
<linearGradient id="paint3_linear_21_1056" x1="7.11365" y1="5.50247" x2="7.10798" y2="6.44676" gradientUnits="userSpaceOnUse">
<stop stop-color="#FADA1C"/>
<stop offset="1" stop-color="#FDCB06"/>
</linearGradient>
<clipPath id="clip0_21_1056">
<rect width="24.2032" height="24" fill="white" transform="translate(0.572906 0.770813)"/>
</clipPath>
</defs>
</svg>
