<svg width="32" height="33" viewBox="0 0 32 33" fill="none" xmlns="http://www.w3.org/2000/svg">
<path d="M13.3333 12.2C13.3333 11.6726 13.4897 11.157 13.7827 10.7185C14.0758 10.28 14.4922 9.93817 14.9795 9.73633C15.4668 9.5345 16.003 9.48169 16.5202 9.58459C17.0375 9.68748 17.5127 9.94146 17.8856 10.3144C18.2586 10.6873 18.5125 11.1625 18.6154 11.6798C18.7183 12.1971 18.6655 12.7332 18.4637 13.2205C18.2618 13.7078 17.9201 14.1242 17.4815 14.4173C17.043 14.7103 16.5274 14.8667 16 14.8667V16.2M16 20.2H16.0133M19 25.5333L17.0667 28.1111C16.5333 28.8222 15.4667 28.8222 14.9333 28.1111L13 25.5333H9.33333C6.38781 25.5333 4 23.1455 4 20.2V9.53335C4 6.58783 6.38781 4.20001 9.33333 4.20001H22.6667C25.6122 4.20001 28 6.58783 28 9.53335V20.2C28 23.1455 25.6122 25.5333 22.6667 25.5333H19Z" stroke="#121212" stroke-opacity="0.7" stroke-width="2.55" stroke-linecap="round"/>
</svg>
