<svg width="32" height="33" viewBox="0 0 32 33" fill="none" xmlns="http://www.w3.org/2000/svg">
<path d="M22.7437 20.8946C23.3674 20.4687 24.099 20.228 24.8538 20.2005C25.6086 20.173 26.3557 20.3598 27.0088 20.7392C27.6619 21.1186 28.1942 21.6751 28.5441 22.3444C28.8941 23.0138 29.0474 23.7685 28.9864 24.5213C27.3866 25.0804 25.6874 25.298 23.9984 25.16C23.9932 23.6488 23.558 22.169 22.7437 20.896C22.0209 19.7623 21.0238 18.8293 19.8448 18.1833C18.6657 17.5373 17.3428 17.199 15.9984 17.2C14.6541 17.1993 13.3315 17.5376 12.1527 18.1836C10.9739 18.8296 9.97702 19.7625 9.25435 20.896M23.997 25.1586L23.9984 25.2C23.9984 25.5 23.9824 25.796 23.949 26.088C21.5295 27.4761 18.7878 28.2044 15.9984 28.2C13.105 28.2 10.389 27.432 8.04769 26.088C8.01341 25.7794 7.99693 25.4691 7.99835 25.1586M7.99835 25.1586C6.30986 25.3016 4.61156 25.0849 3.01302 24.5226C2.95215 23.77 3.10555 23.0156 3.45546 22.3465C3.80537 21.6774 4.33751 21.121 4.99036 20.7417C5.6432 20.3623 6.39008 20.1755 7.14464 20.2028C7.89921 20.2301 8.63063 20.4704 9.25435 20.896M7.99835 25.1586C8.00314 23.6476 8.44052 22.1691 9.25435 20.896M19.9984 9.19995C19.9984 10.2608 19.5769 11.2782 18.8268 12.0284C18.0766 12.7785 17.0592 13.2 15.9984 13.2C14.9375 13.2 13.9201 12.7785 13.1699 12.0284C12.4198 11.2782 11.9984 10.2608 11.9984 9.19995C11.9984 8.13909 12.4198 7.12167 13.1699 6.37152C13.9201 5.62138 14.9375 5.19995 15.9984 5.19995C17.0592 5.19995 18.0766 5.62138 18.8268 6.37152C19.5769 7.12167 19.9984 8.13909 19.9984 9.19995ZM27.9984 13.2C27.9984 13.5939 27.9208 13.984 27.77 14.348C27.6192 14.712 27.3982 15.0427 27.1197 15.3213C26.8411 15.5998 26.5104 15.8208 26.1464 15.9716C25.7824 16.1224 25.3923 16.2 24.9984 16.2C24.6044 16.2 24.2143 16.1224 23.8503 15.9716C23.4863 15.8208 23.1556 15.5998 22.877 15.3213C22.5985 15.0427 22.3775 14.712 22.2267 14.348C22.0759 13.984 21.9984 13.5939 21.9984 13.2C21.9984 12.4043 22.3144 11.6412 22.877 11.0786C23.4396 10.516 24.2027 10.2 24.9984 10.2C25.794 10.2 26.5571 10.516 27.1197 11.0786C27.6823 11.6412 27.9984 12.4043 27.9984 13.2ZM9.99835 13.2C9.99835 13.5939 9.92076 13.984 9.76999 14.348C9.61923 14.712 9.39825 15.0427 9.11967 15.3213C8.8411 15.5998 8.51038 15.8208 8.1464 15.9716C7.78243 16.1224 7.39232 16.2 6.99835 16.2C6.60439 16.2 6.21428 16.1224 5.8503 15.9716C5.48633 15.8208 5.15561 15.5998 4.87703 15.3213C4.59846 15.0427 4.37748 14.712 4.22671 14.348C4.07595 13.984 3.99835 13.5939 3.99835 13.2C3.99835 12.4043 4.31442 11.6412 4.87703 11.0786C5.43964 10.516 6.2027 10.2 6.99835 10.2C7.794 10.2 8.55706 10.516 9.11967 11.0786C9.68228 11.6412 9.99835 12.4043 9.99835 13.2Z" stroke="#595959" stroke-width="2" stroke-linecap="round" stroke-linejoin="round"/>
</svg>
