<svg width="32" height="33" viewBox="0 0 32 33" fill="none" xmlns="http://www.w3.org/2000/svg">
<path d="M27.347 25.8076V14.8262C27.347 13.9143 26.9571 13.0459 26.2755 12.4401L17.234 4.40319C16.6292 3.8656 15.7178 3.8656 15.113 4.40319L6.0715 12.4401C5.38995 13.0459 5 13.9143 5 14.8262V25.8076C5 27.5707 6.4293 29 8.19243 29H12.9811V22.6151C12.9811 21.7336 13.6957 21.0189 14.5773 21.0189H17.7697C18.6513 21.0189 19.3659 21.7336 19.3659 22.6151V29H24.1546C25.9177 29 27.347 27.5707 27.347 25.8076Z" fill="#39AC73"/>
<path d="M8.19243 29C6.4293 29 5 27.5707 5 25.8076V14.8262C5 13.9143 5.38995 13.0459 6.0715 12.4401L15.113 4.40319C15.7178 3.8656 16.6292 3.8656 17.234 4.40319L26.2755 12.4401C26.9571 13.0459 27.347 13.9143 27.347 14.8262V25.8076C27.347 27.5707 25.9177 29 24.1546 29M8.19243 29H24.1546M8.19243 29H12.9811M24.1546 29H19.3659M12.9811 29V22.6151C12.9811 21.7336 13.6957 21.0189 14.5773 21.0189H17.7697C18.6513 21.0189 19.3659 21.7336 19.3659 22.6151V29M12.9811 29H19.3659" stroke="#39AC73" stroke-width="0.5" stroke-linecap="round" stroke-linejoin="round"/>
</svg>
