<svg width="27" height="27" viewBox="0 0 27 27" fill="none" xmlns="http://www.w3.org/2000/svg">
<path d="M21.4313 5.52382C20.3999 4.48198 19.1714 3.65594 17.8174 3.09387C16.4634 2.53181 15.011 2.24496 13.545 2.25007C7.40252 2.25007 2.39627 7.25632 2.39627 13.3988C2.39627 15.3676 2.91377 17.2801 3.88127 18.9676L2.30627 24.7501L8.21252 23.1976C9.84377 24.0863 11.6775 24.5588 13.545 24.5588C19.6875 24.5588 24.6938 19.5526 24.6938 13.4101C24.6938 10.4288 23.535 7.62757 21.4313 5.52382ZM13.545 22.6688C11.88 22.6688 10.2488 22.2188 8.82002 21.3751L8.48252 21.1726L4.97252 22.0951L5.90627 18.6751L5.68127 18.3263C4.75624 16.8492 4.26506 15.1417 4.26377 13.3988C4.26377 8.29132 8.42627 4.12882 13.5338 4.12882C16.0088 4.12882 18.3375 5.09632 20.0813 6.85132C20.9447 7.71078 21.6289 8.73306 22.0943 9.85892C22.5597 10.9848 22.7971 12.1918 22.7925 13.4101C22.815 18.5176 18.6525 22.6688 13.545 22.6688ZM18.63 15.7388C18.3488 15.6038 16.9763 14.9288 16.7288 14.8276C16.47 14.7376 16.29 14.6926 16.0988 14.9626C15.9075 15.2438 15.3788 15.8738 15.2213 16.0538C15.0638 16.2451 14.895 16.2676 14.6138 16.1213C14.3325 15.9863 13.4325 15.6826 12.375 14.7376C11.5425 13.9951 10.9913 13.0838 10.8225 12.8026C10.665 12.5213 10.8 12.3751 10.9463 12.2288C11.07 12.1051 11.2275 11.9026 11.3625 11.7451C11.4975 11.5876 11.5538 11.4638 11.6438 11.2838C11.7338 11.0926 11.6888 10.9351 11.6213 10.8001C11.5538 10.6651 10.9913 9.29257 10.7663 8.73007C10.5413 8.19007 10.305 8.25757 10.1363 8.24632H9.59627C9.40502 8.24632 9.11252 8.31382 8.85377 8.59507C8.60627 8.87632 7.88627 9.55132 7.88627 10.9238C7.88627 12.2963 8.88752 13.6238 9.02252 13.8038C9.15752 13.9951 10.9913 16.8076 13.7813 18.0113C14.445 18.3038 14.9625 18.4726 15.3675 18.5963C16.0313 18.8101 16.6388 18.7763 17.1225 18.7088C17.6625 18.6301 18.7763 18.0338 19.0013 17.3813C19.2375 16.7288 19.2375 16.1776 19.1588 16.0538C19.08 15.9301 18.9113 15.8738 18.63 15.7388Z" fill="#39AC73"/>
</svg>
