<svg width="48" height="48" viewBox="0 0 48 48" fill="none" xmlns="http://www.w3.org/2000/svg">
<circle cx="24" cy="24" r="24" fill="white"/>
<path fill-rule="evenodd" clip-rule="evenodd" d="M19.5 12H28.5C32.6415 12 36 15.3585 36 19.5V28.5C36 32.6415 32.6415 36 28.5 36H19.5C15.3585 36 12 32.6415 12 28.5V19.5C12 15.3585 15.3585 12 19.5 12ZM28.5 33.75C31.395 33.75 33.75 31.395 33.75 28.5V19.5C33.75 16.605 31.395 14.25 28.5 14.25H19.5C16.605 14.25 14.25 16.605 14.25 19.5V28.5C14.25 31.395 16.605 33.75 19.5 33.75H28.5ZM18 24C18 20.6865 20.6865 18 24 18C27.3135 18 30 20.6865 30 24C30 27.3135 27.3135 30 24 30C20.6865 30 18 27.3135 18 24ZM20.25 24C20.25 26.067 21.933 27.75 24 27.75C26.067 27.75 27.75 26.067 27.75 24C27.75 21.9315 26.067 20.25 24 20.25C21.933 20.25 20.25 21.9315 20.25 24ZM30.5 19C31.3284 19 32 18.3284 32 17.5C32 16.6716 31.3284 16 30.5 16C29.6716 16 29 16.6716 29 17.5C29 18.3284 29.6716 19 30.5 19Z" fill="#39AC73"/>
</svg>
