<svg width="24" height="24" viewBox="0 0 24 24" fill="none" xmlns="http://www.w3.org/2000/svg">
<path fill-rule="evenodd" clip-rule="evenodd" d="M7.5 0H16.5C20.6415 0 24 3.3585 24 7.5V16.5C24 20.6415 20.6415 24 16.5 24H7.5C3.3585 24 0 20.6415 0 16.5V7.5C0 3.3585 3.3585 0 7.5 0ZM16.5 21.75C19.395 21.75 21.75 19.395 21.75 16.5V7.5C21.75 4.605 19.395 2.25 16.5 2.25H7.5C4.605 2.25 2.25 4.605 2.25 7.5V16.5C2.25 19.395 4.605 21.75 7.5 21.75H16.5ZM6 12C6 8.6865 8.6865 6 12 6C15.3135 6 18 8.6865 18 12C18 15.3135 15.3135 18 12 18C8.6865 18 6 15.3135 6 12ZM8.25 12C8.25 14.067 9.933 15.75 12 15.75C14.067 15.75 15.75 14.067 15.75 12C15.75 9.9315 14.067 8.25 12 8.25C9.933 8.25 8.25 9.9315 8.25 12ZM18.5 7C19.3284 7 20 6.32843 20 5.5C20 4.67157 19.3284 4 18.5 4C17.6716 4 17 4.67157 17 5.5C17 6.32843 17.6716 7 18.5 7Z" fill="#39AC73"/>
</svg>
