<svg width="69" height="69" viewBox="0 0 69 69" fill="none" xmlns="http://www.w3.org/2000/svg">
<g clip-path="url(#clip0_10_693)">
<path d="M2.27603 33.6429C2.27444 39.3647 3.76949 44.9516 6.61231 49.876L2.00415 66.7011L19.2226 62.1864C23.985 64.779 29.3209 66.1375 34.7432 66.1379H34.7575C52.6577 66.1379 67.229 51.5719 67.2366 33.6685C67.24 24.9931 63.8646 16.8352 57.7318 10.6977C51.6001 4.56068 43.4451 1.17913 34.7562 1.17517C16.8538 1.17517 2.28342 15.7403 2.27603 33.6429Z" fill="url(#paint0_linear_10_693)"/>
<path d="M1.11642 33.6323C1.11457 39.56 2.66321 45.3467 5.60738 50.4474L0.833984 67.8757L18.6698 63.1992C23.5842 65.8786 29.1172 67.2913 34.7474 67.2934H34.7619C53.3044 67.2934 68.399 52.2035 68.4069 33.6593C68.4101 24.672 64.9132 16.2209 58.5614 9.86354C52.2087 3.50693 43.7621 0.0036954 34.7619 0C16.2163 0 1.12381 15.0878 1.11642 33.6323ZM11.7383 49.569L11.0723 48.5118C8.27282 44.0605 6.79519 38.9165 6.7973 33.6344C6.8031 18.2207 19.3474 5.68035 34.7725 5.68035C42.2425 5.68352 49.2627 8.59549 54.5429 13.8789C59.8228 19.1627 62.7282 26.1866 62.7263 33.6571C62.7195 49.0709 50.1749 61.6128 34.7619 61.6128H34.7509C29.7322 61.6102 24.8102 60.2624 20.5178 57.7155L19.4963 57.1097L8.91212 59.8847L11.7383 49.569Z" fill="white"/>
<path d="M26.3528 19.5719C25.723 18.1721 25.0602 18.1439 24.4613 18.1194C23.9709 18.0982 23.4102 18.0998 22.8501 18.0998C22.2895 18.0998 21.3786 18.3107 20.6086 19.1514C19.8379 19.9929 17.666 22.0264 17.666 26.1624C17.666 30.2986 20.6786 34.2957 21.0985 34.8571C21.519 35.4175 26.9143 44.1766 35.4591 47.5463C42.5606 50.3466 44.0057 49.7897 45.547 49.6493C47.0885 49.5094 50.521 47.6163 51.2213 45.6532C51.9221 43.6904 51.9221 42.008 51.712 41.6564C51.5019 41.3061 50.9412 41.0957 50.1005 40.6755C49.2595 40.255 45.1265 38.2213 44.356 37.9407C43.5853 37.6603 43.0249 37.5204 42.4642 38.3622C41.9036 39.2026 40.2937 41.0957 39.803 41.6564C39.3129 42.2184 38.8222 42.2883 37.9817 41.8678C37.1405 41.446 34.4331 40.5594 31.221 37.6957C28.7218 35.4674 27.0346 32.7156 26.5442 31.8739C26.0538 31.0334 26.4917 30.5779 26.9132 30.159C27.2909 29.7823 27.7542 29.1773 28.1749 28.6866C28.5941 28.1956 28.734 27.8454 29.0143 27.2847C29.2949 26.7236 29.1545 26.2326 28.9446 25.8121C28.734 25.3916 27.1004 21.234 26.3528 19.5719Z" fill="white"/>
</g>
<defs>
<linearGradient id="paint0_linear_10_693" x1="3263.63" y1="6553.77" x2="3263.63" y2="1.17517" gradientUnits="userSpaceOnUse">
<stop stop-color="#1FAF38"/>
<stop offset="1" stop-color="#60D669"/>
</linearGradient>
<clipPath id="clip0_10_693">
<rect x="0.833984" width="67.573" height="68.1009" rx="33.7865" fill="white"/>
</clipPath>
</defs>
</svg>
