<svg width="69" height="69" viewBox="0 0 69 69" fill="none" xmlns="http://www.w3.org/2000/svg">
<g clip-path="url(#clip0_10_690)">
<path d="M68.3144 34.0504C68.3144 15.245 53.0694 0 34.2639 0C15.4585 0 0.213501 15.245 0.213501 34.0504C0.213501 51.0459 12.6653 65.1329 28.9436 67.6872V43.8931H20.2979V34.0504H28.9436V26.5487C28.9436 18.0148 34.0272 13.301 41.805 13.301C45.5304 13.301 49.427 13.966 49.427 13.966V22.3456H45.1335C40.9035 22.3456 39.5843 24.9704 39.5843 27.6633V34.0504H49.028L47.5183 43.8931H39.5843V67.6872C55.8626 65.1329 68.3144 51.0461 68.3144 34.0504Z" fill="#1877F2"/>
<path d="M47.5184 43.8932L49.028 34.0504H39.5844V27.6633C39.5844 24.9702 40.9035 22.3456 45.1335 22.3456H49.4271V13.966C49.4271 13.966 45.5304 13.301 41.8048 13.301C34.0272 13.301 28.9436 18.0148 28.9436 26.5487V34.0504H20.298V43.8932H28.9436V67.6872C30.7036 67.963 32.4825 68.1013 34.264 68.1009C36.0455 68.1014 37.8243 67.9631 39.5844 67.6872V43.8932H47.5184Z" fill="white"/>
</g>
<defs>
<clipPath id="clip0_10_690">
<rect width="68.1009" height="68.1009" fill="white" transform="translate(0.213501)"/>
</clipPath>
</defs>
</svg>
