<svg width="35" height="28" viewBox="0 0 35 28" fill="none" xmlns="http://www.w3.org/2000/svg">
<path fill-rule="evenodd" clip-rule="evenodd" d="M17.7228 24.319C17.7086 24.3218 17.6948 24.3259 17.6814 24.3314C17.6958 24.3297 17.7098 24.3255 17.7228 24.319ZM17.5905 24.352C17.5616 24.3562 17.5244 24.3644 17.4996 24.3686C17.5244 24.3644 17.5575 24.3562 17.5905 24.352ZM17.4253 24.3727C17.4006 24.376 17.3757 24.3774 17.3509 24.3768C17.3756 24.3815 17.4012 24.3801 17.4253 24.3727Z" fill="#F37320"/>
<path fill-rule="evenodd" clip-rule="evenodd" d="M17.4914 24.3644C17.4666 24.3644 17.4418 24.3685 17.4253 24.3685C17.4474 24.369 17.4695 24.3676 17.4914 24.3644ZM16.8881 24.3438C16.8491 24.3375 16.8105 24.3292 16.7724 24.319C16.8096 24.3231 16.8468 24.3355 16.8881 24.3438ZM17.2104 24.3809C17.1075 24.3788 17.0051 24.3663 16.9046 24.3438C17.0046 24.3686 17.1073 24.3811 17.2104 24.3809ZM17.3467 24.3768C17.3178 24.3768 17.2806 24.3809 17.2434 24.3809C17.2779 24.3818 17.3124 24.3804 17.3467 24.3768ZM23.9373 7.20842H23.9331C23.8751 7.18648 23.8133 7.17664 23.7513 7.1795C23.8333 7.18638 23.9139 7.20445 23.991 7.23322C23.9723 7.22667 23.9543 7.21837 23.9373 7.20842Z" fill="#F15E22"/>
<path fill-rule="evenodd" clip-rule="evenodd" d="M23.5241 7.20841H23.5199C23.5007 7.21985 23.4798 7.22821 23.4579 7.2332C23.5536 7.19999 23.6542 7.18322 23.7554 7.18362C23.6775 7.17222 23.5979 7.18075 23.5241 7.20841Z" fill="#EC008B"/>
<path fill-rule="evenodd" clip-rule="evenodd" d="M25.8834 7.87368C25.8239 7.85203 25.7607 7.8422 25.6974 7.84476C25.78 7.84762 25.8612 7.86584 25.9371 7.89847C25.9201 7.88836 25.9021 7.88005 25.8834 7.87368Z" fill="#F15E22"/>
<path fill-rule="evenodd" clip-rule="evenodd" d="M25.4661 7.86955C25.4461 7.88334 25.4237 7.89316 25.4 7.89848C25.4935 7.86215 25.5931 7.84392 25.6934 7.84476C25.6167 7.83614 25.5391 7.84461 25.4661 7.86955Z" fill="#EC008B"/>
<path fill-rule="evenodd" clip-rule="evenodd" d="M25.966 7.91498C25.9063 7.89461 25.8431 7.88619 25.7801 7.89019C25.8623 7.8919 25.9436 7.90871 26.0197 7.93977C25.9991 7.93151 25.9867 7.92324 25.966 7.91498Z" fill="#F15E22"/>
<path fill-rule="evenodd" clip-rule="evenodd" d="M25.5529 7.9109C25.5323 7.92329 25.5116 7.92743 25.4868 7.93982C25.5802 7.90315 25.6798 7.8849 25.7802 7.88611C25.7036 7.88111 25.6267 7.8895 25.5529 7.9109Z" fill="#EC008B"/>
<path fill-rule="evenodd" clip-rule="evenodd" d="M10.4009 3.75823H10.405C10.4215 3.7541 10.4463 3.74583 10.467 3.7417C8.8266 3.98962 5.19046 9.8405 3.23603 15.2079C1.15764 20.9225 1.65761 23.6785 3.28974 24.2776H3.29388C4.92601 24.8685 7.07877 23.0794 9.16129 17.3607C9.72324 15.8195 10.2025 14.1502 10.5827 12.5304C9.57036 8.17532 9.34723 4.1549 10.4009 3.75823Z" fill="#F13AB1"/>
<path fill-rule="evenodd" clip-rule="evenodd" d="M16.6444 24.2777C15.004 23.6744 14.5123 20.9142 16.5906 15.208C16.7972 14.6419 17.0162 14.0675 17.26 13.5015C15.1238 8.39846 11.8306 3.45248 10.467 3.73759C10.5655 3.72413 10.6656 3.7326 10.7604 3.76238H10.7645V3.76651C11.8207 4.15905 11.5951 8.17534 10.5811 12.5346C10.9542 14.1713 11.4289 15.7831 12.0025 17.3607C13.6429 21.8646 15.3287 23.9265 16.7667 24.3107C16.7246 24.3026 16.6832 24.2915 16.6427 24.2777" fill="#FD913C"/>
<path fill-rule="evenodd" clip-rule="evenodd" d="M10.7604 3.76648H10.7562C10.6656 3.73727 10.5696 3.7288 10.4753 3.74169C10.4463 3.74582 10.4339 3.75409 10.4091 3.75822H10.405C9.35136 4.15489 9.57449 8.17531 10.5827 12.5304C11.5868 8.17531 11.814 4.16315 10.7604 3.76648Z" fill="#F05524"/>
<path fill-rule="evenodd" clip-rule="evenodd" d="M23.6356 3.78717C22.1068 4.34086 19.2144 8.86124 17.2641 13.4973C17.5038 14.0634 17.7269 14.6378 17.9335 15.2038C20.0119 20.9142 19.516 23.6744 17.8798 24.2694V24.2735C17.8302 24.2859 17.7765 24.3025 17.7351 24.3149C19.1772 23.943 20.8796 21.8853 22.5159 17.3566C23.0757 15.8209 23.5394 14.2519 23.9042 12.6585C22.8919 8.34061 22.6357 4.31193 23.6356 3.78717Z" fill="#FD913C"/>
<path fill-rule="evenodd" clip-rule="evenodd" d="M17.8716 24.2735H17.8757C19.5078 23.6785 20.0037 20.9101 17.9294 15.2038C17.7145 14.6377 17.4955 14.0634 17.2518 13.4973C17.0121 14.0634 16.789 14.6377 16.5824 15.2038C14.504 20.9142 15.004 23.6785 16.6361 24.2735C16.6774 24.29 16.7229 24.2983 16.7642 24.3107C16.8017 24.3242 16.8404 24.3339 16.8799 24.3396H16.8964C16.9982 24.363 17.1019 24.3768 17.2063 24.381H17.3385C17.3637 24.3792 17.3886 24.375 17.4129 24.3686C17.4418 24.3686 17.4625 24.3644 17.4914 24.3644C17.5203 24.3644 17.5451 24.352 17.5782 24.3479C17.6118 24.3468 17.6452 24.3412 17.6773 24.3314C17.6939 24.3314 17.7063 24.3272 17.7187 24.3272C17.7724 24.3066 17.822 24.2942 17.8716 24.2735Z" fill="#F05524"/>
<path fill-rule="evenodd" clip-rule="evenodd" d="M24.1562 3.78302C25.1686 4.28712 24.9165 8.31994 23.9001 12.6668C24.2662 14.2566 24.7284 15.8227 25.2843 17.3566C27.3668 23.0711 29.5195 24.8644 31.1599 24.2735H31.1641C32.7921 23.6702 33.292 20.9184 31.2137 15.2038C29.3253 10.0182 25.8694 4.38629 24.1562 3.78302Z" fill="#F13AB1"/>
<path fill-rule="evenodd" clip-rule="evenodd" d="M24.1563 3.78302C24.079 3.75492 23.9985 3.73686 23.9166 3.72931C23.8161 3.73405 23.7171 3.75498 23.6232 3.79129C22.6316 4.31605 22.8795 8.33647 23.896 12.6668C24.9207 8.32407 25.1686 4.29126 24.1563 3.78302Z" fill="#F05524"/>
</svg>
