<svg width="32" height="33" viewBox="0 0 32 33" fill="none" xmlns="http://www.w3.org/2000/svg">
<path d="M15.5893 5.76404L7.43331 10.484L16 15.436L24.5666 10.484L16.4106 5.76404C16.2738 5.67871 16.1369 5.63604 16 5.63604C15.8631 5.63604 15.7262 5.67871 15.5893 5.76404ZM5.33331 21.0134V11.3867C5.33331 11.0009 5.42754 10.644 5.61598 10.316C5.80442 9.98804 6.06931 9.7236 6.41065 9.52271L14.9226 4.61737C15.1111 4.50626 15.2889 4.43071 15.456 4.39071C15.6231 4.35071 15.8044 4.32937 16 4.32671C16.1955 4.32404 16.3822 4.34449 16.56 4.38804C16.7378 4.4316 16.9106 4.5076 17.0786 4.61604L25.5906 9.52271C25.932 9.72271 26.1969 9.98671 26.3853 10.3147C26.5738 10.6427 26.6675 11 26.6666 11.3867V15.328C26.6666 15.5174 26.6026 15.6756 26.4746 15.8027C26.3466 15.9307 26.188 15.9947 25.9986 15.9947C25.8102 15.9947 25.652 15.9307 25.524 15.8027C25.396 15.6747 25.3324 15.5165 25.3333 15.328V11.564L17.044 16.3507C16.7018 16.5445 16.3413 16.6414 15.9626 16.6414C15.584 16.6414 15.2262 16.5445 14.8893 16.3507L6.66665 11.564V21.004C6.66665 21.1418 6.70087 21.2707 6.76931 21.3907C6.83776 21.5107 6.93998 21.6129 7.07598 21.6974L15.1533 26.4C15.2538 26.456 15.3346 26.5338 15.396 26.6334C15.4573 26.7329 15.4875 26.844 15.4866 26.9667C15.4866 27.2227 15.38 27.4103 15.1666 27.5294C14.9533 27.6485 14.7355 27.6454 14.5133 27.52L6.41065 22.8774C6.06931 22.6765 5.80442 22.412 5.61598 22.084C5.42754 21.756 5.33331 21.3992 5.33331 21.0134ZM24 30.5334C22.5146 30.5334 21.2542 30.016 20.2186 28.9814C19.1831 27.9467 18.6658 26.6863 18.6666 25.2C18.6675 23.7138 19.1849 22.4534 20.2186 21.4187C21.2524 20.384 22.5129 19.8667 24 19.8667C25.4871 19.8667 26.7475 20.384 27.7813 21.4187C28.8151 22.4534 29.3324 23.7138 29.3333 25.2C29.3342 26.6863 28.8169 27.9467 27.7813 28.9814C26.7458 30.016 25.4853 30.5334 24 30.5334ZM24.5133 25.072V21.944C24.5133 21.8072 24.4618 21.6872 24.3586 21.584C24.2555 21.4809 24.136 21.4298 24 21.4307C23.864 21.4316 23.744 21.4827 23.64 21.584C23.536 21.6854 23.4849 21.8054 23.4866 21.944V25.0534C23.4866 25.1903 23.5115 25.3223 23.5613 25.4494C23.6111 25.5765 23.6942 25.6987 23.8106 25.816L25.836 27.8414C25.9346 27.94 26.0515 27.9934 26.1866 28.0014C26.3218 28.0094 26.4475 27.956 26.564 27.8414C26.6804 27.7267 26.7382 27.6054 26.7373 27.4774C26.7364 27.3494 26.6786 27.228 26.564 27.1134L24.5133 25.072Z" fill="#121212" fill-opacity="0.7"/>
<path d="M24.5133 25.072V21.944C24.5133 21.8072 24.4618 21.6872 24.3586 21.584C24.2555 21.4809 24.136 21.4298 24 21.4307C23.864 21.4316 23.744 21.4827 23.64 21.584C23.536 21.6854 23.4849 21.8054 23.4866 21.944V25.0534C23.4866 25.1903 23.5115 25.3223 23.5613 25.4494C23.6111 25.5765 23.6942 25.6987 23.8106 25.816L25.836 27.8414C25.9346 27.94 26.0515 27.9934 26.1866 28.0014C26.3218 28.0094 26.4475 27.956 26.564 27.8414C26.6804 27.7267 26.7382 27.6054 26.7373 27.4774C26.7364 27.3494 26.6786 27.228 26.564 27.1134L24.5133 25.072Z" fill="white"/>
<path d="M6.31078 9.34942L6.31078 9.34942L14.8211 4.44509C14.8213 4.44493 14.8216 4.44476 14.8219 4.44459C15.0228 4.32626 15.2188 4.24183 15.4094 4.1962C15.5927 4.15233 15.7889 4.12957 15.9973 4.12673C16.2086 4.12384 16.4122 4.14593 16.6076 4.19379C16.8073 4.24272 16.9991 4.32728 17.1828 4.44522L25.6905 9.34943L25.6918 9.35014C26.0617 9.56691 26.3521 9.85548 26.5587 10.2151C26.765 10.5741 26.8675 10.9659 26.8666 11.3867C26.8666 11.3869 26.8666 11.387 26.8666 11.3872L26.6666 11.3867V15.328C26.6666 15.5174 26.6026 15.6756 26.4746 15.8027L6.31078 9.34942ZM6.31078 9.34942L6.3092 9.35034C5.93944 9.56797 5.64911 9.8569 5.44256 10.2164C5.23634 10.5753 5.13331 10.9667 5.13331 11.3867V21.0134C5.13331 21.4334 5.23634 21.8247 5.44256 22.1837C5.64911 22.5432 5.93944 22.8321 6.3092 23.0497L6.31122 23.0509L14.4139 27.6936L14.4151 27.6942C14.6947 27.852 14.9867 27.8589 15.2641 27.704C15.3984 27.629 15.5068 27.5278 15.5805 27.3982C15.6538 27.2694 15.6865 27.1234 15.6866 26.9675M6.31078 9.34942L6.86665 11.9119M25.1333 15.328C25.1333 15.3277 25.1333 15.3274 25.1333 15.3271L25.3333 15.328H25.1333V15.328ZM25.1333 15.328V11.9105L17.144 16.5239L17.1425 16.5247C16.7715 16.7349 16.3772 16.8414 15.9626 16.8414C15.548 16.8414 15.156 16.7348 14.7896 16.5241L14.7887 16.5236L6.86665 11.9119M25.1333 15.328L6.86665 11.9119M6.86665 11.9119V21.004C6.86665 21.107 6.89177 21.2017 6.94304 21.2916C6.9922 21.3778 7.06819 21.4567 7.17918 21.526L15.2524 26.2263C15.3824 26.2992 15.4876 26.4009 15.5663 26.5285C15.6482 26.6614 15.6877 26.8095 15.6866 26.9675M15.6866 26.9675C15.6866 26.9672 15.6866 26.967 15.6866 26.9667H15.4866L15.6866 26.9682C15.6866 26.9679 15.6866 26.9677 15.6866 26.9675ZM15.6895 5.93714L15.6895 5.93724L15.6951 5.93376C15.806 5.86464 15.9067 5.83604 16 5.83604C16.0932 5.83604 16.194 5.86464 16.3048 5.93376L16.3048 5.93386L16.3105 5.93714L24.1672 10.4839L16 15.205L7.83278 10.4839L15.6895 5.93714ZM20.0773 29.1229C21.151 30.1956 22.4625 30.7334 24 30.7334C25.5375 30.7334 26.849 30.1956 27.9227 29.1229C28.9964 28.05 29.5342 26.7383 29.5333 25.1999C29.5324 23.6617 28.9947 22.3502 27.9228 21.2773C26.8508 20.2044 25.5392 19.6667 24 19.6667C22.4608 19.6667 21.1492 20.2044 20.0772 21.2773C19.0053 22.3502 18.4676 23.6617 18.4666 25.1999C18.4657 26.7383 19.0035 28.05 20.0773 29.1229Z" stroke="#121212" stroke-opacity="0.7" stroke-width="0.4"/>
</svg>
