<svg width="158" height="35" viewBox="0 0 158 35" fill="none" xmlns="http://www.w3.org/2000/svg">
<path fill-rule="evenodd" clip-rule="evenodd" d="M16.127 27.0965C16.1137 27.0991 16.1007 27.103 16.0882 27.1081C16.1017 27.1066 16.1149 27.1027 16.127 27.0965ZM16.0029 27.1275C15.9757 27.1314 15.9408 27.1392 15.9176 27.143C15.9408 27.1392 15.9719 27.1314 16.0029 27.1275ZM15.8478 27.1469C15.8246 27.15 15.8013 27.1513 15.778 27.1508C15.8012 27.1552 15.8252 27.1539 15.8478 27.1469Z" fill="#F37320"/>
<path fill-rule="evenodd" clip-rule="evenodd" d="M15.9098 27.1391C15.8865 27.1391 15.8632 27.143 15.8477 27.143C15.8685 27.1434 15.8892 27.1421 15.9098 27.1391ZM15.3436 27.1197C15.307 27.1138 15.2708 27.1061 15.235 27.0965C15.2699 27.1004 15.3048 27.112 15.3436 27.1197ZM15.6461 27.1547C15.5495 27.1526 15.4533 27.1409 15.3591 27.1197C15.453 27.143 15.5493 27.1548 15.6461 27.1547ZM15.7741 27.1508C15.7469 27.1508 15.712 27.1547 15.6771 27.1547C15.7095 27.1555 15.7419 27.1542 15.7741 27.1508ZM21.9597 11.037H21.9558C21.9014 11.0164 21.8433 11.0072 21.7852 11.0099C21.8621 11.0163 21.9378 11.0333 22.0101 11.0603C21.9926 11.0541 21.9758 11.0463 21.9597 11.037Z" fill="#F15E22"/>
<path fill-rule="evenodd" clip-rule="evenodd" d="M21.5718 11.037H21.5679C21.5499 11.0477 21.5302 11.0556 21.5098 11.0602C21.5995 11.0291 21.694 11.0133 21.789 11.0137C21.7158 11.003 21.6411 11.011 21.5718 11.037Z" fill="#EC008B"/>
<path fill-rule="evenodd" clip-rule="evenodd" d="M23.7863 11.6614C23.7305 11.641 23.6712 11.6318 23.6118 11.6342C23.6893 11.6369 23.7656 11.654 23.8367 11.6846C23.8208 11.6751 23.8039 11.6673 23.7863 11.6614Z" fill="#F15E22"/>
<path fill-rule="evenodd" clip-rule="evenodd" d="M23.3946 11.6575C23.3758 11.6704 23.3547 11.6797 23.3325 11.6847C23.4203 11.6506 23.5137 11.6334 23.6079 11.6342C23.5359 11.6261 23.4631 11.6341 23.3946 11.6575Z" fill="#EC008B"/>
<path fill-rule="evenodd" clip-rule="evenodd" d="M23.8638 11.7001C23.8078 11.681 23.7485 11.6731 23.6893 11.6769C23.7665 11.6785 23.8428 11.6943 23.9143 11.7234C23.8949 11.7157 23.8832 11.7079 23.8638 11.7001Z" fill="#F15E22"/>
<path fill-rule="evenodd" clip-rule="evenodd" d="M23.4761 11.6963C23.4567 11.7079 23.4373 11.7118 23.4141 11.7234C23.5017 11.689 23.5952 11.6719 23.6894 11.673C23.6175 11.6683 23.5453 11.6762 23.4761 11.6963Z" fill="#EC008B"/>
<path fill-rule="evenodd" clip-rule="evenodd" d="M9.25477 7.79872H9.25865C9.27416 7.79484 9.29743 7.78708 9.31682 7.7832C7.77719 8.01589 4.3644 13.5074 2.53003 18.5451C0.579313 23.9086 1.04857 26.4954 2.58045 27.0577H2.58432C4.1162 27.6123 6.13672 25.933 8.09132 20.5656C8.61875 19.1191 9.06862 17.5523 9.42541 16.0321C8.47526 11.9445 8.26584 8.17102 9.25477 7.79872Z" fill="#F13AB1"/>
<path fill-rule="evenodd" clip-rule="evenodd" d="M15.1149 27.0577C13.5752 26.4915 13.1137 23.9009 15.0645 18.5451C15.2584 18.0138 15.4639 17.4748 15.6927 16.9435C13.6877 12.1539 10.5968 7.51175 9.31702 7.77935C9.40939 7.76672 9.50342 7.77466 9.59237 7.80262H9.59624V7.80649C10.5875 8.17492 10.3758 11.9445 9.42405 16.036C9.77426 17.5721 10.2198 19.0849 10.7581 20.5657C12.2978 24.7929 13.8801 26.7281 15.2297 27.0887C15.1902 27.0811 15.1513 27.0707 15.1133 27.0577" fill="#FD913C"/>
<path fill-rule="evenodd" clip-rule="evenodd" d="M9.59227 7.80647H9.58839C9.50334 7.77906 9.41321 7.7711 9.32467 7.7832C9.29753 7.78708 9.28589 7.79483 9.26262 7.79871H9.25874C8.26981 8.17102 8.47923 11.9445 9.4255 16.0321C10.3679 11.9445 10.5812 8.17877 9.59227 7.80647Z" fill="#F05524"/>
<path fill-rule="evenodd" clip-rule="evenodd" d="M21.6765 7.82587C20.2416 8.34554 17.5269 12.5883 15.6964 16.9396C15.9213 17.4709 16.1308 18.0099 16.3247 18.5412C18.2754 23.9009 17.81 26.4915 16.2743 27.0499V27.0538C16.2277 27.0654 16.1773 27.081 16.1385 27.0926C17.492 26.7436 19.0898 24.8122 20.6256 20.5618C21.151 19.1204 21.5862 17.6477 21.9286 16.1523C20.9785 12.0996 20.738 8.31839 21.6765 7.82587Z" fill="#FD913C"/>
<path fill-rule="evenodd" clip-rule="evenodd" d="M16.2666 27.0538H16.2705C17.8024 26.4954 18.2678 23.897 16.3209 18.5413C16.1193 18.0099 15.9137 17.4709 15.6849 16.9396C15.46 17.4709 15.2505 18.0099 15.0566 18.5413C13.1059 23.9009 13.5752 26.4954 15.1071 27.0538C15.1458 27.0693 15.1885 27.0771 15.2273 27.0887C15.2625 27.1014 15.2989 27.1105 15.3359 27.1159H15.3514C15.4469 27.1378 15.5443 27.1508 15.6422 27.1547H15.7663C15.7899 27.153 15.8133 27.1491 15.8362 27.143C15.8633 27.143 15.8827 27.1391 15.9098 27.1391C15.937 27.1391 15.9603 27.1275 15.9913 27.1236C16.0229 27.1226 16.0541 27.1174 16.0844 27.1081C16.0999 27.1081 16.1115 27.1042 16.1231 27.1042C16.1736 27.0849 16.2201 27.0732 16.2666 27.0538Z" fill="#F05524"/>
<path fill-rule="evenodd" clip-rule="evenodd" d="M22.1651 7.82202C23.1153 8.29516 22.8787 12.0802 21.9247 16.1601C22.2683 17.6522 22.7022 19.1222 23.2239 20.5618C25.1785 25.9253 27.199 27.6084 28.7386 27.0538H28.7425C30.2705 26.4876 30.7398 23.9048 28.789 18.5413C27.0167 13.6742 23.773 8.38823 22.1651 7.82202Z" fill="#F13AB1"/>
<path fill-rule="evenodd" clip-rule="evenodd" d="M22.1653 7.82196C22.0928 7.79558 22.0172 7.77864 21.9404 7.77155C21.8461 7.77599 21.7531 7.79563 21.665 7.82972C20.7343 8.32225 20.967 12.0957 21.921 16.16C22.8828 12.0841 23.1155 8.29898 22.1653 7.82196Z" fill="#F05524"/>
<path d="M71.0783 25.0831C61.0062 29.8766 54.7553 25.866 50.754 23.4301C50.5064 23.2765 50.0855 23.466 50.4506 23.8854C51.7837 25.5017 56.1524 29.3976 61.8549 29.3976C67.5612 29.3976 70.956 26.284 71.3807 25.7408C71.8025 25.2022 71.5045 24.9052 71.0782 25.0831H71.0783ZM73.9071 23.5209C73.6366 23.1687 72.2624 23.103 71.3975 23.2093C70.5313 23.3124 69.2312 23.8418 69.3442 24.1597C69.4022 24.2787 69.5206 24.2253 70.1157 24.1718C70.7123 24.1123 72.3838 23.9013 72.7321 24.3566C73.082 24.8151 72.199 26.999 72.0377 27.3512C71.8819 27.7035 72.0973 27.7943 72.3899 27.5597C72.6786 27.3252 73.2012 26.7179 73.5519 25.8585C73.9002 24.9945 74.1126 23.7891 73.9071 23.5209Z" fill="#FF9900"/>
<path fill-rule="evenodd" clip-rule="evenodd" d="M64.3058 15.3021C64.3058 16.5598 64.3376 17.6087 63.7018 18.7257C63.1887 19.6339 62.376 20.1923 61.4679 20.1923C60.2282 20.1923 59.5063 19.2479 59.5063 17.8539C59.5063 15.1023 61.9718 14.6028 64.3058 14.6028V15.3021ZM67.5614 23.171C67.3479 23.3617 67.0392 23.3754 66.7986 23.2482C65.727 22.3583 65.5362 21.9451 64.946 21.0959C63.1751 22.9032 61.9219 23.4434 59.6244 23.4434C56.9091 23.4434 54.7931 21.7679 54.7931 18.4124C54.7931 15.7925 56.2144 14.008 58.2348 13.1363C59.9876 12.3643 62.435 12.2281 64.3058 12.0147V11.5969C64.3058 10.8295 64.3647 9.92143 63.9153 9.25853C63.5202 8.66369 62.7665 8.41848 62.1035 8.41848C60.873 8.41848 59.7742 9.0496 59.5063 10.3573C59.4517 10.648 59.2384 10.934 58.9478 10.9476L55.8147 10.6117C55.5514 10.5525 55.2608 10.3392 55.3335 9.93502C56.0554 6.13913 59.4835 4.99481 62.5529 4.99481C64.124 4.99481 66.1764 5.41259 67.416 6.60227C68.9871 8.06885 68.8372 10.0258 68.8372 12.1554V17.1864C68.8372 18.6985 69.4638 19.3614 70.0541 20.1787C70.2629 20.4693 70.3084 20.8191 70.045 21.0369C69.3866 21.5863 68.2151 22.608 67.5704 23.1801L67.5613 23.171" fill="black"/>
<path d="M71.0783 25.0831C61.0062 29.8766 54.7553 25.866 50.754 23.4301C50.5064 23.2765 50.0855 23.466 50.4506 23.8854C51.7837 25.5017 56.1524 29.3976 61.8549 29.3976C67.5612 29.3976 70.956 26.284 71.3807 25.7408C71.8025 25.2022 71.5045 24.9052 71.0782 25.0831H71.0783ZM73.9071 23.5209C73.6366 23.1687 72.2624 23.103 71.3975 23.2093C70.5313 23.3124 69.2312 23.8418 69.3442 24.1597C69.4022 24.2787 69.5206 24.2253 70.1157 24.1718C70.7123 24.1123 72.3838 23.9013 72.7321 24.3566C73.082 24.8151 72.199 26.999 72.0377 27.3512C71.8819 27.7035 72.0973 27.7943 72.3899 27.5597C72.6786 27.3252 73.2012 26.7179 73.5519 25.8585C73.9002 24.9945 74.1126 23.7891 73.9071 23.5209Z" fill="#FF9900"/>
<path fill-rule="evenodd" clip-rule="evenodd" d="M64.3058 15.3021C64.3058 16.5598 64.3376 17.6087 63.7018 18.7257C63.1887 19.6339 62.376 20.1923 61.4679 20.1923C60.2282 20.1923 59.5063 19.2479 59.5063 17.8539C59.5063 15.1023 61.9718 14.6028 64.3058 14.6028V15.3021ZM67.5614 23.171C67.3479 23.3617 67.0392 23.3754 66.7986 23.2482C65.727 22.3583 65.5362 21.9451 64.946 21.0959C63.1751 22.9032 61.9219 23.4434 59.6244 23.4434C56.9091 23.4434 54.7931 21.7679 54.7931 18.4124C54.7931 15.7925 56.2144 14.008 58.2348 13.1363C59.9876 12.3643 62.435 12.2281 64.3058 12.0147V11.5969C64.3058 10.8295 64.3647 9.92143 63.9153 9.25853C63.5202 8.66369 62.7665 8.41848 62.1035 8.41848C60.873 8.41848 59.7742 9.0496 59.5063 10.3573C59.4517 10.648 59.2384 10.934 58.9478 10.9476L55.8147 10.6117C55.5514 10.5525 55.2608 10.3392 55.3335 9.93502C56.0554 6.13913 59.4835 4.99481 62.5529 4.99481C64.124 4.99481 66.1764 5.41259 67.416 6.60227C68.9871 8.06885 68.8372 10.0258 68.8372 12.1554V17.1864C68.8372 18.6985 69.4638 19.3614 70.0541 20.1787C70.2629 20.4693 70.3084 20.8191 70.045 21.0369C69.3866 21.5863 68.2151 22.608 67.5704 23.1801L67.5613 23.171" fill="black"/>
<path d="M113.34 25.0831C103.267 29.8766 97.0166 25.866 93.0152 23.4301C92.7676 23.2765 92.3467 23.466 92.7119 23.8854C94.0449 25.5017 98.4137 29.3976 104.116 29.3976C109.822 29.3976 113.217 26.284 113.642 25.7408C114.064 25.2022 113.766 24.9052 113.339 25.0831H113.34ZM116.168 23.5209C115.898 23.1687 114.524 23.103 113.659 23.2093C112.793 23.3124 111.492 23.8418 111.605 24.1597C111.663 24.2787 111.782 24.2253 112.377 24.1718C112.974 24.1123 114.645 23.9013 114.993 24.3566C115.343 24.8151 114.46 26.999 114.299 27.3512C114.143 27.7035 114.358 27.7943 114.651 27.5597C114.94 27.3252 115.462 26.7179 115.813 25.8585C116.161 24.9945 116.374 23.7891 116.168 23.5209Z" fill="#FF9900"/>
<path fill-rule="evenodd" clip-rule="evenodd" d="M106.567 15.3021C106.567 16.5598 106.599 17.6087 105.963 18.7257C105.45 19.6339 104.637 20.1923 103.729 20.1923C102.489 20.1923 101.768 19.2479 101.768 17.8539C101.768 15.1023 104.233 14.6028 106.567 14.6028V15.3021ZM109.823 23.171C109.609 23.3617 109.3 23.3754 109.06 23.2482C107.988 22.3583 107.797 21.9451 107.207 21.0959C105.436 22.9032 104.183 23.4434 101.886 23.4434C99.1703 23.4434 97.0543 21.7679 97.0543 18.4124C97.0543 15.7925 98.4756 14.008 100.496 13.1363C102.249 12.3643 104.696 12.2281 106.567 12.0147V11.5969C106.567 10.8295 106.626 9.92143 106.177 9.25853C105.781 8.66369 105.028 8.41848 104.365 8.41848C103.134 8.41848 102.035 9.0496 101.768 10.3573C101.713 10.648 101.5 10.934 101.209 10.9476L98.0759 10.6117C97.8126 10.5525 97.5221 10.3392 97.5947 9.93502C98.3167 6.13913 101.745 4.99481 104.814 4.99481C106.385 4.99481 108.438 5.41259 109.677 6.60227C111.248 8.06885 111.098 10.0258 111.098 12.1554V17.1864C111.098 18.6985 111.725 19.3614 112.315 20.1787C112.524 20.4693 112.57 20.8191 112.306 21.0369C111.648 21.5863 110.476 22.608 109.832 23.1801L109.823 23.171" fill="black"/>
<path d="M113.34 25.0831C103.267 29.8766 97.0166 25.866 93.0152 23.4301C92.7676 23.2765 92.3467 23.466 92.7119 23.8854C94.0449 25.5017 98.4137 29.3976 104.116 29.3976C109.822 29.3976 113.217 26.284 113.642 25.7408C114.064 25.2022 113.766 24.9052 113.339 25.0831H113.34ZM116.168 23.5209C115.898 23.1687 114.524 23.103 113.659 23.2093C112.793 23.3124 111.492 23.8418 111.605 24.1597C111.663 24.2787 111.782 24.2253 112.377 24.1718C112.974 24.1123 114.645 23.9013 114.993 24.3566C115.343 24.8151 114.46 26.999 114.299 27.3512C114.143 27.7035 114.358 27.7943 114.651 27.5597C114.94 27.3252 115.462 26.7179 115.813 25.8585C116.161 24.9945 116.374 23.7891 116.168 23.5209Z" fill="#FF9900"/>
<path fill-rule="evenodd" clip-rule="evenodd" d="M106.567 15.3021C106.567 16.5598 106.599 17.6087 105.963 18.7257C105.45 19.6339 104.637 20.1923 103.729 20.1923C102.489 20.1923 101.768 19.2479 101.768 17.8539C101.768 15.1023 104.233 14.6028 106.567 14.6028V15.3021ZM109.823 23.171C109.609 23.3617 109.3 23.3754 109.06 23.2482C107.988 22.3583 107.797 21.9451 107.207 21.0959C105.436 22.9032 104.183 23.4434 101.886 23.4434C99.1703 23.4434 97.0543 21.7679 97.0543 18.4124C97.0543 15.7925 98.4756 14.008 100.496 13.1363C102.249 12.3643 104.696 12.2281 106.567 12.0147V11.5969C106.567 10.8295 106.626 9.92143 106.177 9.25853C105.781 8.66369 105.028 8.41848 104.365 8.41848C103.134 8.41848 102.035 9.0496 101.768 10.3573C101.713 10.648 101.5 10.934 101.209 10.9476L98.0759 10.6117C97.8126 10.5525 97.5221 10.3392 97.5947 9.93502C98.3167 6.13913 101.745 4.99481 104.814 4.99481C106.385 4.99481 108.438 5.41259 109.677 6.60227C111.248 8.06885 111.098 10.0258 111.098 12.1554V17.1864C111.098 18.6985 111.725 19.3614 112.315 20.1787C112.524 20.4693 112.57 20.8191 112.306 21.0369C111.648 21.5863 110.476 22.608 109.832 23.1801L109.823 23.171" fill="black"/>
<g clip-path="url(#clip0_123_878)">
<path d="M157.53 8.89845C157.52 8.8666 157.511 8.83476 157.498 8.80292C149.955 8.8061 142.414 8.80292 134.874 8.8061C134.855 8.82839 134.842 8.85068 134.839 8.87934C134.839 14.7289 134.839 20.5753 134.835 26.4248C134.883 26.7369 135.055 27.0203 135.284 27.2337C135.294 27.2368 135.316 27.24 135.326 27.2432C135.444 27.3674 135.612 27.4279 135.772 27.4852C135.889 27.4788 136.004 27.5298 136.122 27.5171H145.484C145.573 27.5139 145.665 27.5298 145.751 27.4948C145.754 27.482 145.758 27.4597 145.761 27.447C145.764 27.4311 145.767 27.3961 145.77 27.3769C145.971 26.2561 146.165 25.132 146.379 24.0111L146.398 23.8678C145.532 23.8647 144.662 23.8678 143.796 23.8647C143.586 23.8583 143.369 23.8647 143.159 23.8392C142.799 23.8233 142.436 23.836 142.077 23.801C141.631 23.801 141.188 23.7596 140.742 23.7596C140.392 23.7246 140.039 23.7373 139.685 23.7214C139.456 23.6927 139.22 23.7054 138.988 23.6959C138.609 23.6545 138.224 23.6832 137.845 23.6418C137.443 23.6449 137.042 23.6099 136.641 23.6004C136.644 23.5972 136.647 23.5844 136.647 23.5813C136.781 23.5844 136.912 23.5749 137.045 23.5717C137.341 23.5335 137.641 23.559 137.937 23.5176C138.246 23.5176 138.552 23.4762 138.86 23.4762C139.134 23.438 139.411 23.4603 139.685 23.422C140.007 23.422 140.322 23.3806 140.644 23.3775C140.908 23.3424 141.175 23.3615 141.44 23.3265C141.749 23.3297 142.054 23.2819 142.363 23.2851C142.666 23.2501 142.975 23.2596 143.277 23.2278C143.248 23.11 143.226 22.9922 143.201 22.8743C143.178 22.8011 143.089 22.817 143.032 22.8075C142.341 22.7088 141.653 22.61 140.965 22.5145C141.01 22.4795 141.07 22.4954 141.121 22.489C141.656 22.4476 142.188 22.3999 142.723 22.3617C142.844 22.3553 142.962 22.333 143.083 22.3298C143.029 22.1642 142.997 21.9827 142.924 21.8299C141.78 21.6548 140.637 21.4987 139.497 21.3109C139.793 21.2631 140.093 21.2408 140.389 21.209L140.414 21.1994C141.36 21.1007 142.309 20.9892 143.255 20.8969C144.455 20.8905 145.653 20.8937 146.853 20.8969C146.891 20.8905 146.958 20.9096 146.964 20.8555C147.063 20.3396 147.159 19.8238 147.257 19.3079C147.394 18.5915 147.611 17.8845 147.945 17.2318C148.471 16.1809 149.302 15.2893 150.314 14.6971C151.26 14.143 152.355 13.8755 153.445 13.8246C153.798 13.7927 154.155 13.8023 154.505 13.8468C154.734 13.901 154.97 13.9647 155.151 14.1207C155.301 14.2417 155.39 14.42 155.457 14.5983C155.603 15.0219 155.686 15.4613 155.756 15.9039C155.759 16.0822 155.791 16.2828 155.696 16.4452C155.607 16.6045 155.428 16.6809 155.26 16.7286C154.645 16.8879 154.002 16.7382 153.387 16.8879C152.881 16.9961 152.41 17.2763 152.088 17.6807C151.709 18.152 151.508 18.7379 151.397 19.3238C151.311 19.8461 151.203 20.3683 151.117 20.8937C151.722 20.8969 152.33 20.8905 152.938 20.8969C153.18 20.8969 153.429 21.0306 153.527 21.2599C153.655 21.5529 153.626 21.884 153.585 22.1929C153.534 22.54 153.451 22.8839 153.295 23.2023C153.164 23.473 152.948 23.7214 152.652 23.8169C152.499 23.8774 152.333 23.8647 152.171 23.8647C151.636 23.8647 151.101 23.871 150.566 23.8647C150.48 24.2563 150.423 24.6575 150.346 25.0556C150.206 25.8294 150.069 26.6063 149.929 27.3833C149.926 27.4088 149.923 27.4629 149.923 27.4916C150.174 27.5043 150.426 27.4916 150.677 27.4979C152.543 27.4979 154.413 27.4948 156.282 27.4979C156.482 27.5043 156.686 27.4565 156.861 27.3578C156.966 27.3196 157.03 27.2273 157.122 27.1763C157.212 27.1254 157.237 27.0203 157.313 26.9534C157.396 26.807 157.482 26.6541 157.489 26.4822C157.498 26.4822 157.524 26.479 157.536 26.4758C157.527 20.6167 157.536 14.7576 157.53 8.89845Z" fill="url(#paint0_linear_123_878)" stroke="#FCD109" stroke-width="0.00299324"/>
<path d="M137.806 5.04554C138.077 4.95956 138.361 5.01688 138.638 4.99777C143.838 5.00096 149.038 4.99777 154.237 4.99777C154.546 4.98504 154.817 5.16017 155.104 5.24933C155.333 5.34168 155.572 5.41492 155.801 5.51363C155.849 5.53274 155.884 5.57413 155.919 5.60916C155.916 6.02949 155.919 6.453 155.919 6.87651C155.922 6.98796 155.903 7.1026 155.941 7.21086C156.008 7.22042 156.043 7.27136 156.088 7.31276C156.298 7.40829 156.476 7.56432 156.667 7.69169C156.954 7.89549 157.259 8.07381 157.54 8.28397C157.552 8.36676 157.543 8.45274 157.517 8.52916C157.489 8.61832 157.508 8.71385 157.498 8.80301C149.955 8.8062 142.414 8.80301 134.874 8.8062C134.858 8.70112 134.886 8.59603 134.842 8.49732C134.836 8.41453 134.807 8.30626 134.886 8.24894C135.205 8.02604 135.542 7.82543 135.855 7.58979C136.049 7.46561 136.237 7.33823 136.425 7.21086C136.463 7.14718 136.45 7.06757 136.45 6.99751C136.45 6.53579 136.45 6.07407 136.453 5.61234C136.561 5.47223 136.749 5.45631 136.899 5.38626C137.201 5.27162 137.507 5.16017 137.806 5.04554ZM137.826 5.09967C137.418 5.2557 137.007 5.40536 136.6 5.56139C136.546 5.57095 136.517 5.61871 136.488 5.66011C136.491 5.68558 136.495 5.73016 136.495 5.75564C136.491 6.13775 136.495 6.51987 136.491 6.90199C136.495 6.99751 136.482 7.09304 136.517 7.17902C136.475 7.22042 136.431 7.26181 136.38 7.29365C135.918 7.59298 135.472 7.91778 135.011 8.21392C134.931 8.26168 134.842 8.32537 134.867 8.43045C134.851 8.48777 134.88 8.53553 134.941 8.51961C135.94 8.51324 136.937 8.52598 137.937 8.51006C139.424 8.51006 140.908 8.51324 142.395 8.51006L142.417 8.5005C142.484 8.51643 142.551 8.51006 142.621 8.51006C145.315 8.51006 148.009 8.51324 150.706 8.51006C151.553 8.51324 152.403 8.51006 153.254 8.51006C154.655 8.51006 156.059 8.52279 157.46 8.51643C157.501 8.50687 157.514 8.47821 157.498 8.42727C157.495 8.37632 157.514 8.30626 157.46 8.27442C157.237 8.16934 157.046 8.00694 156.833 7.87957C156.756 7.81588 156.658 7.78085 156.6 7.69488C156.381 7.57069 156.177 7.41784 155.96 7.28092C155.919 7.25544 155.887 7.21405 155.852 7.17902C155.871 7.11215 155.877 7.03891 155.877 6.96886C155.874 6.56445 155.877 6.16004 155.874 5.75564C155.884 5.69195 155.881 5.61871 155.823 5.57732C155.441 5.44039 155.062 5.29391 154.683 5.1538C154.565 5.09649 154.435 5.06464 154.308 5.04554H138.033C137.963 5.04872 137.896 5.08375 137.826 5.09967Z" fill="#F8F3B5" stroke="#F8F3B5" stroke-width="0.00299324"/>
<path d="M136.495 5.75555C136.775 5.87337 137.074 5.94024 137.358 6.05488C137.51 6.11538 137.558 6.28096 137.625 6.4147C137.558 6.48157 137.479 6.53571 137.399 6.58666C137.106 6.78408 136.807 6.97514 136.517 7.17894C136.482 7.09296 136.495 6.99743 136.491 6.9019C136.495 6.51979 136.491 6.13767 136.495 5.75555ZM155.011 6.05488C155.295 5.94343 155.591 5.867 155.874 5.75555C155.877 6.15996 155.874 6.56437 155.877 6.96877C155.877 7.03883 155.871 7.11207 155.852 7.17894C155.604 7.00698 155.352 6.84459 155.104 6.67582C154.983 6.58666 154.849 6.51979 154.741 6.41152C154.808 6.27778 154.859 6.11538 155.011 6.05488Z" fill="#F7B402" stroke="#F7B402" stroke-width="0.00299324"/>
<path d="M141.354 6.18546C141.704 6.10266 142.096 6.41473 142.067 6.78092C142.07 7.14075 141.691 7.4337 141.344 7.35091C141.204 7.30315 141.07 7.22991 140.984 7.10572C140.873 6.93695 140.847 6.71087 140.937 6.52618C141 6.34785 141.172 6.22685 141.354 6.18546ZM150.439 6.38607C150.585 6.22367 150.818 6.13132 151.034 6.18864C151.196 6.2364 151.356 6.34149 151.426 6.5007C151.566 6.77455 151.458 7.14393 151.184 7.28722C150.942 7.42096 150.636 7.35728 150.451 7.16304C150.263 6.94969 150.251 6.59941 150.439 6.38607Z" fill="#BDA727" stroke="#BDA727" stroke-width="0.00299324"/>
<path d="M137.399 6.5867C137.478 6.53575 137.558 6.48161 137.625 6.41474L137.647 6.43703C137.67 6.60262 137.654 6.77139 137.66 6.93697C137.65 7.43372 137.67 7.93366 137.647 8.43041C136.721 8.43041 135.794 8.42404 134.867 8.43041C134.842 8.32532 134.931 8.26164 135.011 8.21387C135.472 7.91773 135.918 7.59294 136.38 7.29361C136.431 7.26177 136.475 7.22037 136.517 7.17898C136.807 6.97518 137.106 6.78412 137.399 6.5867ZM154.709 6.52301C154.709 6.48161 154.718 6.44659 154.741 6.41156C154.849 6.51983 154.983 6.5867 155.104 6.67586C155.352 6.84462 155.604 7.00702 155.852 7.17898C155.887 7.214 155.919 7.2554 155.96 7.28087C156.177 7.4178 156.38 7.57065 156.6 7.69483C156.658 7.78081 156.756 7.81584 156.833 7.87952C157.046 8.00689 157.237 8.16929 157.46 8.27438C157.514 8.30622 157.495 8.37627 157.498 8.42722C156.572 8.43041 155.648 8.42404 154.721 8.43041C154.706 8.30303 154.715 8.17566 154.712 8.05147C154.712 7.54199 154.706 7.0325 154.709 6.52301Z" fill="#F7E62D" stroke="#F7E62D" stroke-width="0.00299324"/>
<path d="M157.498 8.42708C156.572 8.43026 155.648 8.42389 154.721 8.43026C154.706 8.30289 154.715 8.17552 154.712 8.05133C154.712 7.54184 154.706 7.03235 154.709 6.52286C154.709 6.48147 154.718 6.44644 154.741 6.41141C154.807 6.27767 154.858 6.11527 155.011 6.05477C155.295 5.94332 155.591 5.8669 155.874 5.75545C155.884 5.69176 155.881 5.61852 155.823 5.57713C155.441 5.4402 155.062 5.29372 154.683 5.15362C154.565 5.0963 154.435 5.06445 154.308 5.04535H138.033C137.963 5.04853 137.896 5.08356 137.826 5.09948C137.418 5.25551 137.007 5.40518 136.6 5.56121C136.546 5.57076 136.517 5.61852 136.488 5.65992C136.491 5.68539 136.495 5.72997 136.495 5.75545C136.775 5.87327 137.074 5.94014 137.358 6.05477C137.51 6.11527 137.558 6.28086 137.625 6.4146L137.647 6.43689C137.67 6.60247 137.654 6.77124 137.66 6.93682C137.65 7.43357 137.67 7.93351 137.647 8.43026C136.721 8.43026 135.794 8.42389 134.867 8.43026C134.851 8.48758 134.88 8.53534 134.941 8.51942C135.94 8.51305 136.937 8.52579 137.937 8.50987C139.424 8.50987 140.908 8.51305 142.395 8.50987L142.417 8.50032C142.484 8.51624 142.551 8.50987 142.621 8.50987C145.315 8.50987 148.009 8.51305 150.706 8.50987C151.553 8.51305 152.403 8.50987 153.254 8.50987C154.655 8.50987 156.059 8.52261 157.46 8.51624C157.501 8.50668 157.514 8.47803 157.498 8.42708ZM140.937 6.52605C141 6.34773 141.172 6.22672 141.354 6.18533C141.704 6.10254 142.096 6.4146 142.067 6.78079C142.07 7.14062 141.691 7.43357 141.344 7.35078C141.204 7.30302 141.07 7.22978 140.984 7.10559C140.873 6.93682 140.847 6.71074 140.937 6.52605ZM150.439 6.38594C150.585 6.22354 150.818 6.1312 151.034 6.18851C151.196 6.23628 151.356 6.34136 151.426 6.50057C151.566 6.77442 151.458 7.1438 151.184 7.2871C150.942 7.42084 150.636 7.35715 150.451 7.16291C150.263 6.94956 150.251 6.59929 150.439 6.38594Z" fill="url(#paint1_radial_123_878)" stroke="#FCD109" stroke-width="0.00299324"/>
<path d="M151.25 9.82632C151.295 9.83587 151.018 9.56043 151.072 9.54769C151.123 9.55406 151.317 9.40408 151.55 9.52636C151.783 9.64863 151.725 9.9349 151.699 10.0413C151.668 10.1677 151.587 10.2482 151.523 10.3119C151.488 10.3406 151.41 10.3852 151.362 10.382C151.39 10.2259 151.298 10.2005 151.292 10.0413L151.25 9.82632Z" fill="url(#paint2_linear_123_878)" stroke="#FCD109" stroke-width="0.00299324"/>
<path d="M141.071 9.99922C141.065 10.1584 140.972 10.1839 141.001 10.3399C140.953 10.3431 140.874 10.2985 140.839 10.2699C140.776 10.2062 140.696 10.1256 140.664 9.99922C140.638 9.89318 140.58 9.60692 140.813 9.48432C141.046 9.36172 141.24 9.51202 141.291 9.50565C141.345 9.51839 141.068 9.79383 141.113 9.78428L141.071 9.99922Z" fill="url(#paint3_linear_123_878)" stroke="#FCD109" stroke-width="0.00299324"/>
<path d="M150.833 11.8662C150.881 11.8245 150.913 11.8245 150.977 11.8245C150.595 12.6524 150.149 13.4804 149.478 14.1249C149.407 14.1889 149.331 14.2481 149.252 14.3025C149.175 14.3586 149.1 14.4114 149.025 14.4649C148.952 14.5159 148.879 14.5668 148.808 14.6203C148.627 14.7191 148.467 14.856 148.267 14.9165C147.901 15.0916 147.506 15.2094 147.108 15.2922C146.952 15.3177 146.793 15.3559 146.633 15.3591C146.436 15.4164 146.226 15.375 146.025 15.3878C145.914 15.4069 145.815 15.3432 145.707 15.3559C145.613 15.3425 145.519 15.3266 145.426 15.3081C145.331 15.2887 145.237 15.2664 145.144 15.2413C143.685 14.7859 142.252 13.6714 141.834 12.164C141.815 12.0624 141.806 11.9595 141.806 11.856C141.85 11.9452 141.897 12.0337 141.944 12.1213C142.538 13.4164 143.716 14.4353 145.108 14.7426C145.221 14.7942 145.344 14.7761 145.452 14.8206C145.551 14.8206 145.646 14.8174 145.742 14.8493C146.07 14.8557 146.398 14.8525 146.726 14.8525C146.77 14.8557 146.812 14.8334 146.856 14.8238C147.403 14.8053 147.939 14.6563 148.437 14.4302C148.537 14.385 148.635 14.3366 148.732 14.2857C148.816 14.2411 148.899 14.193 148.979 14.1411C149.058 14.0902 149.135 14.036 149.209 13.9787C149.799 13.5119 150.308 12.9069 150.654 12.2111C150.72 12.0866 150.78 11.9707 150.833 11.8662Z" fill="#BDA727" stroke="#BDA727" stroke-width="0.00299324"/>
<path d="M150.314 14.6971C151.26 14.143 152.356 13.8755 153.445 13.8246C153.798 13.7928 154.155 13.8023 154.505 13.8469C154.734 13.901 154.97 13.9647 155.151 14.1207C155.059 14.1271 154.97 14.0857 154.877 14.073C154.616 14.022 154.346 14.0411 154.081 14.0348C153.314 14.0348 152.54 14.0953 151.798 14.3054C151.41 14.4232 151.021 14.5602 150.668 14.764C150.056 15.1015 149.506 15.5473 149.06 16.0823C148.264 16.9962 147.796 18.1552 147.57 19.3366C147.461 19.9703 147.337 20.6008 147.238 21.2377C147.079 21.2536 146.917 21.244 146.758 21.244C146.057 21.2408 145.356 21.2377 144.656 21.2313C144.506 21.2377 144.36 21.2026 144.21 21.2122C142.936 21.2185 141.663 21.209 140.389 21.209L140.414 21.1994C141.36 21.1007 142.309 20.9893 143.255 20.8969C144.455 20.8906 145.653 20.8937 146.853 20.8969C146.891 20.8906 146.958 20.9097 146.964 20.8555C147.063 20.3397 147.159 19.8238 147.257 19.308C147.394 18.5915 147.611 17.8846 147.945 17.2318C148.471 16.181 149.302 15.2894 150.314 14.6971Z" fill="#0D69B3" stroke="#0D69B3" stroke-width="0.00299324"/>
<path d="M151.798 14.3054C152.54 14.0952 153.314 14.0347 154.081 14.0347C154.346 14.0411 154.616 14.022 154.877 14.0729C154.97 14.0857 155.059 14.1271 155.151 14.1207C155.301 14.2417 155.39 14.42 155.457 14.5983C155.604 15.0219 155.686 15.4613 155.756 15.9039C155.76 16.0822 155.791 16.2828 155.696 16.4452C155.607 16.6045 155.428 16.6809 155.26 16.7286C154.645 16.8879 154.002 16.7382 153.387 16.8879C152.881 16.9961 152.41 17.2763 152.088 17.6808C151.709 18.152 151.508 18.7379 151.397 19.3239C151.311 19.8461 151.203 20.3683 151.117 20.8937C151.079 21.0115 151.056 21.1389 151.034 21.2631C151.636 21.2726 152.238 21.2631 152.84 21.2695C153.069 21.2631 153.298 21.2758 153.527 21.2599C153.655 21.5529 153.626 21.884 153.585 22.1929C153.534 22.54 153.451 22.8839 153.295 23.2023C153.164 23.473 152.948 23.7214 152.652 23.8169C152.499 23.8774 152.333 23.8647 152.171 23.8647C151.636 23.8647 151.101 23.871 150.566 23.8647C150.48 24.2563 150.423 24.6576 150.346 25.0556C150.206 25.8294 150.069 26.6063 149.929 27.3833C149.926 27.4088 149.923 27.4629 149.923 27.4916V27.4948C148.531 27.4948 147.143 27.498 145.751 27.4948C145.754 27.482 145.758 27.4597 145.761 27.447C145.764 27.4311 145.767 27.3961 145.77 27.3769C145.774 27.4024 145.777 27.4502 145.78 27.4725C145.866 27.482 146.022 27.5266 146.044 27.4024C146.261 26.2306 146.461 25.0524 146.684 23.8806C146.598 23.8615 146.509 23.8615 146.42 23.8774C146.407 23.922 146.395 23.9666 146.379 24.0111L146.398 23.8678C145.532 23.8647 144.662 23.8679 143.796 23.8647C143.586 23.8583 143.369 23.8647 143.159 23.8392C142.799 23.8233 142.436 23.836 142.077 23.801C141.631 23.801 141.188 23.7596 140.742 23.7596C140.392 23.7246 140.039 23.7373 139.685 23.7214C139.456 23.6927 139.22 23.7054 138.988 23.6959C138.609 23.6545 138.224 23.6832 137.845 23.6418C137.443 23.6449 137.042 23.6099 136.641 23.6004C136.644 23.5972 136.647 23.5844 136.647 23.5813C136.781 23.5844 136.912 23.5749 137.045 23.5717C137.342 23.5335 137.641 23.559 137.937 23.5176C138.246 23.5176 138.552 23.4762 138.86 23.4762C139.134 23.438 139.411 23.4603 139.685 23.422C140.007 23.422 140.322 23.3807 140.644 23.3775C140.908 23.3424 141.175 23.3615 141.44 23.3265C141.749 23.3297 142.054 23.2819 142.363 23.2851C142.666 23.2501 142.975 23.2596 143.277 23.2278C143.248 23.11 143.226 22.9922 143.201 22.8743C143.178 22.8011 143.089 22.817 143.032 22.8075C142.341 22.7088 141.653 22.6101 140.965 22.5145C141.01 22.4795 141.07 22.4954 141.121 22.489C141.656 22.4477 142.188 22.3999 142.723 22.3617C142.844 22.3553 142.962 22.333 143.083 22.3298C143.029 22.1642 142.997 21.9827 142.924 21.8299C141.78 21.6548 140.637 21.4987 139.497 21.3109C139.793 21.2631 140.093 21.2408 140.389 21.209C141.663 21.209 142.936 21.2185 144.21 21.2121C144.36 21.2026 144.506 21.2376 144.656 21.2312C145.356 21.2376 146.057 21.2408 146.758 21.244C146.917 21.244 147.079 21.2535 147.238 21.2376C147.337 20.6008 147.461 19.9703 147.57 19.3366C147.796 18.1552 148.264 16.9961 149.06 16.0822C149.506 15.5473 150.056 15.1015 150.668 14.7639C151.021 14.5601 151.41 14.4232 151.798 14.3054Z" fill="#107BD4" stroke="#107BD4" stroke-width="0.00299324"/>
<path d="M151.117 20.8937C151.722 20.8969 152.33 20.8906 152.938 20.8969C153.18 20.8969 153.429 21.0307 153.527 21.2599C153.298 21.2759 153.069 21.2631 152.84 21.2695C152.238 21.2631 151.636 21.2727 151.034 21.2631C151.056 21.1389 151.079 21.0116 151.117 20.8937ZM146.42 23.8774C146.509 23.8615 146.598 23.8615 146.684 23.8806C146.461 25.0524 146.261 26.2306 146.044 27.4024C146.022 27.5266 145.866 27.4821 145.78 27.4725C145.777 27.4502 145.774 27.4024 145.77 27.377C145.971 26.2561 146.165 25.132 146.379 24.0112C146.395 23.9666 146.407 23.922 146.42 23.8774Z" fill="#0D69B3" stroke="#0D69B3" stroke-width="0.00299324"/>
<path d="M151.395 9.9155C151.37 9.86773 151.367 9.81041 151.367 9.75628L151.341 9.75947C151.303 9.61936 151.185 9.48562 151.032 9.47925C150.918 9.46969 150.774 9.47288 150.708 9.58114C150.58 9.7531 150.641 9.97281 150.634 10.1671C150.634 10.1798 150.638 10.2021 150.638 10.2148C150.638 10.3454 150.622 10.4727 150.599 10.6001C150.58 10.6383 150.571 10.6797 150.571 10.7243C150.517 11.0236 150.408 11.3198 150.262 11.5904C150.233 11.6287 150.211 11.67 150.201 11.7146C150.106 11.8802 149.991 12.0331 149.873 12.1859C149.854 12.2018 149.838 12.2209 149.822 12.24C149.74 12.3419 149.65 12.4279 149.558 12.5171C149.536 12.5298 149.52 12.5457 149.501 12.5585C149.393 12.6635 149.272 12.7623 149.141 12.8419C149.125 12.8514 149.109 12.8642 149.09 12.8769C148.275 13.415 147.285 13.6379 146.32 13.6475C145.501 13.673 144.677 13.4978 143.938 13.1444C143.925 13.138 143.893 13.1253 143.88 13.1189C143.756 13.052 143.629 12.9947 143.514 12.9119C143.489 12.8992 143.463 12.8833 143.435 12.8705C143.317 12.8005 143.205 12.7241 143.1 12.6349C143.065 12.603 143.027 12.5776 142.989 12.5489C142.874 12.4566 142.756 12.3579 142.658 12.2464C142.632 12.2177 142.607 12.1923 142.581 12.1668C142.234 11.807 141.964 11.3675 141.82 10.8899C141.683 10.511 141.702 10.097 141.687 9.69896C141.572 9.52383 141.33 9.42511 141.139 9.53338C141.059 9.5907 141.05 9.69578 140.989 9.76902C140.89 10.8198 141.339 11.8675 142.056 12.6253C142.056 12.6508 142.069 12.6667 142.091 12.6763C142.218 12.7941 142.342 12.9151 142.47 13.0297C142.492 13.052 142.518 13.0743 142.546 13.0934C142.674 13.1985 142.811 13.294 142.944 13.3928C142.97 13.4119 142.995 13.4278 143.024 13.4437C143.199 13.5456 143.365 13.6666 143.553 13.7367C143.565 13.7462 143.588 13.7621 143.6 13.7685C144.205 14.0583 144.858 14.2557 145.527 14.3194C145.6 14.3194 145.673 14.3258 145.746 14.3417C146.065 14.3608 146.383 14.3512 146.702 14.3449C147.686 14.2589 148.702 14.0201 149.523 13.4405L149.533 13.4533C149.558 13.431 149.58 13.4119 149.606 13.3928C149.736 13.2972 149.864 13.1953 149.991 13.0902C150.02 13.068 150.052 13.0425 150.08 13.0138C150.22 12.861 150.383 12.7209 150.501 12.5457L150.52 12.5553C150.529 12.5394 150.545 12.5075 150.555 12.4916C150.663 12.3451 150.762 12.1923 150.857 12.0394C150.864 12.0299 150.88 12.014 150.886 12.0044L150.873 11.9917C150.883 11.9789 150.905 11.9534 150.915 11.9407C151.09 11.5841 151.246 11.2115 151.3 10.8167C151.322 10.8071 151.335 10.788 151.335 10.7657C151.338 10.6383 151.383 10.5173 151.37 10.39C151.399 10.2339 151.402 10.0747 151.395 9.9155Z" fill="white" stroke="white" stroke-width="0.00299324"/>
<mask id="mask0_123_878" style="mask-type:luminance" maskUnits="userSpaceOnUse" x="140" y="9" width="12" height="6">
<path d="M151.395 9.9155C151.37 9.86773 151.367 9.81041 151.367 9.75628L151.341 9.75947C151.303 9.61936 151.185 9.48562 151.032 9.47925C150.918 9.46969 150.774 9.47288 150.708 9.58114C150.58 9.7531 150.641 9.97281 150.634 10.1671C150.634 10.1798 150.638 10.2021 150.638 10.2148C150.638 10.3454 150.622 10.4727 150.599 10.6001C150.58 10.6383 150.571 10.6797 150.571 10.7243C150.517 11.0236 150.408 11.3198 150.262 11.5904C150.233 11.6287 150.211 11.67 150.201 11.7146C150.106 11.8802 149.991 12.0331 149.873 12.1859C149.854 12.2018 149.838 12.2209 149.822 12.24C149.74 12.3419 149.65 12.4279 149.558 12.5171C149.536 12.5298 149.52 12.5457 149.501 12.5585C149.393 12.6635 149.272 12.7623 149.141 12.8419C149.125 12.8514 149.109 12.8642 149.09 12.8769C148.275 13.415 147.285 13.6379 146.32 13.6475C145.501 13.673 144.677 13.4978 143.938 13.1444C143.925 13.138 143.893 13.1253 143.88 13.1189C143.756 13.052 143.629 12.9947 143.514 12.9119C143.489 12.8992 143.463 12.8833 143.435 12.8705C143.317 12.8005 143.205 12.7241 143.1 12.6349C143.065 12.603 143.027 12.5776 142.989 12.5489C142.874 12.4566 142.756 12.3579 142.658 12.2464C142.632 12.2177 142.607 12.1923 142.581 12.1668C142.234 11.807 141.964 11.3675 141.82 10.8899C141.683 10.511 141.702 10.097 141.687 9.69896C141.572 9.52383 141.33 9.42511 141.139 9.53338C141.059 9.5907 141.05 9.69578 140.989 9.76902C140.89 10.8198 141.339 11.8675 142.056 12.6253C142.056 12.6508 142.069 12.6667 142.091 12.6763C142.218 12.7941 142.342 12.9151 142.47 13.0297C142.492 13.052 142.518 13.0743 142.546 13.0934C142.674 13.1985 142.811 13.294 142.944 13.3928C142.97 13.4119 142.995 13.4278 143.024 13.4437C143.199 13.5456 143.365 13.6666 143.553 13.7367C143.565 13.7462 143.588 13.7621 143.6 13.7685C144.205 14.0583 144.858 14.2557 145.527 14.3194C145.6 14.3194 145.673 14.3258 145.746 14.3417C146.065 14.3608 146.383 14.3512 146.702 14.3449C147.686 14.2589 148.702 14.0201 149.523 13.4405L149.533 13.4533C149.558 13.431 149.58 13.4119 149.606 13.3928C149.736 13.2972 149.864 13.1953 149.991 13.0902C150.02 13.068 150.052 13.0425 150.08 13.0138C150.22 12.861 150.383 12.7209 150.501 12.5457L150.52 12.5553C150.529 12.5394 150.545 12.5075 150.555 12.4916C150.663 12.3451 150.762 12.1923 150.857 12.0394C150.864 12.0299 150.88 12.014 150.886 12.0044L150.873 11.9917C150.883 11.9789 150.905 11.9534 150.915 11.9407C151.09 11.5841 151.246 11.2115 151.3 10.8167C151.322 10.8071 151.335 10.788 151.335 10.7657C151.338 10.6383 151.383 10.5173 151.37 10.39C151.399 10.2339 151.402 10.0747 151.395 9.9155Z" fill="white"/>
</mask>
<g mask="url(#mask0_123_878)">
<path d="M140.745 9.80823C141.003 9.88911 141.596 9.68563 141.764 9.87192M140.893 10.5935C141.14 10.5075 141.671 10.3037 141.891 10.4238M141.148 11.379C141.267 11.4179 141.503 11.2077 141.62 11.1463C141.794 11.0546 141.973 10.9845 142.167 10.9546M141.53 12.207C141.653 12.0318 141.801 11.886 141.979 11.7618C142.156 11.6386 142.639 11.3087 142.846 11.4217M141.891 12.8015C142.031 12.6903 142.088 12.4932 142.235 12.3764C142.413 12.235 142.685 12.2095 142.867 12.1223M142.491 13.2419C142.533 12.9339 142.845 12.5627 143.143 12.5891M142.952 13.6717C143.11 13.6558 143.243 13.303 143.35 13.1836C143.51 13.0046 143.675 12.9492 143.887 12.8862M143.865 14.0539C143.855 13.831 144.085 13.1925 144.353 13.2259M144.544 14.2663C144.533 14.0029 144.669 13.211 144.99 13.1836M145.245 14.6907C145.184 14.3226 145.188 13.7899 145.478 13.523M146.115 14.7757C146.083 14.4688 145.778 13.8485 146.115 13.6081M147.05 14.5633C146.904 14.3946 146.819 13.7287 146.88 13.5444M147.941 14.4146C147.829 14.2108 147.69 14.0191 147.647 13.7826C147.622 13.6412 147.666 13.4396 147.644 13.332M148.684 14.0962C148.44 13.937 148.373 13.3514 148.451 13.0986M149.406 13.7778C149.233 13.4062 149.048 13.118 149.045 12.6951M150.106 13.0986C149.837 12.9174 149.494 12.5884 149.533 12.2283M150.849 12.5254C150.441 12.4346 149.949 12.0688 149.703 11.7398M151.189 11.8248C150.894 11.7615 149.919 11.3813 149.979 10.9969M151.508 11.082C151.096 10.9313 150.498 10.7957 150.17 10.5088M151.72 10.4024C151.461 10.4247 151.09 10.2992 150.826 10.2537C150.534 10.2034 150.263 10.1047 149.979 10.0413M151.465 9.74454C150.966 9.77448 150.497 9.60348 150.042 9.44745" stroke="#D1D1D1" stroke-width="0.063686"/>
</g>
</g>
<defs>
<linearGradient id="paint0_linear_123_878" x1="146.186" y1="8.80286" x2="146.186" y2="27.519" gradientUnits="userSpaceOnUse">
<stop stop-color="#F7E830"/>
<stop offset="1" stop-color="#FDCB06"/>
</linearGradient>
<radialGradient id="paint1_radial_123_878" cx="0" cy="0" r="1" gradientUnits="userSpaceOnUse" gradientTransform="translate(146.088 17.3392) scale(15.2235)">
<stop offset="0.596" stop-color="#F29405"/>
<stop offset="0.736" stop-color="#F7D01E"/>
<stop offset="1" stop-color="#FDCB06"/>
</radialGradient>
<linearGradient id="paint2_linear_123_878" x1="151.394" y1="9.4783" x2="151.399" y2="10.3646" gradientUnits="userSpaceOnUse">
<stop stop-color="#FADA1C"/>
<stop offset="1" stop-color="#FDCB06"/>
</linearGradient>
<linearGradient id="paint3_linear_123_878" x1="140.969" y1="9.43583" x2="140.964" y2="10.3221" gradientUnits="userSpaceOnUse">
<stop stop-color="#FADA1C"/>
<stop offset="1" stop-color="#FDCB06"/>
</linearGradient>
<clipPath id="clip0_123_878">
<rect width="22.7165" height="22.5257" fill="white" transform="translate(134.83 4.99481)"/>
</clipPath>
</defs>
</svg>
