<svg width="17" height="18" viewBox="0 0 17 18" fill="none" xmlns="http://www.w3.org/2000/svg">
<path d="M8.48141 7.39032L8.55927 7.46819L8.63714 7.39032L12.8656 3.16185L12.8656 3.16189L12.868 3.15939C12.9512 3.07078 13.0515 2.99989 13.1628 2.95098C13.274 2.90216 13.3938 2.87624 13.5151 2.87477C13.7778 2.87493 14.0296 2.97933 14.2153 3.16504C14.4011 3.35089 14.5056 3.60297 14.5055 3.86581L14.5056 3.86791C14.5079 3.98791 14.4856 4.10712 14.4402 4.21821C14.3947 4.3293 14.327 4.42993 14.2413 4.51392L14.241 4.51422L9.95747 8.74269L9.8786 8.82055L9.95697 8.89892L14.2405 13.1825L14.2414 13.1833C14.4022 13.3406 14.4967 13.5536 14.5056 13.7783C14.505 14.0404 14.4007 14.2917 14.2153 14.4771C14.0294 14.6629 13.7774 14.7673 13.5145 14.7673V14.7673L13.51 14.7674C13.3849 14.7726 13.2601 14.7518 13.1435 14.7061C13.0269 14.6605 12.9211 14.5912 12.8328 14.5025C12.8328 14.5025 12.8328 14.5025 12.8327 14.5024L8.63764 10.2523L8.55978 10.1734L8.48141 10.2518L4.24192 14.4913L4.24191 14.4913L4.24067 14.4925C4.15775 14.5782 4.05867 14.6466 3.94918 14.6937C3.8399 14.7408 3.7224 14.7658 3.60343 14.7673C3.3408 14.7672 3.08897 14.6628 2.90325 14.4771C2.71739 14.2912 2.61298 14.0391 2.613 13.7763L2.61296 13.7742C2.61068 13.6542 2.63294 13.535 2.67839 13.4239C2.72384 13.3128 2.7915 13.2122 2.87724 13.1282L2.87754 13.1279L7.16107 8.89942L7.23994 8.82156L7.16157 8.74319L2.87804 4.45966L2.87805 4.45966L2.87719 4.45881C2.71635 4.30146 2.62183 4.08855 2.61298 3.86377C2.61352 3.60166 2.71788 3.35041 2.90325 3.16504C3.08895 2.97934 3.34075 2.87495 3.60334 2.87477C3.83861 2.87789 4.06416 2.97308 4.23091 3.13983L8.48141 7.39032Z" fill="#FC0808" stroke="white" stroke-width="0.220233"/>
</svg>
