<svg width="33" height="33" viewBox="0 0 33 33" fill="none" xmlns="http://www.w3.org/2000/svg">
<rect x="0.760193" y="0.241211" width="32" height="32" rx="16" stroke="#121212" stroke-opacity="0.3" stroke-width="0.34459"/>
<path d="M16.6895 14.9419L16.7602 15.0126L16.8309 14.9419L20.6709 11.1019L20.6709 11.102L20.6731 11.0997C20.7487 11.0192 20.8398 10.9548 20.9408 10.9104C21.0418 10.8661 21.1506 10.8425 21.2608 10.8412C21.4993 10.8414 21.728 10.9362 21.8966 11.1048C22.0654 11.2736 22.1602 11.5025 22.1602 11.7412L22.1602 11.7431C22.1623 11.8521 22.1421 11.9603 22.1008 12.0612C22.0595 12.1621 21.9981 12.2535 21.9202 12.3298L21.92 12.33L18.03 16.17L17.9583 16.2408L18.0295 16.3119L21.9195 20.2019L21.9203 20.2027C22.0663 20.3456 22.1522 20.5389 22.1602 20.7431C22.1597 20.9811 22.0649 21.2093 21.8966 21.3776C21.7278 21.5464 21.4989 21.6412 21.2602 21.6412V21.6411L21.2561 21.6413C21.1425 21.646 21.0291 21.627 20.9233 21.5856C20.8174 21.5442 20.7214 21.4813 20.6412 21.4008C20.6412 21.4007 20.6411 21.4007 20.6411 21.4006L16.8314 17.541L16.7607 17.4693L16.6895 17.5405L12.8395 21.3905L12.8395 21.3905L12.8384 21.3917C12.763 21.4694 12.6731 21.5315 12.5736 21.5744C12.4744 21.6171 12.3677 21.6398 12.2596 21.6412C12.0212 21.6411 11.7925 21.5463 11.6238 21.3776C11.455 21.2088 11.3602 20.9799 11.3602 20.7412L11.3602 20.7393C11.3581 20.6303 11.3783 20.5221 11.4196 20.4212C11.4609 20.3203 11.5223 20.2289 11.6002 20.1526L11.6005 20.1524L15.4905 16.3124L15.5621 16.2417L15.4909 16.1705L11.6009 12.2805L11.6009 12.2805L11.6001 12.2797C11.4541 12.1368 11.3682 11.9435 11.3602 11.7394C11.3607 11.5013 11.4555 11.2732 11.6238 11.1048C11.7924 10.9362 12.0211 10.8414 12.2596 10.8412C12.4732 10.844 12.6781 10.9305 12.8295 11.0819L16.6895 14.9419Z" fill="#FC0808" stroke="white" stroke-width="0.2"/>
</svg>
