<svg width="32" height="33" viewBox="0 0 32 33" fill="none" xmlns="http://www.w3.org/2000/svg">
<path fill-rule="evenodd" clip-rule="evenodd" d="M15.9307 1.8667H16.0694C17.268 1.8667 18.2667 1.8667 19.0587 1.97337C19.896 2.08537 20.652 2.33337 21.2587 2.94003C21.8667 3.54803 22.1147 4.30403 22.2267 5.14003C22.3067 5.7267 22.3267 6.42537 22.332 7.23337C23.196 7.26137 23.9667 7.31337 24.652 7.40403C26.2147 7.6147 27.48 8.05737 28.4787 9.0547C29.476 10.0534 29.9187 11.3187 30.1294 12.8814C30.3334 14.4014 30.3334 16.3414 30.3334 18.792V18.9414C30.3334 21.392 30.3334 23.3334 30.1294 24.852C29.9187 26.4147 29.476 27.68 28.4787 28.6787C27.48 29.676 26.2147 30.1187 24.652 30.3294C23.132 30.5334 21.192 30.5334 18.7414 30.5334H13.2587C10.808 30.5334 8.86669 30.5334 7.34802 30.3294C5.78535 30.1187 4.52002 29.676 3.52135 28.6787C2.52402 27.68 2.08135 26.4147 1.87069 24.852C1.66669 23.332 1.66669 21.392 1.66669 18.9414V18.792C1.66669 16.3414 1.66669 14.4 1.87069 12.8814C2.08135 11.3187 2.52402 10.0534 3.52135 9.0547C4.52002 8.05737 5.78535 7.6147 7.34802 7.40403C8.11804 7.30869 8.89233 7.25173 9.66802 7.23337C9.67335 6.42537 9.69469 5.7267 9.77335 5.14003C9.88535 4.30403 10.1334 3.54803 10.74 2.94003C11.348 2.33337 12.104 2.0867 12.94 1.97337C13.7334 1.8667 14.7334 1.8667 15.9307 1.8667ZM11.6694 7.2027C12.1734 7.20003 12.7027 7.20003 13.2587 7.20003H18.7414C19.2974 7.20003 19.8267 7.20003 20.3307 7.2027C20.3254 6.4427 20.3067 5.86937 20.2454 5.4067C20.1614 4.79203 20.0187 4.52803 19.8454 4.3547C19.672 4.18137 19.408 4.0387 18.792 3.9547C18.1494 3.86937 17.2854 3.8667 16 3.8667C14.7147 3.8667 13.8507 3.86937 13.2067 3.95603C12.592 4.0387 12.328 4.18137 12.1547 4.35603C11.9814 4.52937 11.8387 4.79203 11.7547 5.4067C11.6934 5.86803 11.6747 6.44137 11.6694 7.2027ZM7.61335 9.3867C6.27202 9.5667 5.49869 9.90537 4.93335 10.4694C4.37069 11.0334 4.03202 11.8067 3.85202 13.148C3.66802 14.5174 3.66535 16.324 3.66535 18.8667C3.66535 21.4094 3.66802 23.216 3.85202 24.5867C4.03202 25.9267 4.37069 26.7 4.93469 27.264C5.49869 27.828 6.27202 28.1667 7.61335 28.3467C8.98402 28.5307 10.7894 28.5334 13.332 28.5334H18.6654C21.208 28.5334 23.0147 28.5307 24.3854 28.3467C25.7254 28.1667 26.4987 27.828 27.0627 27.264C27.6267 26.7 27.9654 25.9267 28.1454 24.5854C28.3294 23.216 28.332 21.4094 28.332 18.8667C28.332 16.324 28.3294 14.5187 28.1454 13.1467C27.9654 11.8067 27.6267 11.0334 27.0627 10.4694C26.4987 9.90537 25.7254 9.5667 24.384 9.3867C23.0147 9.2027 21.208 9.20003 18.6654 9.20003H13.332C10.7894 9.20003 8.98535 9.2027 7.61335 9.3867Z" fill="#39AC73"/>
<path d="M7.61335 9.3867C6.27202 9.5667 5.49869 9.90537 4.93335 10.4694C4.37069 11.0334 4.03202 11.8067 3.85202 13.148C3.66802 14.5174 3.66535 16.324 3.66535 18.8667C3.66535 21.4094 3.66802 23.216 3.85202 24.5867C4.03202 25.9267 4.37069 26.7 4.93469 27.264C5.49869 27.828 6.27202 28.1667 7.61335 28.3467C8.98402 28.5307 10.7894 28.5334 13.332 28.5334H18.6654C21.208 28.5334 23.0147 28.5307 24.3854 28.3467C25.7254 28.1667 26.4987 27.828 27.0627 27.264C27.6267 26.7 27.9654 25.9267 28.1454 24.5854C28.3294 23.216 28.332 21.4094 28.332 18.8667C28.332 16.324 28.3294 14.5187 28.1454 13.1467C27.9654 11.8067 27.6267 11.0334 27.0627 10.4694C26.4987 9.90537 25.7254 9.5667 24.384 9.3867C23.0147 9.2027 21.208 9.20003 18.6654 9.20003H13.332C10.7894 9.20003 8.98535 9.2027 7.61335 9.3867Z" fill="#39AC73"/>
<path d="M17.1885 17.3002C16.9885 18.3283 16.0833 19.1002 15 19.1002H13.62C13.0381 19.1002 12.5667 19.5716 12.5667 20.1535C12.5667 20.4183 12.6693 20.6838 12.8619 20.8768L16.8808 25.0624C16.8809 25.0625 16.881 25.0625 16.881 25.0626C17.0266 25.2157 17.2261 25.3002 17.4333 25.3002C18.1083 25.3002 18.4528 24.4946 17.9857 24.0045L17.9855 24.0043L14.748 20.6335H15C16.928 20.6335 18.5236 19.1742 18.7434 17.3002H19.3333C19.7552 17.3002 20.1 16.9554 20.1 16.5335C20.1 16.1116 19.7552 15.7669 19.3333 15.7669H18.6014C18.4758 15.3558 18.2822 14.973 18.0317 14.6335H19.3333C19.7552 14.6335 20.1 14.2888 20.1 13.8669C20.1 13.445 19.7552 13.1002 19.3333 13.1002H12.6667C12.2448 13.1002 11.9 13.445 11.9 13.8669C11.9 14.2888 12.2448 14.6335 12.6667 14.6335H15C15.8355 14.6335 16.5595 15.0912 16.9421 15.7669H12.6667C12.2448 15.7669 11.9 16.1116 11.9 16.5335C11.9 16.9554 12.2448 17.3002 12.6667 17.3002H17.1885Z" fill="white" stroke="white" stroke-width="0.2"/>
</svg>
