<svg width="34" height="33" viewBox="0 0 34 33" fill="none" xmlns="http://www.w3.org/2000/svg">
<rect x="1.03036" y="0.241211" width="32" height="32" rx="16" stroke="#121212" stroke-opacity="0.3" stroke-width="0.34459"/>
<g clip-path="url(#clip0_123_7012)">
<path d="M17.0197 11.7412C14.5841 11.7412 12.0857 13.1509 10.1188 15.9703C10.0627 16.0516 10.0319 16.1478 10.0304 16.2467C10.0289 16.3455 10.0567 16.4426 10.1104 16.5256C11.6216 18.8912 14.0866 20.7412 17.0197 20.7412C19.921 20.7412 22.4366 18.8856 23.9507 16.5146C24.0031 16.4332 24.0309 16.3385 24.0309 16.2417C24.0309 16.1449 24.0031 16.0501 23.9507 15.9687C22.4332 13.625 19.8991 11.7412 17.0197 11.7412Z" stroke="#121212" stroke-linecap="round" stroke-linejoin="round"/>
<path d="M17.0304 18.7412C18.4111 18.7412 19.5304 17.6219 19.5304 16.2412C19.5304 14.8605 18.4111 13.7412 17.0304 13.7412C15.6497 13.7412 14.5304 14.8605 14.5304 16.2412C14.5304 17.6219 15.6497 18.7412 17.0304 18.7412Z" stroke="#121212" stroke-miterlimit="10"/>
</g>
<defs>
<clipPath id="clip0_123_7012">
<rect width="16" height="16" fill="white" transform="translate(9.03036 8.24121)"/>
</clipPath>
</defs>
</svg>
