<svg width="48" height="48" viewBox="0 0 48 48" fill="none" xmlns="http://www.w3.org/2000/svg">
<circle cx="24" cy="24" r="24" fill="white"/>
<path d="M32.4313 15.5238C31.3999 14.482 30.1714 13.6559 28.8174 13.0939C27.4634 12.5318 26.011 12.245 24.545 12.2501C18.4025 12.2501 13.3963 17.2563 13.3963 23.3988C13.3963 25.3676 13.9138 27.2801 14.8813 28.9676L13.3063 34.7501L19.2125 33.1976C20.8438 34.0863 22.6775 34.5588 24.545 34.5588C30.6875 34.5588 35.6938 29.5526 35.6938 23.4101C35.6938 20.4288 34.535 17.6276 32.4313 15.5238ZM24.545 32.6688C22.88 32.6688 21.2488 32.2188 19.82 31.3751L19.4825 31.1726L15.9725 32.0951L16.9063 28.6751L16.6813 28.3263C15.7562 26.8492 15.2651 25.1417 15.2638 23.3988C15.2638 18.2913 19.4263 14.1288 24.5338 14.1288C27.0088 14.1288 29.3375 15.0963 31.0813 16.8513C31.9447 17.7108 32.6289 18.7331 33.0943 19.8589C33.5597 20.9848 33.7971 22.1918 33.7925 23.4101C33.815 28.5176 29.6525 32.6688 24.545 32.6688ZM29.63 25.7388C29.3488 25.6038 27.9763 24.9288 27.7288 24.8276C27.47 24.7376 27.29 24.6926 27.0988 24.9626C26.9075 25.2438 26.3788 25.8738 26.2213 26.0538C26.0638 26.2451 25.895 26.2676 25.6138 26.1213C25.3325 25.9863 24.4325 25.6826 23.375 24.7376C22.5425 23.9951 21.9913 23.0838 21.8225 22.8026C21.665 22.5213 21.8 22.3751 21.9463 22.2288C22.07 22.1051 22.2275 21.9026 22.3625 21.7451C22.4975 21.5876 22.5538 21.4638 22.6438 21.2838C22.7338 21.0926 22.6888 20.9351 22.6213 20.8001C22.5538 20.6651 21.9913 19.2926 21.7663 18.7301C21.5413 18.1901 21.305 18.2576 21.1363 18.2463H20.5963C20.405 18.2463 20.1125 18.3138 19.8538 18.5951C19.6063 18.8763 18.8863 19.5513 18.8863 20.9238C18.8863 22.2963 19.8875 23.6238 20.0225 23.8038C20.1575 23.9951 21.9913 26.8076 24.7813 28.0113C25.445 28.3038 25.9625 28.4726 26.3675 28.5963C27.0313 28.8101 27.6388 28.7763 28.1225 28.7088C28.6625 28.6301 29.7763 28.0338 30.0013 27.3813C30.2375 26.7288 30.2375 26.1776 30.1588 26.0538C30.08 25.9301 29.9113 25.8738 29.63 25.7388Z" fill="#39AC73"/>
</svg>
